M48
;DRILL file {KiCad 4.0.2-stable} date 12/4/2017 3:47:39 PM
;FORMAT={3:3/ absolute / metric / suppress leading zeros}
FMAT,2
METRIC,TZ
T1C0.400
T2C0.900
T3C1.000
T4C1.016
T5C3.200
%
G90
G05
M71
T1
X76713Y-75758
X76713Y-125758
X80332Y-79123
X80332Y-129124
X81666Y-70615
X81666Y-120615
X83337Y-75758
X83337Y-125758
X83952Y-73028
X83952Y-123027
X87127Y-79949
X87127Y-129949
X87762Y-65090
X87762Y-115090
X89731Y-81727
X89731Y-131727
X89794Y-70615
X89794Y-120615
X89858Y-63122
X89858Y-113122
X90429Y-76837
X90429Y-126838
X90683Y-63757
X90683Y-113756
X91445Y-83568
X91445Y-133569
X92063Y-72998
X92063Y-122998
X93033Y-64455
X93033Y-114455
X93668Y-68392
X93668Y-118392
X93852Y-65097
X93852Y-115097
X93868Y-74097
X93868Y-124097
X94134Y-71986
X94134Y-121986
X94509Y-69916
X94509Y-119916
X95255Y-68392
X95255Y-118392
X95802Y-71111
X95802Y-121111
X96652Y-77933
X96652Y-127933
X97477Y-63122
X97477Y-64455
X97477Y-113122
X97477Y-114455
X98176Y-63693
X98176Y-113693
X98240Y-71567
X98240Y-121567
X98995Y-72386
X98995Y-122386
X101796Y-81219
X101796Y-131219
X102240Y-91443
X102240Y-141443
X102328Y-69138
X102328Y-119138
X102812Y-77854
X102812Y-127853
X103891Y-71186
X103891Y-121186
X104399Y-71821
X104399Y-121821
X105251Y-69709
X105251Y-119709
X106242Y-70468
X106242Y-120468
X106366Y-76796
X106366Y-126796
X108590Y-72774
X108590Y-122773
X109733Y-91443
X109733Y-141443
X115575Y-78616
X115575Y-128616
X126713Y-75758
X126713Y-125758
X130332Y-79123
X130332Y-129124
X131666Y-70615
X131666Y-120615
X133337Y-75758
X133337Y-125758
X133952Y-73028
X133952Y-123027
X137127Y-79949
X137127Y-129949
X137762Y-65090
X137762Y-115090
X139731Y-81727
X139731Y-131727
X139794Y-70615
X139794Y-120615
X139857Y-63122
X139857Y-113122
X140429Y-76837
X140429Y-126838
X140683Y-63757
X140683Y-113756
X141445Y-83568
X141445Y-133569
X142063Y-72998
X142063Y-122998
X143033Y-64455
X143033Y-114455
X143668Y-68392
X143668Y-118392
X143851Y-65097
X143851Y-115097
X143868Y-74097
X143868Y-124097
X144134Y-71986
X144134Y-121986
X144509Y-69916
X144509Y-119916
X145255Y-68392
X145255Y-118392
X145802Y-71111
X145802Y-121111
X146652Y-77933
X146652Y-127933
X147477Y-63122
X147477Y-64455
X147477Y-113122
X147477Y-114455
X148176Y-63693
X148176Y-113693
X148240Y-71567
X148240Y-121567
X148995Y-72386
X148995Y-122386
X151796Y-81219
X151796Y-131219
X152240Y-91443
X152240Y-141443
X152328Y-69138
X152328Y-119138
X152812Y-77854
X152812Y-127853
X153891Y-71186
X153891Y-121186
X154399Y-71821
X154399Y-121821
X155251Y-69709
X155251Y-119709
X156242Y-70468
X156242Y-120468
X156366Y-76796
X156366Y-126796
X158590Y-72774
X158590Y-122773
X159733Y-91443
X159733Y-141443
X165575Y-78616
X165575Y-128616
T2
X73094Y-90133
X73094Y-140132
X73411Y-53343
X73411Y-103343
X74697Y-95887
X74697Y-145888
X75911Y-53343
X75911Y-103343
X77197Y-95887
X77197Y-145888
X78411Y-53343
X78411Y-103343
X79697Y-95887
X79697Y-145888
X80911Y-53343
X80911Y-103343
X85683Y-96904
X85683Y-146904
X88183Y-96904
X88183Y-146904
X90683Y-96904
X90683Y-146904
X96629Y-95887
X96629Y-145888
X108924Y-53343
X108924Y-103343
X111424Y-53343
X111424Y-103343
X113924Y-53343
X113924Y-103343
X116424Y-53343
X116424Y-103343
X116908Y-82235
X116908Y-84735
X116908Y-87235
X116908Y-89735
X116908Y-132235
X116908Y-134735
X116908Y-137235
X116908Y-139735
X117099Y-68646
X117099Y-71146
X117099Y-73646
X117099Y-76146
X117099Y-118646
X117099Y-121146
X117099Y-123646
X117099Y-126146
X123093Y-90133
X123093Y-140132
X123411Y-53343
X123411Y-103343
X124698Y-95887
X124698Y-145888
X125911Y-53343
X125911Y-103343
X127198Y-95887
X127198Y-145888
X128411Y-53343
X128411Y-103343
X129698Y-95887
X129698Y-145888
X130911Y-53343
X130911Y-103343
X135683Y-96904
X135683Y-146904
X138183Y-96904
X138183Y-146904
X140683Y-96904
X140683Y-146904
X146629Y-95887
X146629Y-145888
X158924Y-53343
X158924Y-103343
X161424Y-53343
X161424Y-103343
X163924Y-53343
X163924Y-103343
X166424Y-53343
X166424Y-103343
X166909Y-82235
X166909Y-84735
X166909Y-87235
X166909Y-89735
X166909Y-132235
X166909Y-134735
X166909Y-137235
X166909Y-139735
X167099Y-68646
X167099Y-71146
X167099Y-73646
X167099Y-76146
X167099Y-118646
X167099Y-121146
X167099Y-123646
X167099Y-126146
T3
X71443Y-68138
X71443Y-83378
X71443Y-118138
X71443Y-133378
X73094Y-87633
X73094Y-137632
X80587Y-68138
X80587Y-83378
X80587Y-118138
X80587Y-133378
X99129Y-95887
X99129Y-145888
X103764Y-53406
X103764Y-55946
X103764Y-58486
X103764Y-61026
X103764Y-103406
X103764Y-105946
X103764Y-108486
X103764Y-111026
X111956Y-96015
X111956Y-146015
X114496Y-96015
X114496Y-146015
X117036Y-96015
X117036Y-146015
X121443Y-68138
X121443Y-83378
X121443Y-118138
X121443Y-133378
X123093Y-87633
X123093Y-137632
X130587Y-68138
X130587Y-83378
X130587Y-118138
X130587Y-133378
X149129Y-95887
X149129Y-145888
X153764Y-53406
X153764Y-55946
X153764Y-58486
X153764Y-61026
X153764Y-103406
X153764Y-105946
X153764Y-108486
X153764Y-111026
X161956Y-96015
X161956Y-146015
X164496Y-96015
X164496Y-146015
X167036Y-96015
X167036Y-146015
T4
X91159Y-57915
X91159Y-60455
X91159Y-107915
X91159Y-110455
X93699Y-57915
X93699Y-60455
X93699Y-107915
X93699Y-110455
X96239Y-57915
X96239Y-60455
X96239Y-107915
X96239Y-110455
X98779Y-57915
X98779Y-60455
X98779Y-107915
X98779Y-110455
X141159Y-57915
X141159Y-60455
X141159Y-107915
X141159Y-110455
X143699Y-57915
X143699Y-60455
X143699Y-107915
X143699Y-110455
X146239Y-57915
X146239Y-60455
X146239Y-107915
X146239Y-110455
X148779Y-57915
X148779Y-60455
X148779Y-107915
X148779Y-110455
T5
X74750Y-62100
X74750Y-112100
X115250Y-62100
X115250Y-112100
X124750Y-62100
X124750Y-112100
X165250Y-62100
X165250Y-112100
T0
M30
