G04 #@! TF.FileFunction,Legend,Bot*
%FSLAX46Y46*%
G04 Gerber Fmt 4.6, Leading zero omitted, Abs format (unit mm)*
G04 Created by KiCad (PCBNEW 4.0.2-stable) date 12/4/2017 3:47:35 PM*
%MOMM*%
G01*
G04 APERTURE LIST*
%ADD10C,0.100000*%
%ADD11C,0.150000*%
%ADD12C,0.120000*%
G04 APERTURE END LIST*
D10*
D11*
X94693000Y-130933000D02*
X94293000Y-130933000D01*
X92373716Y-130098605D02*
G75*
G02X96593000Y-130133000I2119284J1165605D01*
G01*
D12*
X77286000Y-130585500D02*
X75886000Y-130585500D01*
X75886000Y-130585500D02*
X75886000Y-127785500D01*
X77286000Y-130585500D02*
X77286000Y-127785500D01*
X114687500Y-130880500D02*
X113287500Y-130880500D01*
X113287500Y-130880500D02*
X113287500Y-128080500D01*
X114687500Y-130880500D02*
X114687500Y-128080500D01*
X106178500Y-130817000D02*
X104778500Y-130817000D01*
X104778500Y-130817000D02*
X104778500Y-128017000D01*
X106178500Y-130817000D02*
X106178500Y-128017000D01*
X86430000Y-130606000D02*
X85030000Y-130606000D01*
X85030000Y-130606000D02*
X85030000Y-127806000D01*
X86430000Y-130606000D02*
X86430000Y-127806000D01*
X164687500Y-130880500D02*
X163287500Y-130880500D01*
X163287500Y-130880500D02*
X163287500Y-128080500D01*
X164687500Y-130880500D02*
X164687500Y-128080500D01*
X136430000Y-130606000D02*
X135030000Y-130606000D01*
X135030000Y-130606000D02*
X135030000Y-127806000D01*
X136430000Y-130606000D02*
X136430000Y-127806000D01*
X127286000Y-130585500D02*
X125886000Y-130585500D01*
X125886000Y-130585500D02*
X125886000Y-127785500D01*
X127286000Y-130585500D02*
X127286000Y-127785500D01*
X156178500Y-130817000D02*
X154778500Y-130817000D01*
X154778500Y-130817000D02*
X154778500Y-128017000D01*
X156178500Y-130817000D02*
X156178500Y-128017000D01*
D11*
X144693000Y-130933000D02*
X144293000Y-130933000D01*
X142373716Y-130098605D02*
G75*
G02X146593000Y-130133000I2119284J1165605D01*
G01*
X144693000Y-80933000D02*
X144293000Y-80933000D01*
X142373716Y-80098605D02*
G75*
G02X146593000Y-80133000I2119284J1165605D01*
G01*
D12*
X127286000Y-80585500D02*
X125886000Y-80585500D01*
X125886000Y-80585500D02*
X125886000Y-77785500D01*
X127286000Y-80585500D02*
X127286000Y-77785500D01*
X136430000Y-80606000D02*
X135030000Y-80606000D01*
X135030000Y-80606000D02*
X135030000Y-77806000D01*
X136430000Y-80606000D02*
X136430000Y-77806000D01*
X164687500Y-80880500D02*
X163287500Y-80880500D01*
X163287500Y-80880500D02*
X163287500Y-78080500D01*
X164687500Y-80880500D02*
X164687500Y-78080500D01*
X156178500Y-80817000D02*
X154778500Y-80817000D01*
X154778500Y-80817000D02*
X154778500Y-78017000D01*
X156178500Y-80817000D02*
X156178500Y-78017000D01*
X77286000Y-80585500D02*
X75886000Y-80585500D01*
X75886000Y-80585500D02*
X75886000Y-77785500D01*
X77286000Y-80585500D02*
X77286000Y-77785500D01*
X86430000Y-80606000D02*
X85030000Y-80606000D01*
X85030000Y-80606000D02*
X85030000Y-77806000D01*
X86430000Y-80606000D02*
X86430000Y-77806000D01*
X106178500Y-80817000D02*
X104778500Y-80817000D01*
X104778500Y-80817000D02*
X104778500Y-78017000D01*
X106178500Y-80817000D02*
X106178500Y-78017000D01*
X114687500Y-80880500D02*
X113287500Y-80880500D01*
X113287500Y-80880500D02*
X113287500Y-78080500D01*
X114687500Y-80880500D02*
X114687500Y-78080500D01*
D11*
X94693000Y-80933000D02*
X94293000Y-80933000D01*
X92373716Y-80098605D02*
G75*
G02X96593000Y-80133000I2119284J1165605D01*
G01*
X95231095Y-134516181D02*
X95231095Y-133516181D01*
X94850142Y-133516181D01*
X94754904Y-133563800D01*
X94707285Y-133611419D01*
X94659666Y-133706657D01*
X94659666Y-133849514D01*
X94707285Y-133944752D01*
X94754904Y-133992371D01*
X94850142Y-134039990D01*
X95231095Y-134039990D01*
X94326333Y-133516181D02*
X93707285Y-133516181D01*
X94040619Y-133897133D01*
X93897761Y-133897133D01*
X93802523Y-133944752D01*
X93754904Y-133992371D01*
X93707285Y-134087610D01*
X93707285Y-134325705D01*
X93754904Y-134420943D01*
X93802523Y-134468562D01*
X93897761Y-134516181D01*
X94183476Y-134516181D01*
X94278714Y-134468562D01*
X94326333Y-134420943D01*
X78625881Y-128131405D02*
X77625881Y-128131405D01*
X77625881Y-128369500D01*
X77673500Y-128512358D01*
X77768738Y-128607596D01*
X77863976Y-128655215D01*
X78054452Y-128702834D01*
X78197310Y-128702834D01*
X78387786Y-128655215D01*
X78483024Y-128607596D01*
X78578262Y-128512358D01*
X78625881Y-128369500D01*
X78625881Y-128131405D01*
X78625881Y-129655215D02*
X78625881Y-129083786D01*
X78625881Y-129369500D02*
X77625881Y-129369500D01*
X77768738Y-129274262D01*
X77863976Y-129179024D01*
X77911595Y-129083786D01*
X116027381Y-128342405D02*
X115027381Y-128342405D01*
X115027381Y-128580500D01*
X115075000Y-128723358D01*
X115170238Y-128818596D01*
X115265476Y-128866215D01*
X115455952Y-128913834D01*
X115598810Y-128913834D01*
X115789286Y-128866215D01*
X115884524Y-128818596D01*
X115979762Y-128723358D01*
X116027381Y-128580500D01*
X116027381Y-128342405D01*
X115360714Y-129770977D02*
X116027381Y-129770977D01*
X114979762Y-129532881D02*
X115694048Y-129294786D01*
X115694048Y-129913834D01*
X107518381Y-128278905D02*
X106518381Y-128278905D01*
X106518381Y-128517000D01*
X106566000Y-128659858D01*
X106661238Y-128755096D01*
X106756476Y-128802715D01*
X106946952Y-128850334D01*
X107089810Y-128850334D01*
X107280286Y-128802715D01*
X107375524Y-128755096D01*
X107470762Y-128659858D01*
X107518381Y-128517000D01*
X107518381Y-128278905D01*
X106518381Y-129183667D02*
X106518381Y-129802715D01*
X106899333Y-129469381D01*
X106899333Y-129612239D01*
X106946952Y-129707477D01*
X106994571Y-129755096D01*
X107089810Y-129802715D01*
X107327905Y-129802715D01*
X107423143Y-129755096D01*
X107470762Y-129707477D01*
X107518381Y-129612239D01*
X107518381Y-129326524D01*
X107470762Y-129231286D01*
X107423143Y-129183667D01*
X87769881Y-128004405D02*
X86769881Y-128004405D01*
X86769881Y-128242500D01*
X86817500Y-128385358D01*
X86912738Y-128480596D01*
X87007976Y-128528215D01*
X87198452Y-128575834D01*
X87341310Y-128575834D01*
X87531786Y-128528215D01*
X87627024Y-128480596D01*
X87722262Y-128385358D01*
X87769881Y-128242500D01*
X87769881Y-128004405D01*
X86865119Y-128956786D02*
X86817500Y-129004405D01*
X86769881Y-129099643D01*
X86769881Y-129337739D01*
X86817500Y-129432977D01*
X86865119Y-129480596D01*
X86960357Y-129528215D01*
X87055595Y-129528215D01*
X87198452Y-129480596D01*
X87769881Y-128909167D01*
X87769881Y-129528215D01*
X166027381Y-128342405D02*
X165027381Y-128342405D01*
X165027381Y-128580500D01*
X165075000Y-128723358D01*
X165170238Y-128818596D01*
X165265476Y-128866215D01*
X165455952Y-128913834D01*
X165598810Y-128913834D01*
X165789286Y-128866215D01*
X165884524Y-128818596D01*
X165979762Y-128723358D01*
X166027381Y-128580500D01*
X166027381Y-128342405D01*
X165360714Y-129770977D02*
X166027381Y-129770977D01*
X164979762Y-129532881D02*
X165694048Y-129294786D01*
X165694048Y-129913834D01*
X137769881Y-128004405D02*
X136769881Y-128004405D01*
X136769881Y-128242500D01*
X136817500Y-128385358D01*
X136912738Y-128480596D01*
X137007976Y-128528215D01*
X137198452Y-128575834D01*
X137341310Y-128575834D01*
X137531786Y-128528215D01*
X137627024Y-128480596D01*
X137722262Y-128385358D01*
X137769881Y-128242500D01*
X137769881Y-128004405D01*
X136865119Y-128956786D02*
X136817500Y-129004405D01*
X136769881Y-129099643D01*
X136769881Y-129337739D01*
X136817500Y-129432977D01*
X136865119Y-129480596D01*
X136960357Y-129528215D01*
X137055595Y-129528215D01*
X137198452Y-129480596D01*
X137769881Y-128909167D01*
X137769881Y-129528215D01*
X128625881Y-128131405D02*
X127625881Y-128131405D01*
X127625881Y-128369500D01*
X127673500Y-128512358D01*
X127768738Y-128607596D01*
X127863976Y-128655215D01*
X128054452Y-128702834D01*
X128197310Y-128702834D01*
X128387786Y-128655215D01*
X128483024Y-128607596D01*
X128578262Y-128512358D01*
X128625881Y-128369500D01*
X128625881Y-128131405D01*
X128625881Y-129655215D02*
X128625881Y-129083786D01*
X128625881Y-129369500D02*
X127625881Y-129369500D01*
X127768738Y-129274262D01*
X127863976Y-129179024D01*
X127911595Y-129083786D01*
X157518381Y-128278905D02*
X156518381Y-128278905D01*
X156518381Y-128517000D01*
X156566000Y-128659858D01*
X156661238Y-128755096D01*
X156756476Y-128802715D01*
X156946952Y-128850334D01*
X157089810Y-128850334D01*
X157280286Y-128802715D01*
X157375524Y-128755096D01*
X157470762Y-128659858D01*
X157518381Y-128517000D01*
X157518381Y-128278905D01*
X156518381Y-129183667D02*
X156518381Y-129802715D01*
X156899333Y-129469381D01*
X156899333Y-129612239D01*
X156946952Y-129707477D01*
X156994571Y-129755096D01*
X157089810Y-129802715D01*
X157327905Y-129802715D01*
X157423143Y-129755096D01*
X157470762Y-129707477D01*
X157518381Y-129612239D01*
X157518381Y-129326524D01*
X157470762Y-129231286D01*
X157423143Y-129183667D01*
X165233595Y-144266881D02*
X165233595Y-143266881D01*
X164852642Y-143266881D01*
X164757404Y-143314500D01*
X164709785Y-143362119D01*
X164662166Y-143457357D01*
X164662166Y-143600214D01*
X164709785Y-143695452D01*
X164757404Y-143743071D01*
X164852642Y-143790690D01*
X165233595Y-143790690D01*
X164328833Y-143266881D02*
X163662166Y-143266881D01*
X164090738Y-144266881D01*
X115233595Y-144266881D02*
X115233595Y-143266881D01*
X114852642Y-143266881D01*
X114757404Y-143314500D01*
X114709785Y-143362119D01*
X114662166Y-143457357D01*
X114662166Y-143600214D01*
X114709785Y-143695452D01*
X114757404Y-143743071D01*
X114852642Y-143790690D01*
X115233595Y-143790690D01*
X114328833Y-143266881D02*
X113662166Y-143266881D01*
X114090738Y-144266881D01*
X145231095Y-134516181D02*
X145231095Y-133516181D01*
X144850142Y-133516181D01*
X144754904Y-133563800D01*
X144707285Y-133611419D01*
X144659666Y-133706657D01*
X144659666Y-133849514D01*
X144707285Y-133944752D01*
X144754904Y-133992371D01*
X144850142Y-134039990D01*
X145231095Y-134039990D01*
X144326333Y-133516181D02*
X143707285Y-133516181D01*
X144040619Y-133897133D01*
X143897761Y-133897133D01*
X143802523Y-133944752D01*
X143754904Y-133992371D01*
X143707285Y-134087610D01*
X143707285Y-134325705D01*
X143754904Y-134420943D01*
X143802523Y-134468562D01*
X143897761Y-134516181D01*
X144183476Y-134516181D01*
X144278714Y-134468562D01*
X144326333Y-134420943D01*
X145231095Y-84516181D02*
X145231095Y-83516181D01*
X144850142Y-83516181D01*
X144754904Y-83563800D01*
X144707285Y-83611419D01*
X144659666Y-83706657D01*
X144659666Y-83849514D01*
X144707285Y-83944752D01*
X144754904Y-83992371D01*
X144850142Y-84039990D01*
X145231095Y-84039990D01*
X144326333Y-83516181D02*
X143707285Y-83516181D01*
X144040619Y-83897133D01*
X143897761Y-83897133D01*
X143802523Y-83944752D01*
X143754904Y-83992371D01*
X143707285Y-84087610D01*
X143707285Y-84325705D01*
X143754904Y-84420943D01*
X143802523Y-84468562D01*
X143897761Y-84516181D01*
X144183476Y-84516181D01*
X144278714Y-84468562D01*
X144326333Y-84420943D01*
X128625881Y-78131405D02*
X127625881Y-78131405D01*
X127625881Y-78369500D01*
X127673500Y-78512358D01*
X127768738Y-78607596D01*
X127863976Y-78655215D01*
X128054452Y-78702834D01*
X128197310Y-78702834D01*
X128387786Y-78655215D01*
X128483024Y-78607596D01*
X128578262Y-78512358D01*
X128625881Y-78369500D01*
X128625881Y-78131405D01*
X128625881Y-79655215D02*
X128625881Y-79083786D01*
X128625881Y-79369500D02*
X127625881Y-79369500D01*
X127768738Y-79274262D01*
X127863976Y-79179024D01*
X127911595Y-79083786D01*
X137769881Y-78004405D02*
X136769881Y-78004405D01*
X136769881Y-78242500D01*
X136817500Y-78385358D01*
X136912738Y-78480596D01*
X137007976Y-78528215D01*
X137198452Y-78575834D01*
X137341310Y-78575834D01*
X137531786Y-78528215D01*
X137627024Y-78480596D01*
X137722262Y-78385358D01*
X137769881Y-78242500D01*
X137769881Y-78004405D01*
X136865119Y-78956786D02*
X136817500Y-79004405D01*
X136769881Y-79099643D01*
X136769881Y-79337739D01*
X136817500Y-79432977D01*
X136865119Y-79480596D01*
X136960357Y-79528215D01*
X137055595Y-79528215D01*
X137198452Y-79480596D01*
X137769881Y-78909167D01*
X137769881Y-79528215D01*
X166027381Y-78342405D02*
X165027381Y-78342405D01*
X165027381Y-78580500D01*
X165075000Y-78723358D01*
X165170238Y-78818596D01*
X165265476Y-78866215D01*
X165455952Y-78913834D01*
X165598810Y-78913834D01*
X165789286Y-78866215D01*
X165884524Y-78818596D01*
X165979762Y-78723358D01*
X166027381Y-78580500D01*
X166027381Y-78342405D01*
X165360714Y-79770977D02*
X166027381Y-79770977D01*
X164979762Y-79532881D02*
X165694048Y-79294786D01*
X165694048Y-79913834D01*
X165233595Y-94266881D02*
X165233595Y-93266881D01*
X164852642Y-93266881D01*
X164757404Y-93314500D01*
X164709785Y-93362119D01*
X164662166Y-93457357D01*
X164662166Y-93600214D01*
X164709785Y-93695452D01*
X164757404Y-93743071D01*
X164852642Y-93790690D01*
X165233595Y-93790690D01*
X164328833Y-93266881D02*
X163662166Y-93266881D01*
X164090738Y-94266881D01*
X157518381Y-78278905D02*
X156518381Y-78278905D01*
X156518381Y-78517000D01*
X156566000Y-78659858D01*
X156661238Y-78755096D01*
X156756476Y-78802715D01*
X156946952Y-78850334D01*
X157089810Y-78850334D01*
X157280286Y-78802715D01*
X157375524Y-78755096D01*
X157470762Y-78659858D01*
X157518381Y-78517000D01*
X157518381Y-78278905D01*
X156518381Y-79183667D02*
X156518381Y-79802715D01*
X156899333Y-79469381D01*
X156899333Y-79612239D01*
X156946952Y-79707477D01*
X156994571Y-79755096D01*
X157089810Y-79802715D01*
X157327905Y-79802715D01*
X157423143Y-79755096D01*
X157470762Y-79707477D01*
X157518381Y-79612239D01*
X157518381Y-79326524D01*
X157470762Y-79231286D01*
X157423143Y-79183667D01*
X78625881Y-78131405D02*
X77625881Y-78131405D01*
X77625881Y-78369500D01*
X77673500Y-78512358D01*
X77768738Y-78607596D01*
X77863976Y-78655215D01*
X78054452Y-78702834D01*
X78197310Y-78702834D01*
X78387786Y-78655215D01*
X78483024Y-78607596D01*
X78578262Y-78512358D01*
X78625881Y-78369500D01*
X78625881Y-78131405D01*
X78625881Y-79655215D02*
X78625881Y-79083786D01*
X78625881Y-79369500D02*
X77625881Y-79369500D01*
X77768738Y-79274262D01*
X77863976Y-79179024D01*
X77911595Y-79083786D01*
X87769881Y-78004405D02*
X86769881Y-78004405D01*
X86769881Y-78242500D01*
X86817500Y-78385358D01*
X86912738Y-78480596D01*
X87007976Y-78528215D01*
X87198452Y-78575834D01*
X87341310Y-78575834D01*
X87531786Y-78528215D01*
X87627024Y-78480596D01*
X87722262Y-78385358D01*
X87769881Y-78242500D01*
X87769881Y-78004405D01*
X86865119Y-78956786D02*
X86817500Y-79004405D01*
X86769881Y-79099643D01*
X86769881Y-79337739D01*
X86817500Y-79432977D01*
X86865119Y-79480596D01*
X86960357Y-79528215D01*
X87055595Y-79528215D01*
X87198452Y-79480596D01*
X87769881Y-78909167D01*
X87769881Y-79528215D01*
X107518381Y-78278905D02*
X106518381Y-78278905D01*
X106518381Y-78517000D01*
X106566000Y-78659858D01*
X106661238Y-78755096D01*
X106756476Y-78802715D01*
X106946952Y-78850334D01*
X107089810Y-78850334D01*
X107280286Y-78802715D01*
X107375524Y-78755096D01*
X107470762Y-78659858D01*
X107518381Y-78517000D01*
X107518381Y-78278905D01*
X106518381Y-79183667D02*
X106518381Y-79802715D01*
X106899333Y-79469381D01*
X106899333Y-79612239D01*
X106946952Y-79707477D01*
X106994571Y-79755096D01*
X107089810Y-79802715D01*
X107327905Y-79802715D01*
X107423143Y-79755096D01*
X107470762Y-79707477D01*
X107518381Y-79612239D01*
X107518381Y-79326524D01*
X107470762Y-79231286D01*
X107423143Y-79183667D01*
X116027381Y-78342405D02*
X115027381Y-78342405D01*
X115027381Y-78580500D01*
X115075000Y-78723358D01*
X115170238Y-78818596D01*
X115265476Y-78866215D01*
X115455952Y-78913834D01*
X115598810Y-78913834D01*
X115789286Y-78866215D01*
X115884524Y-78818596D01*
X115979762Y-78723358D01*
X116027381Y-78580500D01*
X116027381Y-78342405D01*
X115360714Y-79770977D02*
X116027381Y-79770977D01*
X114979762Y-79532881D02*
X115694048Y-79294786D01*
X115694048Y-79913834D01*
X95231095Y-84516181D02*
X95231095Y-83516181D01*
X94850142Y-83516181D01*
X94754904Y-83563800D01*
X94707285Y-83611419D01*
X94659666Y-83706657D01*
X94659666Y-83849514D01*
X94707285Y-83944752D01*
X94754904Y-83992371D01*
X94850142Y-84039990D01*
X95231095Y-84039990D01*
X94326333Y-83516181D02*
X93707285Y-83516181D01*
X94040619Y-83897133D01*
X93897761Y-83897133D01*
X93802523Y-83944752D01*
X93754904Y-83992371D01*
X93707285Y-84087610D01*
X93707285Y-84325705D01*
X93754904Y-84420943D01*
X93802523Y-84468562D01*
X93897761Y-84516181D01*
X94183476Y-84516181D01*
X94278714Y-84468562D01*
X94326333Y-84420943D01*
X115233595Y-94266881D02*
X115233595Y-93266881D01*
X114852642Y-93266881D01*
X114757404Y-93314500D01*
X114709785Y-93362119D01*
X114662166Y-93457357D01*
X114662166Y-93600214D01*
X114709785Y-93695452D01*
X114757404Y-93743071D01*
X114852642Y-93790690D01*
X115233595Y-93790690D01*
X114328833Y-93266881D02*
X113662166Y-93266881D01*
X114090738Y-94266881D01*
M02*
