G04 #@! TF.FileFunction,Copper,L1,Top,Signal*
%FSLAX46Y46*%
G04 Gerber Fmt 4.6, Leading zero omitted, Abs format (unit mm)*
G04 Created by KiCad (PCBNEW 4.0.2-stable) date 12/4/2017 3:47:33 PM*
%MOMM*%
G01*
G04 APERTURE LIST*
%ADD10C,0.100000*%
%ADD11C,1.800000*%
%ADD12R,1.800000X1.800000*%
%ADD13R,1.300000X0.700000*%
%ADD14R,1.250000X1.000000*%
%ADD15R,1.500000X1.500000*%
%ADD16C,1.500000*%
%ADD17R,1.600000X2.180000*%
%ADD18R,0.700000X1.300000*%
%ADD19R,0.600000X1.550000*%
%ADD20R,1.000000X1.250000*%
%ADD21R,1.550000X0.600000*%
%ADD22R,1.700000X1.700000*%
%ADD23O,1.700000X1.700000*%
%ADD24R,1.727200X1.727200*%
%ADD25O,1.727200X1.727200*%
%ADD26R,0.600000X1.200000*%
%ADD27R,1.200000X0.600000*%
%ADD28R,1.000000X1.600000*%
%ADD29R,3.800000X2.000000*%
%ADD30R,1.500000X2.000000*%
%ADD31C,0.600000*%
%ADD32C,0.500000*%
%ADD33C,0.250000*%
G04 APERTURE END LIST*
D10*
D11*
X164495500Y-146014500D03*
D12*
X161955500Y-146014500D03*
D11*
X167035500Y-146014500D03*
X114495500Y-146014500D03*
D12*
X111955500Y-146014500D03*
D11*
X117035500Y-146014500D03*
D13*
X152811500Y-123601500D03*
X152811500Y-125501500D03*
D14*
X157510500Y-125742000D03*
X157510500Y-123742000D03*
D15*
X167099000Y-118646000D03*
D16*
X167099000Y-121146000D03*
X167099000Y-123646000D03*
X167099000Y-126146000D03*
D17*
X160492680Y-128455430D03*
X160497320Y-119250570D03*
D13*
X157510500Y-129121000D03*
X157510500Y-127221000D03*
X150843000Y-120109000D03*
X150843000Y-122009000D03*
D18*
X131097000Y-108422500D03*
X132997000Y-108422500D03*
D15*
X123411000Y-103342500D03*
D16*
X125911000Y-103342500D03*
X128411000Y-103342500D03*
X130911000Y-103342500D03*
D10*
G36*
X132072500Y-112059500D02*
X132072500Y-114183500D01*
X130802500Y-113583500D01*
X130802500Y-112659500D01*
X132072500Y-112059500D01*
X132072500Y-112059500D01*
G37*
G36*
X133672500Y-112659500D02*
X133672500Y-113583500D01*
X132402500Y-114183500D01*
X132402500Y-112059500D01*
X133672500Y-112659500D01*
X133672500Y-112659500D01*
G37*
D19*
X130142000Y-115821500D03*
X131412000Y-115821500D03*
X132682000Y-115821500D03*
X133952000Y-115821500D03*
X133952000Y-110421500D03*
X132682000Y-110421500D03*
X131412000Y-110421500D03*
X130142000Y-110421500D03*
D13*
X138524000Y-128044000D03*
X138524000Y-129944000D03*
D15*
X124697500Y-145887500D03*
D16*
X127197500Y-145887500D03*
X129697500Y-145887500D03*
D15*
X146628500Y-145887500D03*
D16*
X149128500Y-145887500D03*
D15*
X123093500Y-140132500D03*
D16*
X123093500Y-137632500D03*
D14*
X140429000Y-127933000D03*
X140429000Y-129933000D03*
D15*
X140683000Y-146903500D03*
D16*
X138183000Y-146903500D03*
X135683000Y-146903500D03*
D20*
X159209000Y-133124000D03*
X157209000Y-133124000D03*
X155462500Y-140426500D03*
X153462500Y-140426500D03*
D18*
X154907000Y-131219000D03*
X153007000Y-131219000D03*
X153004500Y-133124000D03*
X154904500Y-133124000D03*
X157259000Y-131219000D03*
X159159000Y-131219000D03*
X156880500Y-140426500D03*
X158780500Y-140426500D03*
D21*
X153446500Y-134902000D03*
X153446500Y-136172000D03*
X153446500Y-137442000D03*
X153446500Y-138712000D03*
X158846500Y-138712000D03*
X158846500Y-137442000D03*
X158846500Y-136172000D03*
X158846500Y-134902000D03*
D15*
X166908500Y-132235000D03*
D16*
X166908500Y-134735000D03*
X166908500Y-137235000D03*
X166908500Y-139735000D03*
D10*
G36*
X161409500Y-134475000D02*
X161409500Y-136599000D01*
X160139500Y-135999000D01*
X160139500Y-135075000D01*
X161409500Y-134475000D01*
X161409500Y-134475000D01*
G37*
G36*
X163009500Y-135075000D02*
X163009500Y-135999000D01*
X161739500Y-136599000D01*
X161739500Y-134475000D01*
X163009500Y-135075000D01*
X163009500Y-135075000D01*
G37*
D18*
X162649000Y-138140500D03*
X160749000Y-138140500D03*
D10*
G36*
X161739500Y-133297000D02*
X161739500Y-131173000D01*
X163009500Y-131773000D01*
X163009500Y-132697000D01*
X161739500Y-133297000D01*
X161739500Y-133297000D01*
G37*
G36*
X160139500Y-132697000D02*
X160139500Y-131773000D01*
X161409500Y-131173000D01*
X161409500Y-133297000D01*
X160139500Y-132697000D01*
X160139500Y-132697000D01*
G37*
D20*
X140953000Y-105057000D03*
X142953000Y-105057000D03*
X140953000Y-103215500D03*
X142953000Y-103215500D03*
D18*
X157957500Y-108359000D03*
X159857500Y-108359000D03*
D22*
X153764000Y-103406000D03*
D23*
X153764000Y-105946000D03*
X153764000Y-108486000D03*
X153764000Y-111026000D03*
D24*
X141159000Y-110454500D03*
D25*
X141159000Y-107914500D03*
X143699000Y-110454500D03*
X143699000Y-107914500D03*
X146239000Y-110454500D03*
X146239000Y-107914500D03*
X148779000Y-110454500D03*
X148779000Y-107914500D03*
D13*
X152557500Y-113441500D03*
X152557500Y-115341500D03*
D19*
X156558000Y-115821500D03*
X157828000Y-115821500D03*
X159098000Y-115821500D03*
X160368000Y-115821500D03*
X160368000Y-110421500D03*
X159098000Y-110421500D03*
X157828000Y-110421500D03*
X156558000Y-110421500D03*
D15*
X158924000Y-103342500D03*
D16*
X161424000Y-103342500D03*
X163924000Y-103342500D03*
X166424000Y-103342500D03*
D10*
G36*
X158260000Y-112123000D02*
X158260000Y-114247000D01*
X156990000Y-113647000D01*
X156990000Y-112723000D01*
X158260000Y-112123000D01*
X158260000Y-112123000D01*
G37*
G36*
X159860000Y-112723000D02*
X159860000Y-113647000D01*
X158590000Y-114247000D01*
X158590000Y-112123000D01*
X159860000Y-112723000D01*
X159860000Y-112723000D01*
G37*
D13*
X154399000Y-113439000D03*
X154399000Y-115339000D03*
D26*
X139851500Y-125436000D03*
X140651500Y-125436000D03*
X141451500Y-125436000D03*
X142251500Y-125436000D03*
X143051500Y-125436000D03*
X143851500Y-125436000D03*
X144651500Y-125436000D03*
X145451500Y-125436000D03*
D27*
X146901500Y-123986000D03*
X146901500Y-123186000D03*
X146901500Y-122386000D03*
X146901500Y-121586000D03*
X146901500Y-120786000D03*
X146901500Y-119986000D03*
X146901500Y-119186000D03*
X146901500Y-118386000D03*
D26*
X145451500Y-116936000D03*
X144651500Y-116936000D03*
X143851500Y-116936000D03*
X143051500Y-116936000D03*
X142251500Y-116936000D03*
X141451500Y-116936000D03*
X140651500Y-116936000D03*
X139851500Y-116936000D03*
D27*
X138401500Y-118386000D03*
X138401500Y-119186000D03*
X138401500Y-119986000D03*
X138401500Y-120786000D03*
X138401500Y-121586000D03*
X138401500Y-122386000D03*
X138401500Y-123186000D03*
X138401500Y-123986000D03*
D13*
X145255000Y-133566000D03*
X145255000Y-131666000D03*
D14*
X149001500Y-125488000D03*
X149001500Y-123488000D03*
X142778500Y-127933000D03*
X142778500Y-129933000D03*
X150843000Y-125488000D03*
X150843000Y-123488000D03*
X145255000Y-127933000D03*
X145255000Y-129933000D03*
D18*
X148877000Y-127472500D03*
X150777000Y-127472500D03*
D14*
X142778500Y-133552500D03*
X142778500Y-131552500D03*
D15*
X96628500Y-145887500D03*
D16*
X99128500Y-145887500D03*
D13*
X95255000Y-133566000D03*
X95255000Y-131666000D03*
D14*
X92778500Y-133552500D03*
X92778500Y-131552500D03*
D15*
X73093500Y-140132500D03*
D16*
X73093500Y-137632500D03*
D15*
X90683000Y-146903500D03*
D16*
X88183000Y-146903500D03*
X85683000Y-146903500D03*
D15*
X74697500Y-145887500D03*
D16*
X77197500Y-145887500D03*
X79697500Y-145887500D03*
D18*
X78430000Y-130584000D03*
X80330000Y-130584000D03*
D24*
X91159000Y-110454500D03*
D25*
X91159000Y-107914500D03*
X93699000Y-110454500D03*
X93699000Y-107914500D03*
X96239000Y-110454500D03*
X96239000Y-107914500D03*
X98779000Y-110454500D03*
X98779000Y-107914500D03*
D20*
X90953000Y-105057000D03*
X92953000Y-105057000D03*
X90953000Y-103215500D03*
X92953000Y-103215500D03*
D15*
X73411000Y-103342500D03*
D16*
X75911000Y-103342500D03*
X78411000Y-103342500D03*
X80911000Y-103342500D03*
D10*
G36*
X82072500Y-112059500D02*
X82072500Y-114183500D01*
X80802500Y-113583500D01*
X80802500Y-112659500D01*
X82072500Y-112059500D01*
X82072500Y-112059500D01*
G37*
G36*
X83672500Y-112659500D02*
X83672500Y-113583500D01*
X82402500Y-114183500D01*
X82402500Y-112059500D01*
X83672500Y-112659500D01*
X83672500Y-112659500D01*
G37*
D19*
X80142000Y-115821500D03*
X81412000Y-115821500D03*
X82682000Y-115821500D03*
X83952000Y-115821500D03*
X83952000Y-110421500D03*
X82682000Y-110421500D03*
X81412000Y-110421500D03*
X80142000Y-110421500D03*
D18*
X81097000Y-108422500D03*
X82997000Y-108422500D03*
D28*
X77514500Y-118328500D03*
X74514500Y-118328500D03*
D20*
X76903500Y-130584000D03*
X74903500Y-130584000D03*
D29*
X75810000Y-121236000D03*
D30*
X75810000Y-127536000D03*
X78110000Y-127536000D03*
X73510000Y-127536000D03*
D20*
X76903500Y-132489000D03*
X74903500Y-132489000D03*
D11*
X80586500Y-133378000D03*
X71442500Y-133378000D03*
X71442500Y-118138000D03*
X80586500Y-118138000D03*
D13*
X88524000Y-128044000D03*
X88524000Y-129944000D03*
D14*
X90429000Y-127933000D03*
X90429000Y-129933000D03*
D26*
X89851500Y-125436000D03*
X90651500Y-125436000D03*
X91451500Y-125436000D03*
X92251500Y-125436000D03*
X93051500Y-125436000D03*
X93851500Y-125436000D03*
X94651500Y-125436000D03*
X95451500Y-125436000D03*
D27*
X96901500Y-123986000D03*
X96901500Y-123186000D03*
X96901500Y-122386000D03*
X96901500Y-121586000D03*
X96901500Y-120786000D03*
X96901500Y-119986000D03*
X96901500Y-119186000D03*
X96901500Y-118386000D03*
D26*
X95451500Y-116936000D03*
X94651500Y-116936000D03*
X93851500Y-116936000D03*
X93051500Y-116936000D03*
X92251500Y-116936000D03*
X91451500Y-116936000D03*
X90651500Y-116936000D03*
X89851500Y-116936000D03*
D27*
X88401500Y-118386000D03*
X88401500Y-119186000D03*
X88401500Y-119986000D03*
X88401500Y-120786000D03*
X88401500Y-121586000D03*
X88401500Y-122386000D03*
X88401500Y-123186000D03*
X88401500Y-123986000D03*
D14*
X92778500Y-127933000D03*
X92778500Y-129933000D03*
X95255000Y-127933000D03*
X95255000Y-129933000D03*
X99001500Y-125488000D03*
X99001500Y-123488000D03*
D18*
X98877000Y-127472500D03*
X100777000Y-127472500D03*
X128430000Y-130584000D03*
X130330000Y-130584000D03*
D11*
X130586500Y-133378000D03*
X121442500Y-133378000D03*
X121442500Y-118138000D03*
X130586500Y-118138000D03*
D29*
X125810000Y-121236000D03*
D30*
X125810000Y-127536000D03*
X128110000Y-127536000D03*
X123510000Y-127536000D03*
D28*
X127514500Y-118328500D03*
X124514500Y-118328500D03*
D20*
X126903500Y-130584000D03*
X124903500Y-130584000D03*
X126903500Y-132489000D03*
X124903500Y-132489000D03*
X105462500Y-140426500D03*
X103462500Y-140426500D03*
D21*
X103446500Y-134902000D03*
X103446500Y-136172000D03*
X103446500Y-137442000D03*
X103446500Y-138712000D03*
X108846500Y-138712000D03*
X108846500Y-137442000D03*
X108846500Y-136172000D03*
X108846500Y-134902000D03*
D20*
X109209000Y-133124000D03*
X107209000Y-133124000D03*
D18*
X103004500Y-133124000D03*
X104904500Y-133124000D03*
X107259000Y-131219000D03*
X109159000Y-131219000D03*
X106880500Y-140426500D03*
X108780500Y-140426500D03*
X104907000Y-131219000D03*
X103007000Y-131219000D03*
D10*
G36*
X111409500Y-134475000D02*
X111409500Y-136599000D01*
X110139500Y-135999000D01*
X110139500Y-135075000D01*
X111409500Y-134475000D01*
X111409500Y-134475000D01*
G37*
G36*
X113009500Y-135075000D02*
X113009500Y-135999000D01*
X111739500Y-136599000D01*
X111739500Y-134475000D01*
X113009500Y-135075000D01*
X113009500Y-135075000D01*
G37*
G36*
X111739500Y-133297000D02*
X111739500Y-131173000D01*
X113009500Y-131773000D01*
X113009500Y-132697000D01*
X111739500Y-133297000D01*
X111739500Y-133297000D01*
G37*
G36*
X110139500Y-132697000D02*
X110139500Y-131773000D01*
X111409500Y-131173000D01*
X111409500Y-133297000D01*
X110139500Y-132697000D01*
X110139500Y-132697000D01*
G37*
D18*
X112649000Y-138140500D03*
X110749000Y-138140500D03*
D15*
X116908500Y-132235000D03*
D16*
X116908500Y-134735000D03*
X116908500Y-137235000D03*
X116908500Y-139735000D03*
D17*
X110492680Y-128455430D03*
X110497320Y-119250570D03*
D15*
X117099000Y-118646000D03*
D16*
X117099000Y-121146000D03*
X117099000Y-123646000D03*
X117099000Y-126146000D03*
D14*
X107510500Y-125742000D03*
X107510500Y-123742000D03*
X100843000Y-125488000D03*
X100843000Y-123488000D03*
D13*
X100843000Y-120109000D03*
X100843000Y-122009000D03*
X102811500Y-123601500D03*
X102811500Y-125501500D03*
X107510500Y-129121000D03*
X107510500Y-127221000D03*
X102557500Y-113441500D03*
X102557500Y-115341500D03*
X104399000Y-113439000D03*
X104399000Y-115339000D03*
D22*
X103764000Y-103406000D03*
D23*
X103764000Y-105946000D03*
X103764000Y-108486000D03*
X103764000Y-111026000D03*
D19*
X106558000Y-115821500D03*
X107828000Y-115821500D03*
X109098000Y-115821500D03*
X110368000Y-115821500D03*
X110368000Y-110421500D03*
X109098000Y-110421500D03*
X107828000Y-110421500D03*
X106558000Y-110421500D03*
D18*
X107957500Y-108359000D03*
X109857500Y-108359000D03*
D15*
X108924000Y-103342500D03*
D16*
X111424000Y-103342500D03*
X113924000Y-103342500D03*
X116424000Y-103342500D03*
D10*
G36*
X108260000Y-112123000D02*
X108260000Y-114247000D01*
X106990000Y-113647000D01*
X106990000Y-112723000D01*
X108260000Y-112123000D01*
X108260000Y-112123000D01*
G37*
G36*
X109860000Y-112723000D02*
X109860000Y-113647000D01*
X108590000Y-114247000D01*
X108590000Y-112123000D01*
X109860000Y-112723000D01*
X109860000Y-112723000D01*
G37*
D11*
X164495500Y-96014500D03*
D12*
X161955500Y-96014500D03*
D11*
X167035500Y-96014500D03*
D18*
X154907000Y-81219000D03*
X153007000Y-81219000D03*
X153004500Y-83124000D03*
X154904500Y-83124000D03*
X157259000Y-81219000D03*
X159159000Y-81219000D03*
D20*
X159209000Y-83124000D03*
X157209000Y-83124000D03*
D21*
X153446500Y-84902000D03*
X153446500Y-86172000D03*
X153446500Y-87442000D03*
X153446500Y-88712000D03*
X158846500Y-88712000D03*
X158846500Y-87442000D03*
X158846500Y-86172000D03*
X158846500Y-84902000D03*
D20*
X155462500Y-90426500D03*
X153462500Y-90426500D03*
D18*
X156880500Y-90426500D03*
X158780500Y-90426500D03*
D15*
X166908500Y-82235000D03*
D16*
X166908500Y-84735000D03*
X166908500Y-87235000D03*
X166908500Y-89735000D03*
D18*
X162649000Y-88140500D03*
X160749000Y-88140500D03*
D10*
G36*
X161739500Y-83297000D02*
X161739500Y-81173000D01*
X163009500Y-81773000D01*
X163009500Y-82697000D01*
X161739500Y-83297000D01*
X161739500Y-83297000D01*
G37*
G36*
X160139500Y-82697000D02*
X160139500Y-81773000D01*
X161409500Y-81173000D01*
X161409500Y-83297000D01*
X160139500Y-82697000D01*
X160139500Y-82697000D01*
G37*
G36*
X161409500Y-84475000D02*
X161409500Y-86599000D01*
X160139500Y-85999000D01*
X160139500Y-85075000D01*
X161409500Y-84475000D01*
X161409500Y-84475000D01*
G37*
G36*
X163009500Y-85075000D02*
X163009500Y-85999000D01*
X161739500Y-86599000D01*
X161739500Y-84475000D01*
X163009500Y-85075000D01*
X163009500Y-85075000D01*
G37*
D15*
X146628500Y-95887500D03*
D16*
X149128500Y-95887500D03*
D14*
X142778500Y-83552500D03*
X142778500Y-81552500D03*
D13*
X145255000Y-83566000D03*
X145255000Y-81666000D03*
X152811500Y-73601500D03*
X152811500Y-75501500D03*
D17*
X160492680Y-78455430D03*
X160497320Y-69250570D03*
D13*
X157510500Y-79121000D03*
X157510500Y-77221000D03*
X154399000Y-63439000D03*
X154399000Y-65339000D03*
D14*
X157510500Y-75742000D03*
X157510500Y-73742000D03*
D15*
X167099000Y-68646000D03*
D16*
X167099000Y-71146000D03*
X167099000Y-73646000D03*
X167099000Y-76146000D03*
D10*
G36*
X158260000Y-62123000D02*
X158260000Y-64247000D01*
X156990000Y-63647000D01*
X156990000Y-62723000D01*
X158260000Y-62123000D01*
X158260000Y-62123000D01*
G37*
G36*
X159860000Y-62723000D02*
X159860000Y-63647000D01*
X158590000Y-64247000D01*
X158590000Y-62123000D01*
X159860000Y-62723000D01*
X159860000Y-62723000D01*
G37*
D19*
X156558000Y-65821500D03*
X157828000Y-65821500D03*
X159098000Y-65821500D03*
X160368000Y-65821500D03*
X160368000Y-60421500D03*
X159098000Y-60421500D03*
X157828000Y-60421500D03*
X156558000Y-60421500D03*
D22*
X153764000Y-53406000D03*
D23*
X153764000Y-55946000D03*
X153764000Y-58486000D03*
X153764000Y-61026000D03*
D13*
X152557500Y-63441500D03*
X152557500Y-65341500D03*
D15*
X158924000Y-53342500D03*
D16*
X161424000Y-53342500D03*
X163924000Y-53342500D03*
X166424000Y-53342500D03*
D18*
X157957500Y-58359000D03*
X159857500Y-58359000D03*
X128430000Y-80584000D03*
X130330000Y-80584000D03*
D15*
X124697500Y-95887500D03*
D16*
X127197500Y-95887500D03*
X129697500Y-95887500D03*
D15*
X140683000Y-96903500D03*
D16*
X138183000Y-96903500D03*
X135683000Y-96903500D03*
D15*
X123093500Y-90132500D03*
D16*
X123093500Y-87632500D03*
D20*
X126903500Y-82489000D03*
X124903500Y-82489000D03*
D11*
X130586500Y-83378000D03*
X121442500Y-83378000D03*
X121442500Y-68138000D03*
X130586500Y-68138000D03*
D29*
X125810000Y-71236000D03*
D30*
X125810000Y-77536000D03*
X128110000Y-77536000D03*
X123510000Y-77536000D03*
D14*
X140429000Y-77933000D03*
X140429000Y-79933000D03*
D28*
X127514500Y-68328500D03*
X124514500Y-68328500D03*
D13*
X138524000Y-78044000D03*
X138524000Y-79944000D03*
D14*
X142778500Y-77933000D03*
X142778500Y-79933000D03*
D20*
X126903500Y-80584000D03*
X124903500Y-80584000D03*
D14*
X145255000Y-77933000D03*
X145255000Y-79933000D03*
D19*
X130142000Y-65821500D03*
X131412000Y-65821500D03*
X132682000Y-65821500D03*
X133952000Y-65821500D03*
X133952000Y-60421500D03*
X132682000Y-60421500D03*
X131412000Y-60421500D03*
X130142000Y-60421500D03*
D10*
G36*
X132072500Y-62059500D02*
X132072500Y-64183500D01*
X130802500Y-63583500D01*
X130802500Y-62659500D01*
X132072500Y-62059500D01*
X132072500Y-62059500D01*
G37*
G36*
X133672500Y-62659500D02*
X133672500Y-63583500D01*
X132402500Y-64183500D01*
X132402500Y-62059500D01*
X133672500Y-62659500D01*
X133672500Y-62659500D01*
G37*
D15*
X123411000Y-53342500D03*
D16*
X125911000Y-53342500D03*
X128411000Y-53342500D03*
X130911000Y-53342500D03*
D18*
X131097000Y-58422500D03*
X132997000Y-58422500D03*
D14*
X149001500Y-75488000D03*
X149001500Y-73488000D03*
X150843000Y-75488000D03*
X150843000Y-73488000D03*
D26*
X139851500Y-75436000D03*
X140651500Y-75436000D03*
X141451500Y-75436000D03*
X142251500Y-75436000D03*
X143051500Y-75436000D03*
X143851500Y-75436000D03*
X144651500Y-75436000D03*
X145451500Y-75436000D03*
D27*
X146901500Y-73986000D03*
X146901500Y-73186000D03*
X146901500Y-72386000D03*
X146901500Y-71586000D03*
X146901500Y-70786000D03*
X146901500Y-69986000D03*
X146901500Y-69186000D03*
X146901500Y-68386000D03*
D26*
X145451500Y-66936000D03*
X144651500Y-66936000D03*
X143851500Y-66936000D03*
X143051500Y-66936000D03*
X142251500Y-66936000D03*
X141451500Y-66936000D03*
X140651500Y-66936000D03*
X139851500Y-66936000D03*
D27*
X138401500Y-68386000D03*
X138401500Y-69186000D03*
X138401500Y-69986000D03*
X138401500Y-70786000D03*
X138401500Y-71586000D03*
X138401500Y-72386000D03*
X138401500Y-73186000D03*
X138401500Y-73986000D03*
D20*
X140953000Y-53215500D03*
X142953000Y-53215500D03*
X140953000Y-55057000D03*
X142953000Y-55057000D03*
D18*
X148877000Y-77472500D03*
X150777000Y-77472500D03*
D24*
X141159000Y-60454500D03*
D25*
X141159000Y-57914500D03*
X143699000Y-60454500D03*
X143699000Y-57914500D03*
X146239000Y-60454500D03*
X146239000Y-57914500D03*
X148779000Y-60454500D03*
X148779000Y-57914500D03*
D13*
X150843000Y-70109000D03*
X150843000Y-72009000D03*
D14*
X90429000Y-77933000D03*
X90429000Y-79933000D03*
D20*
X90953000Y-55057000D03*
X92953000Y-55057000D03*
X90953000Y-53215500D03*
X92953000Y-53215500D03*
D14*
X92778500Y-77933000D03*
X92778500Y-79933000D03*
X95255000Y-77933000D03*
X95255000Y-79933000D03*
D20*
X105462500Y-90426500D03*
X103462500Y-90426500D03*
D14*
X92778500Y-83552500D03*
X92778500Y-81552500D03*
X107510500Y-75742000D03*
X107510500Y-73742000D03*
X99001500Y-75488000D03*
X99001500Y-73488000D03*
X100843000Y-75488000D03*
X100843000Y-73488000D03*
D20*
X76903500Y-80584000D03*
X74903500Y-80584000D03*
X76903500Y-82489000D03*
X74903500Y-82489000D03*
D10*
G36*
X111739500Y-83297000D02*
X111739500Y-81173000D01*
X113009500Y-81773000D01*
X113009500Y-82697000D01*
X111739500Y-83297000D01*
X111739500Y-83297000D01*
G37*
G36*
X110139500Y-82697000D02*
X110139500Y-81773000D01*
X111409500Y-81173000D01*
X111409500Y-83297000D01*
X110139500Y-82697000D01*
X110139500Y-82697000D01*
G37*
G36*
X111409500Y-84475000D02*
X111409500Y-86599000D01*
X110139500Y-85999000D01*
X110139500Y-85075000D01*
X111409500Y-84475000D01*
X111409500Y-84475000D01*
G37*
G36*
X113009500Y-85075000D02*
X113009500Y-85999000D01*
X111739500Y-86599000D01*
X111739500Y-84475000D01*
X113009500Y-85075000D01*
X113009500Y-85075000D01*
G37*
G36*
X82072500Y-62059500D02*
X82072500Y-64183500D01*
X80802500Y-63583500D01*
X80802500Y-62659500D01*
X82072500Y-62059500D01*
X82072500Y-62059500D01*
G37*
G36*
X83672500Y-62659500D02*
X83672500Y-63583500D01*
X82402500Y-64183500D01*
X82402500Y-62059500D01*
X83672500Y-62659500D01*
X83672500Y-62659500D01*
G37*
G36*
X108260000Y-62123000D02*
X108260000Y-64247000D01*
X106990000Y-63647000D01*
X106990000Y-62723000D01*
X108260000Y-62123000D01*
X108260000Y-62123000D01*
G37*
G36*
X109860000Y-62723000D02*
X109860000Y-63647000D01*
X108590000Y-64247000D01*
X108590000Y-62123000D01*
X109860000Y-62723000D01*
X109860000Y-62723000D01*
G37*
D18*
X106880500Y-90426500D03*
X108780500Y-90426500D03*
X112649000Y-88140500D03*
X110749000Y-88140500D03*
D13*
X95255000Y-83566000D03*
X95255000Y-81666000D03*
D18*
X103004500Y-83124000D03*
X104904500Y-83124000D03*
X104907000Y-81219000D03*
X103007000Y-81219000D03*
X81097000Y-58422500D03*
X82997000Y-58422500D03*
D13*
X107510500Y-79121000D03*
X107510500Y-77221000D03*
D18*
X98877000Y-77472500D03*
X100777000Y-77472500D03*
X78430000Y-80584000D03*
X80330000Y-80584000D03*
D13*
X88524000Y-78044000D03*
X88524000Y-79944000D03*
X102811500Y-73601500D03*
X102811500Y-75501500D03*
D18*
X107259000Y-81219000D03*
X109159000Y-81219000D03*
X107957500Y-58359000D03*
X109857500Y-58359000D03*
D13*
X100843000Y-70109000D03*
X100843000Y-72009000D03*
D17*
X110492680Y-78455430D03*
X110497320Y-69250570D03*
D26*
X89851500Y-75436000D03*
X90651500Y-75436000D03*
X91451500Y-75436000D03*
X92251500Y-75436000D03*
X93051500Y-75436000D03*
X93851500Y-75436000D03*
X94651500Y-75436000D03*
X95451500Y-75436000D03*
D27*
X96901500Y-73986000D03*
X96901500Y-73186000D03*
X96901500Y-72386000D03*
X96901500Y-71586000D03*
X96901500Y-70786000D03*
X96901500Y-69986000D03*
X96901500Y-69186000D03*
X96901500Y-68386000D03*
D26*
X95451500Y-66936000D03*
X94651500Y-66936000D03*
X93851500Y-66936000D03*
X93051500Y-66936000D03*
X92251500Y-66936000D03*
X91451500Y-66936000D03*
X90651500Y-66936000D03*
X89851500Y-66936000D03*
D27*
X88401500Y-68386000D03*
X88401500Y-69186000D03*
X88401500Y-69986000D03*
X88401500Y-70786000D03*
X88401500Y-71586000D03*
X88401500Y-72386000D03*
X88401500Y-73186000D03*
X88401500Y-73986000D03*
D21*
X103446500Y-84902000D03*
X103446500Y-86172000D03*
X103446500Y-87442000D03*
X103446500Y-88712000D03*
X108846500Y-88712000D03*
X108846500Y-87442000D03*
X108846500Y-86172000D03*
X108846500Y-84902000D03*
D19*
X80142000Y-65821500D03*
X81412000Y-65821500D03*
X82682000Y-65821500D03*
X83952000Y-65821500D03*
X83952000Y-60421500D03*
X82682000Y-60421500D03*
X81412000Y-60421500D03*
X80142000Y-60421500D03*
X106558000Y-65821500D03*
X107828000Y-65821500D03*
X109098000Y-65821500D03*
X110368000Y-65821500D03*
X110368000Y-60421500D03*
X109098000Y-60421500D03*
X107828000Y-60421500D03*
X106558000Y-60421500D03*
D29*
X75810000Y-71236000D03*
D30*
X75810000Y-77536000D03*
X78110000Y-77536000D03*
X73510000Y-77536000D03*
D22*
X103764000Y-53406000D03*
D23*
X103764000Y-55946000D03*
X103764000Y-58486000D03*
X103764000Y-61026000D03*
D13*
X104399000Y-63439000D03*
X104399000Y-65339000D03*
X102557500Y-63441500D03*
X102557500Y-65341500D03*
D28*
X77514500Y-68328500D03*
X74514500Y-68328500D03*
D11*
X114495500Y-96014500D03*
D12*
X111955500Y-96014500D03*
D11*
X117035500Y-96014500D03*
D20*
X109209000Y-83124000D03*
X107209000Y-83124000D03*
D15*
X117099000Y-68646000D03*
D16*
X117099000Y-71146000D03*
X117099000Y-73646000D03*
X117099000Y-76146000D03*
D15*
X116908500Y-82235000D03*
D16*
X116908500Y-84735000D03*
X116908500Y-87235000D03*
X116908500Y-89735000D03*
D15*
X73411000Y-53342500D03*
D16*
X75911000Y-53342500D03*
X78411000Y-53342500D03*
X80911000Y-53342500D03*
D15*
X108924000Y-53342500D03*
D16*
X111424000Y-53342500D03*
X113924000Y-53342500D03*
X116424000Y-53342500D03*
D15*
X96628500Y-95887500D03*
D16*
X99128500Y-95887500D03*
D15*
X73093500Y-90132500D03*
D16*
X73093500Y-87632500D03*
D15*
X90683000Y-96903500D03*
D16*
X88183000Y-96903500D03*
X85683000Y-96903500D03*
D15*
X74697500Y-95887500D03*
D16*
X77197500Y-95887500D03*
X79697500Y-95887500D03*
D11*
X80586500Y-83378000D03*
X71442500Y-83378000D03*
X71442500Y-68138000D03*
X80586500Y-68138000D03*
D24*
X91159000Y-60454500D03*
D25*
X91159000Y-57914500D03*
X93699000Y-60454500D03*
X93699000Y-57914500D03*
X96239000Y-60454500D03*
X96239000Y-57914500D03*
X98779000Y-60454500D03*
X98779000Y-57914500D03*
D31*
X101795500Y-131219000D03*
X109733000Y-141442500D03*
X102240000Y-141442500D03*
X89730500Y-131727000D03*
X90429000Y-126837500D03*
X152240000Y-141442500D03*
X159733000Y-141442500D03*
X151795500Y-131219000D03*
X139730500Y-131727000D03*
X140429000Y-126837500D03*
X151795500Y-81219000D03*
X159733000Y-91442500D03*
X152240000Y-91442500D03*
X139730500Y-81727000D03*
X140429000Y-76837500D03*
X102240000Y-91442500D03*
X109733000Y-91442500D03*
X101795500Y-81219000D03*
X89730500Y-81727000D03*
X90429000Y-76837500D03*
X106366186Y-126795798D03*
X83336543Y-125758000D03*
X76713000Y-125758000D03*
X96652000Y-127933000D03*
X93867833Y-124097020D03*
X156366186Y-126795798D03*
X126713000Y-125758000D03*
X133336543Y-125758000D03*
X146652000Y-127933000D03*
X143867833Y-124097020D03*
X156366186Y-76795798D03*
X143867833Y-74097020D03*
X133336543Y-75758000D03*
X126713000Y-75758000D03*
X146652000Y-77933000D03*
X106366186Y-76795798D03*
X83336543Y-75758000D03*
X93867833Y-74097020D03*
X76713000Y-75758000D03*
X96652000Y-77933000D03*
X91445000Y-133568500D03*
X141445000Y-133568500D03*
X141445000Y-83568500D03*
X91445000Y-83568500D03*
X108590000Y-122773500D03*
X94133643Y-121985969D03*
X144133643Y-121985969D03*
X158590000Y-122773500D03*
X158590000Y-72773500D03*
X144133643Y-71985969D03*
X94133643Y-71985969D03*
X108590000Y-72773500D03*
X80332500Y-129123500D03*
X130332500Y-129123500D03*
X130332500Y-79123500D03*
X80332500Y-79123500D03*
X87127000Y-129949000D03*
X137127000Y-129949000D03*
X137127000Y-79949000D03*
X87127000Y-79949000D03*
X102811500Y-127853500D03*
X152811500Y-127853500D03*
X152811500Y-77853500D03*
X102811500Y-77853500D03*
X165575000Y-128615500D03*
X115575000Y-128615500D03*
X165575000Y-78615500D03*
X115575000Y-78615500D03*
X83952000Y-123027500D03*
X92062951Y-122998449D03*
X133952000Y-123027500D03*
X142062951Y-122998449D03*
X142062951Y-72998449D03*
X133952000Y-73027500D03*
X92062951Y-72998449D03*
X83952000Y-73027500D03*
X106241542Y-120468328D03*
X95802133Y-121111384D03*
X145802133Y-121111384D03*
X156241542Y-120468328D03*
X156241542Y-70468328D03*
X145802133Y-71111384D03*
X106241542Y-70468328D03*
X95802133Y-71111384D03*
X95255000Y-118392000D03*
X145255000Y-118392000D03*
X145255000Y-68392000D03*
X95255000Y-68392000D03*
X93851500Y-115096500D03*
X87762000Y-115090000D03*
X137762000Y-115090000D03*
X143851500Y-115096500D03*
X137762000Y-65090000D03*
X143851500Y-65096500D03*
X87762000Y-65090000D03*
X93851500Y-65096500D03*
X97477500Y-114455000D03*
X93032500Y-114455000D03*
X143032500Y-114455000D03*
X147477500Y-114455000D03*
X143032500Y-64455000D03*
X147477500Y-64455000D03*
X93032500Y-64455000D03*
X97477500Y-64455000D03*
X81666000Y-120614500D03*
X89794000Y-120614500D03*
X131666000Y-120614500D03*
X139794000Y-120614500D03*
X139794000Y-70614500D03*
X131666000Y-70614500D03*
X81666000Y-70614500D03*
X89794000Y-70614500D03*
X102328429Y-119138287D03*
X93667500Y-118392000D03*
X143667500Y-118392000D03*
X152328429Y-119138287D03*
X143667500Y-68392000D03*
X152328429Y-69138287D03*
X102328429Y-69138287D03*
X93667500Y-68392000D03*
X105250557Y-119708581D03*
X94509290Y-119916000D03*
X144509290Y-119916000D03*
X155250557Y-119708581D03*
X144509290Y-69916000D03*
X155250557Y-69708581D03*
X105250557Y-69708581D03*
X94509290Y-69916000D03*
X98176000Y-113693000D03*
X90683000Y-113756500D03*
X140683000Y-113756500D03*
X148176000Y-113693000D03*
X140683000Y-63756500D03*
X148176000Y-63693000D03*
X90683000Y-63756500D03*
X98176000Y-63693000D03*
X97477500Y-113121500D03*
X89857500Y-113121500D03*
X139857500Y-113121500D03*
X147477500Y-113121500D03*
X139857500Y-63121500D03*
X147477500Y-63121500D03*
X89857500Y-63121500D03*
X97477500Y-63121500D03*
X104399000Y-121821000D03*
X98995000Y-122386000D03*
X148995000Y-122386000D03*
X154399000Y-121821000D03*
X154399000Y-71821000D03*
X148995000Y-72386000D03*
X104399000Y-71821000D03*
X98995000Y-72386000D03*
X103891000Y-121186000D03*
X98239500Y-121567000D03*
X148239500Y-121567000D03*
X153891000Y-121186000D03*
X153891000Y-71186000D03*
X148239500Y-71567000D03*
X103891000Y-71186000D03*
X98239500Y-71567000D03*
D32*
X140429000Y-127933000D02*
X140554000Y-127933000D01*
D33*
X141304000Y-127933000D02*
X140429000Y-127933000D01*
X141508500Y-127728500D02*
X141304000Y-127933000D01*
X141909998Y-127091500D02*
X141508500Y-127492998D01*
X141508500Y-127492998D02*
X141508500Y-127728500D01*
X143051500Y-126501000D02*
X142461000Y-127091500D01*
X143051500Y-125436000D02*
X143051500Y-126501000D01*
X142461000Y-127091500D02*
X141909998Y-127091500D01*
X93051500Y-125436000D02*
X93051500Y-126501000D01*
X93051500Y-126501000D02*
X92461000Y-127091500D01*
X91508500Y-127728500D02*
X91304000Y-127933000D01*
X91304000Y-127933000D02*
X90429000Y-127933000D01*
D32*
X90429000Y-127933000D02*
X90554000Y-127933000D01*
D33*
X91508500Y-127492998D02*
X91508500Y-127728500D01*
X91909998Y-127091500D02*
X91508500Y-127492998D01*
X92461000Y-127091500D02*
X91909998Y-127091500D01*
X141508500Y-77492998D02*
X141508500Y-77728500D01*
X143051500Y-75436000D02*
X143051500Y-76501000D01*
X143051500Y-76501000D02*
X142461000Y-77091500D01*
X142461000Y-77091500D02*
X141909998Y-77091500D01*
X141909998Y-77091500D02*
X141508500Y-77492998D01*
D32*
X140429000Y-77933000D02*
X140554000Y-77933000D01*
D33*
X141508500Y-77728500D02*
X141304000Y-77933000D01*
X141304000Y-77933000D02*
X140429000Y-77933000D01*
X93051500Y-75436000D02*
X93051500Y-76501000D01*
X93051500Y-76501000D02*
X92461000Y-77091500D01*
X92461000Y-77091500D02*
X91909998Y-77091500D01*
X91909998Y-77091500D02*
X91508500Y-77492998D01*
X91508500Y-77492998D02*
X91508500Y-77728500D01*
X91508500Y-77728500D02*
X91304000Y-77933000D01*
X91304000Y-77933000D02*
X90429000Y-77933000D01*
D32*
X90429000Y-77933000D02*
X90554000Y-77933000D01*
X160344500Y-139735000D02*
X159321500Y-138712000D01*
D33*
X159380500Y-140426500D02*
X159733000Y-140779000D01*
X159733000Y-140779000D02*
X159733000Y-141442500D01*
D32*
X166908500Y-139735000D02*
X160344500Y-139735000D01*
D33*
X153462500Y-140426500D02*
X152712500Y-140426500D01*
X152240000Y-140899000D02*
X152240000Y-141442500D01*
X153007000Y-131219000D02*
X152407000Y-131219000D01*
X152712500Y-140426500D02*
X152240000Y-140899000D01*
X152407000Y-131219000D02*
X151795500Y-131219000D01*
X157828000Y-138712000D02*
X158846500Y-138712000D01*
D32*
X159321500Y-138712000D02*
X158846500Y-138712000D01*
D33*
X157209000Y-138093000D02*
X157828000Y-138712000D01*
X158846500Y-140360500D02*
X158780500Y-140426500D01*
X158780500Y-140426500D02*
X159380500Y-140426500D01*
X157209000Y-133124000D02*
X157209000Y-138093000D01*
D32*
X123030000Y-118138000D02*
X123220500Y-118328500D01*
X121442500Y-118138000D02*
X123030000Y-118138000D01*
X121442500Y-119410792D02*
X121442500Y-118138000D01*
X123510000Y-127286000D02*
X121442500Y-125218500D01*
X121442500Y-125218500D02*
X121442500Y-119410792D01*
X123510000Y-127536000D02*
X123510000Y-127286000D01*
X123220500Y-118328500D02*
X124514500Y-118328500D01*
X124903500Y-129459000D02*
X123284000Y-127839500D01*
X124903500Y-130584000D02*
X124903500Y-129459000D01*
X124903500Y-132489000D02*
X124903500Y-130584000D01*
X140780499Y-126486001D02*
X140429000Y-126837500D01*
X142111501Y-126486001D02*
X140780499Y-126486001D01*
X145255000Y-131666000D02*
X145255000Y-129933000D01*
X142778500Y-129933000D02*
X142778500Y-131552500D01*
X140429000Y-129933000D02*
X142778500Y-129933000D01*
X140429000Y-131028500D02*
X139730500Y-131727000D01*
X140429000Y-129933000D02*
X140429000Y-131028500D01*
D33*
X117099000Y-123646000D02*
X112703570Y-119250570D01*
D32*
X108907320Y-120840570D02*
X109197320Y-120840570D01*
X109197320Y-120840570D02*
X110497320Y-119540570D01*
X110497320Y-119540570D02*
X110497320Y-119250570D01*
X130911000Y-103342500D02*
X133952000Y-106383500D01*
X133952000Y-106383500D02*
X133952000Y-110421500D01*
D33*
X112703570Y-119250570D02*
X110497320Y-119250570D01*
D32*
X115674001Y-104092499D02*
X116424000Y-103342500D01*
X110368000Y-109946500D02*
X115674001Y-104640499D01*
X115674001Y-104640499D02*
X115674001Y-104092499D01*
X142953000Y-106946000D02*
X142953000Y-105057000D01*
D33*
X142953000Y-105182000D02*
X142969000Y-105198000D01*
D32*
X142953000Y-103215500D02*
X142953000Y-105057000D01*
D33*
X142953000Y-105057000D02*
X142953000Y-105182000D01*
D32*
X146901500Y-123186000D02*
X143572500Y-123186000D01*
X143572500Y-123186000D02*
X142251500Y-124507000D01*
X142778500Y-129933000D02*
X145255000Y-129933000D01*
X142251500Y-124507000D02*
X142251500Y-125436000D01*
X142251500Y-126346002D02*
X142111501Y-126486001D01*
X142251500Y-125436000D02*
X142251500Y-126346002D01*
X149001500Y-123488000D02*
X148699500Y-123186000D01*
X148699500Y-123186000D02*
X146901500Y-123186000D01*
X143699000Y-107914500D02*
X143699000Y-107692000D01*
X143699000Y-107692000D02*
X142953000Y-106946000D01*
X157510500Y-123742000D02*
X157510500Y-122237390D01*
D33*
X167099000Y-123646000D02*
X162703570Y-119250570D01*
X162703570Y-119250570D02*
X160497320Y-119250570D01*
D32*
X159197320Y-120840570D02*
X160497320Y-119540570D01*
X158907320Y-120840570D02*
X159197320Y-120840570D01*
X157510500Y-122237390D02*
X158907320Y-120840570D01*
X150843000Y-122009000D02*
X150843000Y-123488000D01*
X150843000Y-123488000D02*
X149001500Y-123488000D01*
X160368000Y-110421500D02*
X160368000Y-109946500D01*
X160497320Y-119540570D02*
X160497320Y-119250570D01*
X165674001Y-104640499D02*
X165674001Y-104092499D01*
X160368000Y-109946500D02*
X165674001Y-104640499D01*
X165674001Y-104092499D02*
X166424000Y-103342500D01*
D33*
X107209000Y-133124000D02*
X107209000Y-138093000D01*
X107209000Y-138093000D02*
X107828000Y-138712000D01*
D32*
X116908500Y-139735000D02*
X110344500Y-139735000D01*
D33*
X107828000Y-138712000D02*
X108846500Y-138712000D01*
X108846500Y-140360500D02*
X108780500Y-140426500D01*
D32*
X110344500Y-139735000D02*
X109321500Y-138712000D01*
X109321500Y-138712000D02*
X108846500Y-138712000D01*
D33*
X109733000Y-140779000D02*
X109733000Y-141442500D01*
X108780500Y-140426500D02*
X109380500Y-140426500D01*
X109380500Y-140426500D02*
X109733000Y-140779000D01*
X103007000Y-131219000D02*
X102407000Y-131219000D01*
X102407000Y-131219000D02*
X101795500Y-131219000D01*
X102712500Y-140426500D02*
X102240000Y-140899000D01*
X103462500Y-140426500D02*
X102712500Y-140426500D01*
X102240000Y-140899000D02*
X102240000Y-141442500D01*
D32*
X95255000Y-131666000D02*
X95255000Y-129933000D01*
X90429000Y-131028500D02*
X89730500Y-131727000D01*
X92778500Y-129933000D02*
X92778500Y-131552500D01*
X90429000Y-129933000D02*
X92778500Y-129933000D01*
X90429000Y-129933000D02*
X90429000Y-131028500D01*
X74903500Y-130584000D02*
X74903500Y-129459000D01*
X74903500Y-132489000D02*
X74903500Y-130584000D01*
X96901500Y-123186000D02*
X93572500Y-123186000D01*
X92778500Y-129933000D02*
X95255000Y-129933000D01*
X92251500Y-125436000D02*
X92251500Y-126346002D01*
X92111501Y-126486001D02*
X90780499Y-126486001D01*
X92251500Y-126346002D02*
X92111501Y-126486001D01*
X90780499Y-126486001D02*
X90429000Y-126837500D01*
X92251500Y-124507000D02*
X92251500Y-125436000D01*
X93572500Y-123186000D02*
X92251500Y-124507000D01*
X100843000Y-122009000D02*
X100843000Y-123488000D01*
X100843000Y-123488000D02*
X99001500Y-123488000D01*
X98699500Y-123186000D02*
X96901500Y-123186000D01*
X99001500Y-123488000D02*
X98699500Y-123186000D01*
X73220500Y-118328500D02*
X74514500Y-118328500D01*
X71442500Y-118138000D02*
X73030000Y-118138000D01*
X73030000Y-118138000D02*
X73220500Y-118328500D01*
X71442500Y-119410792D02*
X71442500Y-118138000D01*
X73510000Y-127286000D02*
X71442500Y-125218500D01*
X74903500Y-129459000D02*
X73284000Y-127839500D01*
X73510000Y-127536000D02*
X73510000Y-127286000D01*
X71442500Y-125218500D02*
X71442500Y-119410792D01*
X107510500Y-123742000D02*
X107510500Y-122237390D01*
X107510500Y-122237390D02*
X108907320Y-120840570D01*
X83952000Y-106383500D02*
X83952000Y-110421500D01*
X80911000Y-103342500D02*
X83952000Y-106383500D01*
X110368000Y-110421500D02*
X110368000Y-109946500D01*
X92953000Y-103215500D02*
X92953000Y-105057000D01*
D33*
X92953000Y-105182000D02*
X92969000Y-105198000D01*
X92953000Y-105057000D02*
X92953000Y-105182000D01*
D32*
X93699000Y-107914500D02*
X93699000Y-107692000D01*
X93699000Y-107692000D02*
X92953000Y-106946000D01*
X92953000Y-106946000D02*
X92953000Y-105057000D01*
X145255000Y-81666000D02*
X145255000Y-79933000D01*
X142778500Y-79933000D02*
X145255000Y-79933000D01*
X142251500Y-75436000D02*
X142251500Y-76346002D01*
X142251500Y-76346002D02*
X142111501Y-76486001D01*
X140780499Y-76486001D02*
X140429000Y-76837500D01*
X142111501Y-76486001D02*
X140780499Y-76486001D01*
X142778500Y-79933000D02*
X142778500Y-81552500D01*
X140429000Y-79933000D02*
X142778500Y-79933000D01*
X140429000Y-81028500D02*
X139730500Y-81727000D01*
X140429000Y-79933000D02*
X140429000Y-81028500D01*
X123510000Y-77536000D02*
X123510000Y-77286000D01*
X124903500Y-82489000D02*
X124903500Y-80584000D01*
X124903500Y-80584000D02*
X124903500Y-79459000D01*
X133952000Y-56383500D02*
X133952000Y-60421500D01*
X130911000Y-53342500D02*
X133952000Y-56383500D01*
X142251500Y-74507000D02*
X142251500Y-75436000D01*
X143572500Y-73186000D02*
X142251500Y-74507000D01*
X146901500Y-73186000D02*
X143572500Y-73186000D01*
X149001500Y-73488000D02*
X148699500Y-73186000D01*
X148699500Y-73186000D02*
X146901500Y-73186000D01*
X143699000Y-57914500D02*
X143699000Y-57692000D01*
X143699000Y-57692000D02*
X142953000Y-56946000D01*
X142953000Y-53215500D02*
X142953000Y-55057000D01*
D33*
X142953000Y-55057000D02*
X142953000Y-55182000D01*
X142953000Y-55182000D02*
X142969000Y-55198000D01*
D32*
X142953000Y-56946000D02*
X142953000Y-55057000D01*
D33*
X167099000Y-73646000D02*
X162703570Y-69250570D01*
X158780500Y-90426500D02*
X159380500Y-90426500D01*
D32*
X166908500Y-89735000D02*
X160344500Y-89735000D01*
X159321500Y-88712000D02*
X158846500Y-88712000D01*
D33*
X158846500Y-90360500D02*
X158780500Y-90426500D01*
X159380500Y-90426500D02*
X159733000Y-90779000D01*
X157828000Y-88712000D02*
X158846500Y-88712000D01*
D32*
X160344500Y-89735000D02*
X159321500Y-88712000D01*
D33*
X159733000Y-90779000D02*
X159733000Y-91442500D01*
X152240000Y-90899000D02*
X152240000Y-91442500D01*
X152712500Y-90426500D02*
X152240000Y-90899000D01*
X153462500Y-90426500D02*
X152712500Y-90426500D01*
X157209000Y-88093000D02*
X157828000Y-88712000D01*
D32*
X121442500Y-75218500D02*
X121442500Y-69410792D01*
X121442500Y-69410792D02*
X121442500Y-68138000D01*
X124903500Y-79459000D02*
X123284000Y-77839500D01*
X121442500Y-68138000D02*
X123030000Y-68138000D01*
X123220500Y-68328500D02*
X124514500Y-68328500D01*
X123030000Y-68138000D02*
X123220500Y-68328500D01*
X123510000Y-77286000D02*
X121442500Y-75218500D01*
D33*
X157209000Y-83124000D02*
X157209000Y-88093000D01*
D32*
X157510500Y-72237390D02*
X158907320Y-70840570D01*
D33*
X162703570Y-69250570D02*
X160497320Y-69250570D01*
D32*
X160497320Y-69540570D02*
X160497320Y-69250570D01*
X159197320Y-70840570D02*
X160497320Y-69540570D01*
X158907320Y-70840570D02*
X159197320Y-70840570D01*
X157510500Y-73742000D02*
X157510500Y-72237390D01*
D33*
X152407000Y-81219000D02*
X151795500Y-81219000D01*
X153007000Y-81219000D02*
X152407000Y-81219000D01*
D32*
X150843000Y-73488000D02*
X149001500Y-73488000D01*
X150843000Y-72009000D02*
X150843000Y-73488000D01*
X165674001Y-54640499D02*
X165674001Y-54092499D01*
X160368000Y-59946500D02*
X165674001Y-54640499D01*
X165674001Y-54092499D02*
X166424000Y-53342500D01*
X160368000Y-60421500D02*
X160368000Y-59946500D01*
D33*
X107828000Y-88712000D02*
X108846500Y-88712000D01*
X107209000Y-88093000D02*
X107828000Y-88712000D01*
X107209000Y-83124000D02*
X107209000Y-88093000D01*
X102240000Y-90899000D02*
X102240000Y-91442500D01*
X103462500Y-90426500D02*
X102712500Y-90426500D01*
X102712500Y-90426500D02*
X102240000Y-90899000D01*
X109733000Y-90779000D02*
X109733000Y-91442500D01*
X108780500Y-90426500D02*
X109380500Y-90426500D01*
X109380500Y-90426500D02*
X109733000Y-90779000D01*
X108846500Y-90360500D02*
X108780500Y-90426500D01*
D32*
X116908500Y-89735000D02*
X110344500Y-89735000D01*
X109321500Y-88712000D02*
X108846500Y-88712000D01*
X110344500Y-89735000D02*
X109321500Y-88712000D01*
X73030000Y-68138000D02*
X73220500Y-68328500D01*
X73220500Y-68328500D02*
X74514500Y-68328500D01*
X71442500Y-68138000D02*
X73030000Y-68138000D01*
X107510500Y-72237390D02*
X108907320Y-70840570D01*
X110497320Y-69540570D02*
X110497320Y-69250570D01*
X109197320Y-70840570D02*
X110497320Y-69540570D01*
X108907320Y-70840570D02*
X109197320Y-70840570D01*
X107510500Y-73742000D02*
X107510500Y-72237390D01*
X93572500Y-73186000D02*
X92251500Y-74507000D01*
X92251500Y-74507000D02*
X92251500Y-75436000D01*
X96901500Y-73186000D02*
X93572500Y-73186000D01*
D33*
X102407000Y-81219000D02*
X101795500Y-81219000D01*
X103007000Y-81219000D02*
X102407000Y-81219000D01*
D32*
X90429000Y-81028500D02*
X89730500Y-81727000D01*
X90429000Y-79933000D02*
X90429000Y-81028500D01*
X90780499Y-76486001D02*
X90429000Y-76837500D01*
X92251500Y-75436000D02*
X92251500Y-76346002D01*
X92251500Y-76346002D02*
X92111501Y-76486001D01*
X92111501Y-76486001D02*
X90780499Y-76486001D01*
X73510000Y-77536000D02*
X73510000Y-77286000D01*
X73510000Y-77286000D02*
X71442500Y-75218500D01*
X71442500Y-75218500D02*
X71442500Y-69410792D01*
X71442500Y-69410792D02*
X71442500Y-68138000D01*
X93699000Y-57692000D02*
X92953000Y-56946000D01*
X92953000Y-56946000D02*
X92953000Y-55057000D01*
X93699000Y-57914500D02*
X93699000Y-57692000D01*
X92953000Y-53215500D02*
X92953000Y-55057000D01*
D33*
X117099000Y-73646000D02*
X112703570Y-69250570D01*
X112703570Y-69250570D02*
X110497320Y-69250570D01*
X92953000Y-55057000D02*
X92953000Y-55182000D01*
X92953000Y-55182000D02*
X92969000Y-55198000D01*
D32*
X110368000Y-60421500D02*
X110368000Y-59946500D01*
X110368000Y-59946500D02*
X115674001Y-54640499D01*
X115674001Y-54092499D02*
X116424000Y-53342500D01*
X115674001Y-54640499D02*
X115674001Y-54092499D01*
X80911000Y-53342500D02*
X83952000Y-56383500D01*
X83952000Y-56383500D02*
X83952000Y-60421500D01*
X100843000Y-72009000D02*
X100843000Y-73488000D01*
X99001500Y-73488000D02*
X98699500Y-73186000D01*
X98699500Y-73186000D02*
X96901500Y-73186000D01*
X100843000Y-73488000D02*
X99001500Y-73488000D01*
X95255000Y-81666000D02*
X95255000Y-79933000D01*
X92778500Y-79933000D02*
X92778500Y-81552500D01*
X92778500Y-79933000D02*
X95255000Y-79933000D01*
X90429000Y-79933000D02*
X92778500Y-79933000D01*
X74903500Y-80584000D02*
X74903500Y-79459000D01*
X74903500Y-79459000D02*
X73284000Y-77839500D01*
X74903500Y-82489000D02*
X74903500Y-80584000D01*
D33*
X133647200Y-141776933D02*
X135107300Y-143237033D01*
X142978033Y-143237033D02*
X145628500Y-145887500D01*
X135107300Y-143237033D02*
X142978033Y-143237033D01*
X145628500Y-145887500D02*
X146628500Y-145887500D01*
X133411530Y-141541263D02*
X133647200Y-141776933D01*
X133411529Y-141541262D02*
X133647200Y-141776933D01*
X133411530Y-133791470D02*
X133411530Y-141541263D01*
D32*
X128514500Y-123956500D02*
X128514500Y-118606000D01*
X128237000Y-118328500D02*
X127514500Y-118328500D01*
X128514500Y-118606000D02*
X128237000Y-118328500D01*
X125810000Y-127536000D02*
X125810000Y-126036000D01*
X126713000Y-125758000D02*
X128514500Y-123956500D01*
X125810000Y-126036000D02*
X126088000Y-125758000D01*
X126088000Y-125758000D02*
X126713000Y-125758000D01*
X125810000Y-129365500D02*
X125810000Y-127536000D01*
X126903500Y-130584000D02*
X126903500Y-130459000D01*
X126903500Y-130584000D02*
X128430000Y-130584000D01*
X126903500Y-132489000D02*
X126903500Y-130584000D01*
X126903500Y-130459000D02*
X125810000Y-129365500D01*
X133336543Y-125758000D02*
X137127000Y-121967543D01*
X137127000Y-121967543D02*
X137127000Y-117950498D01*
X137127000Y-117950498D02*
X138780998Y-116296500D01*
X115849000Y-118646000D02*
X117099000Y-118646000D01*
X109417888Y-117630000D02*
X114833000Y-117630000D01*
X114833000Y-117630000D02*
X115849000Y-118646000D01*
X139795400Y-110454500D02*
X141159000Y-110454500D01*
X138780998Y-111468902D02*
X139795400Y-110454500D01*
X138780998Y-116296500D02*
X138780998Y-111468902D01*
D33*
X133336543Y-128190543D02*
X133418600Y-128272600D01*
X133336543Y-125758000D02*
X133336543Y-128190543D01*
X133418600Y-128272600D02*
X133418600Y-133124001D01*
X133411533Y-133791467D02*
X133411530Y-133791470D01*
X133411533Y-133131068D02*
X133411533Y-133791467D01*
X133418600Y-133124001D02*
X133411533Y-133131068D01*
D32*
X140953000Y-106343000D02*
X140953000Y-105057000D01*
X141159000Y-107914500D02*
X141159000Y-106549000D01*
D33*
X140953000Y-107708500D02*
X141159000Y-107914500D01*
D32*
X141159000Y-106549000D02*
X140953000Y-106343000D01*
X153764000Y-102056000D02*
X153764000Y-103406000D01*
D33*
X154864000Y-103406000D02*
X153764000Y-103406000D01*
D32*
X153590000Y-101882000D02*
X153764000Y-102056000D01*
D33*
X154716500Y-107216000D02*
X155478500Y-106454000D01*
X155478500Y-106454000D02*
X155478500Y-104020500D01*
D32*
X140953000Y-103215500D02*
X140953000Y-105057000D01*
X140953000Y-103215500D02*
X140953000Y-102596500D01*
X140953000Y-102596500D02*
X141667500Y-101882000D01*
D33*
X155478500Y-104020500D02*
X154864000Y-103406000D01*
D32*
X141667500Y-101882000D02*
X153590000Y-101882000D01*
X143851500Y-125436000D02*
X143851500Y-124113353D01*
X144651500Y-125436000D02*
X143851500Y-125436000D01*
X143851500Y-124113353D02*
X143867833Y-124097020D01*
X142778500Y-127933000D02*
X145255000Y-127933000D01*
X145255000Y-127933000D02*
X144651500Y-127329500D01*
X147477500Y-127472500D02*
X147017000Y-127933000D01*
X147017000Y-127933000D02*
X146652000Y-127933000D01*
X144651500Y-127329500D02*
X144651500Y-125436000D01*
X146652000Y-127933000D02*
X145255000Y-127933000D01*
X141159000Y-110454500D02*
X141159000Y-107914500D01*
D33*
X152113000Y-107851000D02*
X152748000Y-107216000D01*
X152748000Y-107216000D02*
X154716500Y-107216000D01*
X152113000Y-112397000D02*
X152113000Y-107851000D01*
X152557500Y-113441500D02*
X152557500Y-112841500D01*
X152557500Y-112841500D02*
X152113000Y-112397000D01*
X154399000Y-113439000D02*
X152560000Y-113439000D01*
X152560000Y-113439000D02*
X152557500Y-113441500D01*
D32*
X156360500Y-128271000D02*
X157210500Y-129121000D01*
X157210500Y-129121000D02*
X157510500Y-129121000D01*
X156991543Y-120828329D02*
X156991543Y-120056345D01*
X156366186Y-121453686D02*
X156991543Y-120828329D01*
X156366186Y-128265314D02*
X156366186Y-126795798D01*
X156360500Y-128271000D02*
X156366186Y-128265314D01*
X148877000Y-127472500D02*
X147477500Y-127472500D01*
X156366186Y-126795798D02*
X156366186Y-121453686D01*
X156991543Y-120056345D02*
X159417888Y-117630000D01*
X165849000Y-118646000D02*
X167099000Y-118646000D01*
X164833000Y-117630000D02*
X165849000Y-118646000D01*
X159417888Y-117630000D02*
X164833000Y-117630000D01*
D33*
X83411530Y-141541263D02*
X83647200Y-141776933D01*
X83411529Y-141541262D02*
X83647200Y-141776933D01*
X83647200Y-141776933D02*
X85107300Y-143237033D01*
X83411530Y-133791470D02*
X83411530Y-141541263D01*
X83411533Y-133791467D02*
X83411530Y-133791470D01*
X85107300Y-143237033D02*
X92978033Y-143237033D01*
X83411533Y-133131068D02*
X83411533Y-133791467D01*
X83418600Y-133124001D02*
X83411533Y-133131068D01*
X95628500Y-145887500D02*
X96628500Y-145887500D01*
X83418600Y-128272600D02*
X83418600Y-133124001D01*
D32*
X106360500Y-128271000D02*
X106366186Y-128265314D01*
X106360500Y-128271000D02*
X107210500Y-129121000D01*
X107210500Y-129121000D02*
X107510500Y-129121000D01*
X106366186Y-128265314D02*
X106366186Y-126795798D01*
X76903500Y-132489000D02*
X76903500Y-130584000D01*
X76903500Y-130584000D02*
X78430000Y-130584000D01*
X76903500Y-130584000D02*
X76903500Y-130459000D01*
X76903500Y-130459000D02*
X75810000Y-129365500D01*
D33*
X92978033Y-143237033D02*
X95628500Y-145887500D01*
D32*
X93851500Y-124113353D02*
X93867833Y-124097020D01*
X94651500Y-125436000D02*
X93851500Y-125436000D01*
X94651500Y-127329500D02*
X94651500Y-125436000D01*
X97017000Y-127933000D02*
X96652000Y-127933000D01*
X97477500Y-127472500D02*
X97017000Y-127933000D01*
X96652000Y-127933000D02*
X95255000Y-127933000D01*
X95255000Y-127933000D02*
X94651500Y-127329500D01*
X92778500Y-127933000D02*
X95255000Y-127933000D01*
X93851500Y-125436000D02*
X93851500Y-124113353D01*
X98877000Y-127472500D02*
X97477500Y-127472500D01*
X87127000Y-121967543D02*
X87127000Y-117950498D01*
X87127000Y-117950498D02*
X88780998Y-116296500D01*
X83336543Y-125758000D02*
X87127000Y-121967543D01*
D33*
X83336543Y-128190543D02*
X83418600Y-128272600D01*
X83336543Y-125758000D02*
X83336543Y-128190543D01*
D32*
X75810000Y-129365500D02*
X75810000Y-127536000D01*
X75810000Y-127536000D02*
X75810000Y-126036000D01*
X76088000Y-125758000D02*
X76713000Y-125758000D01*
X75810000Y-126036000D02*
X76088000Y-125758000D01*
X78237000Y-118328500D02*
X77514500Y-118328500D01*
X78514500Y-123956500D02*
X78514500Y-118606000D01*
X78514500Y-118606000D02*
X78237000Y-118328500D01*
X76713000Y-125758000D02*
X78514500Y-123956500D01*
X106366186Y-121453686D02*
X106991543Y-120828329D01*
X106991543Y-120828329D02*
X106991543Y-120056345D01*
X106366186Y-126795798D02*
X106366186Y-121453686D01*
X106991543Y-120056345D02*
X109417888Y-117630000D01*
X88780998Y-116296500D02*
X88780998Y-111468902D01*
X89795400Y-110454500D02*
X91159000Y-110454500D01*
X88780998Y-111468902D02*
X89795400Y-110454500D01*
X103764000Y-102056000D02*
X103764000Y-103406000D01*
D33*
X105478500Y-104020500D02*
X104864000Y-103406000D01*
X104864000Y-103406000D02*
X103764000Y-103406000D01*
X104716500Y-107216000D02*
X105478500Y-106454000D01*
X105478500Y-106454000D02*
X105478500Y-104020500D01*
D32*
X91159000Y-110454500D02*
X91159000Y-107914500D01*
D33*
X104399000Y-113439000D02*
X102560000Y-113439000D01*
X102113000Y-107851000D02*
X102748000Y-107216000D01*
X102748000Y-107216000D02*
X104716500Y-107216000D01*
X102113000Y-112397000D02*
X102113000Y-107851000D01*
X102560000Y-113439000D02*
X102557500Y-113441500D01*
X102557500Y-112841500D02*
X102113000Y-112397000D01*
X102557500Y-113441500D02*
X102557500Y-112841500D01*
X90953000Y-107708500D02*
X91159000Y-107914500D01*
D32*
X90953000Y-106343000D02*
X90953000Y-105057000D01*
X91159000Y-107914500D02*
X91159000Y-106549000D01*
X91159000Y-106549000D02*
X90953000Y-106343000D01*
X103590000Y-101882000D02*
X103764000Y-102056000D01*
X91667500Y-101882000D02*
X103590000Y-101882000D01*
X90953000Y-102596500D02*
X91667500Y-101882000D01*
X90953000Y-103215500D02*
X90953000Y-102596500D01*
X90953000Y-103215500D02*
X90953000Y-105057000D01*
X147477500Y-77472500D02*
X147017000Y-77933000D01*
X146652000Y-77933000D02*
X145255000Y-77933000D01*
X148877000Y-77472500D02*
X147477500Y-77472500D01*
X147017000Y-77933000D02*
X146652000Y-77933000D01*
X142778500Y-77933000D02*
X145255000Y-77933000D01*
X144651500Y-75436000D02*
X143851500Y-75436000D01*
X144651500Y-77329500D02*
X144651500Y-75436000D01*
X145255000Y-77933000D02*
X144651500Y-77329500D01*
X133336543Y-75758000D02*
X137127000Y-71967543D01*
D33*
X133336543Y-78190543D02*
X133418600Y-78272600D01*
X133336543Y-75758000D02*
X133336543Y-78190543D01*
D32*
X126088000Y-75758000D02*
X126713000Y-75758000D01*
X125810000Y-76036000D02*
X126088000Y-75758000D01*
X125810000Y-77536000D02*
X125810000Y-76036000D01*
X125810000Y-79365500D02*
X125810000Y-77536000D01*
X128514500Y-73956500D02*
X128514500Y-68606000D01*
X126713000Y-75758000D02*
X128514500Y-73956500D01*
X128237000Y-68328500D02*
X127514500Y-68328500D01*
X126903500Y-80459000D02*
X125810000Y-79365500D01*
X126903500Y-80584000D02*
X126903500Y-80459000D01*
X126903500Y-80584000D02*
X128430000Y-80584000D01*
X126903500Y-82489000D02*
X126903500Y-80584000D01*
X137127000Y-71967543D02*
X137127000Y-67950498D01*
X128514500Y-68606000D02*
X128237000Y-68328500D01*
X140953000Y-52596500D02*
X141667500Y-51882000D01*
X140953000Y-53215500D02*
X140953000Y-52596500D01*
X137127000Y-67950498D02*
X138780998Y-66296500D01*
X143851500Y-75436000D02*
X143851500Y-74113353D01*
X143851500Y-74113353D02*
X143867833Y-74097020D01*
D33*
X140953000Y-57708500D02*
X141159000Y-57914500D01*
D32*
X140953000Y-56343000D02*
X140953000Y-55057000D01*
X141159000Y-57914500D02*
X141159000Y-56549000D01*
X141159000Y-56549000D02*
X140953000Y-56343000D01*
X140953000Y-53215500D02*
X140953000Y-55057000D01*
X138780998Y-66296500D02*
X138780998Y-61468902D01*
X138780998Y-61468902D02*
X139795400Y-60454500D01*
X141159000Y-60454500D02*
X141159000Y-57914500D01*
X139795400Y-60454500D02*
X141159000Y-60454500D01*
D33*
X133411533Y-83791467D02*
X133411530Y-83791470D01*
X133411530Y-83791470D02*
X133411530Y-91541263D01*
X133411530Y-91541263D02*
X133647200Y-91776933D01*
X133411529Y-91541262D02*
X133647200Y-91776933D01*
X133647200Y-91776933D02*
X135107300Y-93237033D01*
D32*
X165849000Y-68646000D02*
X167099000Y-68646000D01*
D33*
X133411533Y-83131068D02*
X133411533Y-83791467D01*
X133418600Y-78272600D02*
X133418600Y-83124001D01*
X133418600Y-83124001D02*
X133411533Y-83131068D01*
X145628500Y-95887500D02*
X146628500Y-95887500D01*
X135107300Y-93237033D02*
X142978033Y-93237033D01*
X142978033Y-93237033D02*
X145628500Y-95887500D01*
D32*
X156366186Y-71453686D02*
X156991543Y-70828329D01*
X156991543Y-70828329D02*
X156991543Y-70056345D01*
X156991543Y-70056345D02*
X159417888Y-67630000D01*
X159417888Y-67630000D02*
X164833000Y-67630000D01*
X164833000Y-67630000D02*
X165849000Y-68646000D01*
X156366186Y-78265314D02*
X156366186Y-76795798D01*
X156360500Y-78271000D02*
X156366186Y-78265314D01*
X156360500Y-78271000D02*
X157210500Y-79121000D01*
X157210500Y-79121000D02*
X157510500Y-79121000D01*
X156366186Y-76795798D02*
X156366186Y-71453686D01*
X153590000Y-51882000D02*
X153764000Y-52056000D01*
X141667500Y-51882000D02*
X153590000Y-51882000D01*
D33*
X154399000Y-63439000D02*
X152560000Y-63439000D01*
X152560000Y-63439000D02*
X152557500Y-63441500D01*
X152748000Y-57216000D02*
X154716500Y-57216000D01*
X155478500Y-56454000D02*
X155478500Y-54020500D01*
X152113000Y-57851000D02*
X152748000Y-57216000D01*
X154864000Y-53406000D02*
X153764000Y-53406000D01*
X155478500Y-54020500D02*
X154864000Y-53406000D01*
D32*
X153764000Y-52056000D02*
X153764000Y-53406000D01*
D33*
X152557500Y-63441500D02*
X152557500Y-62841500D01*
X154716500Y-57216000D02*
X155478500Y-56454000D01*
X152113000Y-62397000D02*
X152113000Y-57851000D01*
X152557500Y-62841500D02*
X152113000Y-62397000D01*
X83411529Y-91541262D02*
X83647200Y-91776933D01*
X83647200Y-91776933D02*
X85107300Y-93237033D01*
X83336543Y-78190543D02*
X83418600Y-78272600D01*
X83336543Y-75758000D02*
X83336543Y-78190543D01*
X83418600Y-78272600D02*
X83418600Y-83124001D01*
X83411533Y-83791467D02*
X83411530Y-83791470D01*
X83411530Y-91541263D02*
X83647200Y-91776933D01*
X83418600Y-83124001D02*
X83411533Y-83131068D01*
X83411533Y-83131068D02*
X83411533Y-83791467D01*
X83411530Y-83791470D02*
X83411530Y-91541263D01*
X92978033Y-93237033D02*
X95628500Y-95887500D01*
X95628500Y-95887500D02*
X96628500Y-95887500D01*
X85107300Y-93237033D02*
X92978033Y-93237033D01*
D32*
X76713000Y-75758000D02*
X78514500Y-73956500D01*
X78514500Y-73956500D02*
X78514500Y-68606000D01*
X78514500Y-68606000D02*
X78237000Y-68328500D01*
X78237000Y-68328500D02*
X77514500Y-68328500D01*
D33*
X102557500Y-63441500D02*
X102557500Y-62841500D01*
X102557500Y-62841500D02*
X102113000Y-62397000D01*
X102113000Y-62397000D02*
X102113000Y-57851000D01*
X105478500Y-54020500D02*
X104864000Y-53406000D01*
X102113000Y-57851000D02*
X102748000Y-57216000D01*
X105478500Y-56454000D02*
X105478500Y-54020500D01*
X102748000Y-57216000D02*
X104716500Y-57216000D01*
X104716500Y-57216000D02*
X105478500Y-56454000D01*
X104864000Y-53406000D02*
X103764000Y-53406000D01*
X104399000Y-63439000D02*
X102560000Y-63439000D01*
X102560000Y-63439000D02*
X102557500Y-63441500D01*
D32*
X90953000Y-53215500D02*
X90953000Y-52596500D01*
X90953000Y-52596500D02*
X91667500Y-51882000D01*
X91667500Y-51882000D02*
X103590000Y-51882000D01*
X103590000Y-51882000D02*
X103764000Y-52056000D01*
X103764000Y-52056000D02*
X103764000Y-53406000D01*
X114833000Y-67630000D02*
X115849000Y-68646000D01*
X106991543Y-70828329D02*
X106991543Y-70056345D01*
X115849000Y-68646000D02*
X117099000Y-68646000D01*
X106366186Y-71453686D02*
X106991543Y-70828329D01*
X109417888Y-67630000D02*
X114833000Y-67630000D01*
X106366186Y-76795798D02*
X106366186Y-71453686D01*
X106991543Y-70056345D02*
X109417888Y-67630000D01*
X106360500Y-78271000D02*
X106366186Y-78265314D01*
X106366186Y-78265314D02*
X106366186Y-76795798D01*
X91159000Y-56549000D02*
X90953000Y-56343000D01*
X90953000Y-56343000D02*
X90953000Y-55057000D01*
X91159000Y-57914500D02*
X91159000Y-56549000D01*
X90953000Y-53215500D02*
X90953000Y-55057000D01*
X91159000Y-60454500D02*
X91159000Y-57914500D01*
X88780998Y-66296500D02*
X88780998Y-61468902D01*
X88780998Y-61468902D02*
X89795400Y-60454500D01*
X89795400Y-60454500D02*
X91159000Y-60454500D01*
X87127000Y-71967543D02*
X87127000Y-67950498D01*
X87127000Y-67950498D02*
X88780998Y-66296500D01*
X83336543Y-75758000D02*
X87127000Y-71967543D01*
X93851500Y-74113353D02*
X93867833Y-74097020D01*
X93851500Y-75436000D02*
X93851500Y-74113353D01*
X76088000Y-75758000D02*
X76713000Y-75758000D01*
X75810000Y-77536000D02*
X75810000Y-76036000D01*
X75810000Y-76036000D02*
X76088000Y-75758000D01*
X107210500Y-79121000D02*
X107510500Y-79121000D01*
X106360500Y-78271000D02*
X107210500Y-79121000D01*
X98877000Y-77472500D02*
X97477500Y-77472500D01*
X97477500Y-77472500D02*
X97017000Y-77933000D01*
X97017000Y-77933000D02*
X96652000Y-77933000D01*
X96652000Y-77933000D02*
X95255000Y-77933000D01*
D33*
X90953000Y-57708500D02*
X91159000Y-57914500D01*
D32*
X94651500Y-75436000D02*
X93851500Y-75436000D01*
X92778500Y-77933000D02*
X95255000Y-77933000D01*
X95255000Y-77933000D02*
X94651500Y-77329500D01*
X94651500Y-77329500D02*
X94651500Y-75436000D01*
X76903500Y-80584000D02*
X78430000Y-80584000D01*
X76903500Y-80584000D02*
X76903500Y-80459000D01*
X75810000Y-79365500D02*
X75810000Y-77536000D01*
X76903500Y-80459000D02*
X75810000Y-79365500D01*
X76903500Y-82489000D02*
X76903500Y-80584000D01*
D33*
X150335000Y-142077500D02*
X149128500Y-143284000D01*
X149192000Y-145824000D02*
X149128500Y-145887500D01*
X149128500Y-143284000D02*
X149128500Y-145887500D01*
X155462500Y-141301500D02*
X154686500Y-142077500D01*
X154686500Y-142077500D02*
X150335000Y-142077500D01*
X155582001Y-130055322D02*
X155582001Y-139431999D01*
X155462500Y-139551500D02*
X155462500Y-140426500D01*
X155582001Y-139431999D02*
X155462500Y-139551500D01*
X155462500Y-140426500D02*
X156880500Y-140426500D01*
X155462500Y-140426500D02*
X155462500Y-141301500D01*
X153943478Y-128416800D02*
X155582001Y-130055322D01*
X152815988Y-120226190D02*
X152815988Y-122020986D01*
X152953431Y-120088747D02*
X152815988Y-120226190D01*
X152815988Y-122020986D02*
X153943478Y-123148475D01*
X153943478Y-123148475D02*
X153943478Y-128416800D01*
X151409911Y-118386000D02*
X147751500Y-118386000D01*
X147751500Y-118386000D02*
X146901500Y-118386000D01*
X152953431Y-118597431D02*
X152953431Y-120088747D01*
X152176500Y-118386489D02*
X152742489Y-118386489D01*
X152176500Y-118386489D02*
X151410400Y-118386489D01*
X151410400Y-118386489D02*
X151409911Y-118386000D01*
X152742489Y-118386489D02*
X152953431Y-118597431D01*
X152680400Y-118386489D02*
X152176500Y-118386489D01*
X104686500Y-142077500D02*
X100335000Y-142077500D01*
X99128500Y-143284000D02*
X99128500Y-145887500D01*
X99192000Y-145824000D02*
X99128500Y-145887500D01*
X100335000Y-142077500D02*
X99128500Y-143284000D01*
X105462500Y-139551500D02*
X105462500Y-140426500D01*
X105462500Y-141301500D02*
X104686500Y-142077500D01*
X105462500Y-140426500D02*
X106880500Y-140426500D01*
X105582001Y-139431999D02*
X105462500Y-139551500D01*
X105462500Y-140426500D02*
X105462500Y-141301500D01*
X103943478Y-128416800D02*
X105582001Y-130055322D01*
X105582001Y-130055322D02*
X105582001Y-139431999D01*
X97751500Y-118386000D02*
X96901500Y-118386000D01*
X102680400Y-118386489D02*
X102176500Y-118386489D01*
X102176500Y-118386489D02*
X101410400Y-118386489D01*
X102176500Y-118386489D02*
X102742489Y-118386489D01*
X101410400Y-118386489D02*
X101409911Y-118386000D01*
X101409911Y-118386000D02*
X97751500Y-118386000D01*
X102953431Y-118597431D02*
X102953431Y-120088747D01*
X102953431Y-120088747D02*
X102815988Y-120226190D01*
X102815988Y-120226190D02*
X102815988Y-122020986D01*
X102742489Y-118386489D02*
X102953431Y-118597431D01*
X103943478Y-123148475D02*
X103943478Y-128416800D01*
X102815988Y-122020986D02*
X103943478Y-123148475D01*
X147751500Y-68386000D02*
X146901500Y-68386000D01*
X149192000Y-95824000D02*
X149128500Y-95887500D01*
X154686500Y-92077500D02*
X150335000Y-92077500D01*
X150335000Y-92077500D02*
X149128500Y-93284000D01*
X155462500Y-91301500D02*
X154686500Y-92077500D01*
X149128500Y-93284000D02*
X149128500Y-95887500D01*
X155462500Y-89551500D02*
X155462500Y-90426500D01*
X155462500Y-90426500D02*
X156880500Y-90426500D01*
X155582001Y-89431999D02*
X155462500Y-89551500D01*
X155462500Y-90426500D02*
X155462500Y-91301500D01*
X155582001Y-80055322D02*
X155582001Y-89431999D01*
X152176500Y-68386489D02*
X152742489Y-68386489D01*
X152680400Y-68386489D02*
X152176500Y-68386489D01*
X152176500Y-68386489D02*
X151410400Y-68386489D01*
X151410400Y-68386489D02*
X151409911Y-68386000D01*
X151409911Y-68386000D02*
X147751500Y-68386000D01*
X153943478Y-78416800D02*
X155582001Y-80055322D01*
X153943478Y-73148475D02*
X153943478Y-78416800D01*
X152815988Y-70226190D02*
X152815988Y-72020986D01*
X152815988Y-72020986D02*
X153943478Y-73148475D01*
X152742489Y-68386489D02*
X152953431Y-68597431D01*
X152953431Y-70088747D02*
X152815988Y-70226190D01*
X152953431Y-68597431D02*
X152953431Y-70088747D01*
X105462500Y-89551500D02*
X105462500Y-90426500D01*
X105582001Y-89431999D02*
X105462500Y-89551500D01*
X103943478Y-78416800D02*
X105582001Y-80055322D01*
X103943478Y-73148475D02*
X103943478Y-78416800D01*
X102815988Y-72020986D02*
X103943478Y-73148475D01*
X102815988Y-70226190D02*
X102815988Y-72020986D01*
X102953431Y-70088747D02*
X102815988Y-70226190D01*
X105582001Y-80055322D02*
X105582001Y-89431999D01*
X102176500Y-68386489D02*
X102742489Y-68386489D01*
X102742489Y-68386489D02*
X102953431Y-68597431D01*
X102953431Y-68597431D02*
X102953431Y-70088747D01*
X105462500Y-90426500D02*
X105462500Y-91301500D01*
X105462500Y-91301500D02*
X104686500Y-92077500D01*
X104686500Y-92077500D02*
X100335000Y-92077500D01*
X100335000Y-92077500D02*
X99128500Y-93284000D01*
X99128500Y-93284000D02*
X99128500Y-95887500D01*
X105462500Y-90426500D02*
X106880500Y-90426500D01*
X102680400Y-68386489D02*
X102176500Y-68386489D01*
X102176500Y-68386489D02*
X101410400Y-68386489D01*
X97751500Y-68386000D02*
X96901500Y-68386000D01*
X101409911Y-68386000D02*
X97751500Y-68386000D01*
X101410400Y-68386489D02*
X101409911Y-68386000D01*
X99192000Y-95824000D02*
X99128500Y-95887500D01*
X146155000Y-133566000D02*
X145255000Y-133566000D01*
X146588500Y-133182502D02*
X146205002Y-133566000D01*
X146205002Y-133566000D02*
X146155000Y-133566000D01*
X146588500Y-130012500D02*
X146588500Y-133182502D01*
D32*
X145241500Y-133552500D02*
X145255000Y-133566000D01*
D33*
X141461000Y-133552500D02*
X141445000Y-133568500D01*
D32*
X142778500Y-133552500D02*
X145241500Y-133552500D01*
D33*
X142778500Y-133552500D02*
X141461000Y-133552500D01*
X150330002Y-129504500D02*
X147096500Y-129504500D01*
X147096500Y-129504500D02*
X146588500Y-130012500D01*
X151818001Y-128016501D02*
X150330002Y-129504500D01*
X151818001Y-119498999D02*
X151818001Y-128016501D01*
X146901500Y-119186000D02*
X151505002Y-119186000D01*
X151505002Y-119186000D02*
X151818001Y-119498999D01*
X96155000Y-133566000D02*
X95255000Y-133566000D01*
D32*
X95241500Y-133552500D02*
X95255000Y-133566000D01*
D33*
X96588500Y-130012500D02*
X96588500Y-133182502D01*
X96588500Y-133182502D02*
X96205002Y-133566000D01*
X96205002Y-133566000D02*
X96155000Y-133566000D01*
X91461000Y-133552500D02*
X91445000Y-133568500D01*
X92778500Y-133552500D02*
X91461000Y-133552500D01*
D32*
X92778500Y-133552500D02*
X95241500Y-133552500D01*
D33*
X97096500Y-129504500D02*
X96588500Y-130012500D01*
X100330002Y-129504500D02*
X97096500Y-129504500D01*
X101818001Y-128016501D02*
X100330002Y-129504500D01*
X101505002Y-119186000D02*
X101818001Y-119498999D01*
X96901500Y-119186000D02*
X101505002Y-119186000D01*
X101818001Y-119498999D02*
X101818001Y-128016501D01*
X147096500Y-79504500D02*
X146588500Y-80012500D01*
D32*
X145241500Y-83552500D02*
X145255000Y-83566000D01*
D33*
X146588500Y-80012500D02*
X146588500Y-83182502D01*
X146588500Y-83182502D02*
X146205002Y-83566000D01*
D32*
X142778500Y-83552500D02*
X145241500Y-83552500D01*
D33*
X146155000Y-83566000D02*
X145255000Y-83566000D01*
X146205002Y-83566000D02*
X146155000Y-83566000D01*
X141461000Y-83552500D02*
X141445000Y-83568500D01*
X142778500Y-83552500D02*
X141461000Y-83552500D01*
X151505002Y-69186000D02*
X151818001Y-69498999D01*
X150330002Y-79504500D02*
X147096500Y-79504500D01*
X151818001Y-78016501D02*
X150330002Y-79504500D01*
X146901500Y-69186000D02*
X151505002Y-69186000D01*
X151818001Y-69498999D02*
X151818001Y-78016501D01*
X96588500Y-83182502D02*
X96205002Y-83566000D01*
X101818001Y-69498999D02*
X101818001Y-78016501D01*
X96901500Y-69186000D02*
X101505002Y-69186000D01*
X96588500Y-80012500D02*
X96588500Y-83182502D01*
X96155000Y-83566000D02*
X95255000Y-83566000D01*
X97096500Y-79504500D02*
X96588500Y-80012500D01*
X96205002Y-83566000D02*
X96155000Y-83566000D01*
X101818001Y-78016501D02*
X100330002Y-79504500D01*
X101505002Y-69186000D02*
X101818001Y-69498999D01*
X100330002Y-79504500D02*
X97096500Y-79504500D01*
X92778500Y-83552500D02*
X91461000Y-83552500D01*
X91461000Y-83552500D02*
X91445000Y-83568500D01*
D32*
X92778500Y-83552500D02*
X95241500Y-83552500D01*
X95241500Y-83552500D02*
X95255000Y-83566000D01*
D33*
X139851500Y-124293500D02*
X142159031Y-121985969D01*
X139851500Y-125436000D02*
X139851500Y-124293500D01*
X107635500Y-125742000D02*
X108590000Y-124787500D01*
X108590000Y-124787500D02*
X108590000Y-123197764D01*
X108590000Y-123197764D02*
X108590000Y-122773500D01*
X107510500Y-125742000D02*
X107635500Y-125742000D01*
D32*
X117099000Y-126146000D02*
X115504500Y-126146000D01*
X109258250Y-127221000D02*
X110492680Y-128455430D01*
X113195070Y-128455430D02*
X110492680Y-128455430D01*
X115504500Y-126146000D02*
X113195070Y-128455430D01*
D33*
X143709379Y-121985969D02*
X144133643Y-121985969D01*
X142159031Y-121985969D02*
X143709379Y-121985969D01*
D32*
X159258250Y-127221000D02*
X160492680Y-128455430D01*
X157510500Y-127221000D02*
X159258250Y-127221000D01*
D33*
X157635500Y-125742000D02*
X158590000Y-124787500D01*
X157510500Y-125742000D02*
X157635500Y-125742000D01*
X158590000Y-123197764D02*
X158590000Y-122773500D01*
X158590000Y-124787500D02*
X158590000Y-123197764D01*
D32*
X157510500Y-127221000D02*
X157510500Y-125742000D01*
X167099000Y-126146000D02*
X165504500Y-126146000D01*
X165504500Y-126146000D02*
X163195070Y-128455430D01*
X163195070Y-128455430D02*
X160492680Y-128455430D01*
X107510500Y-127221000D02*
X107510500Y-125742000D01*
X107510500Y-127221000D02*
X109258250Y-127221000D01*
D33*
X93709379Y-121985969D02*
X94133643Y-121985969D01*
X89851500Y-125436000D02*
X89851500Y-124293500D01*
X89851500Y-124293500D02*
X92159031Y-121985969D01*
X92159031Y-121985969D02*
X93709379Y-121985969D01*
X139851500Y-75436000D02*
X139851500Y-74293500D01*
X142159031Y-71985969D02*
X143709379Y-71985969D01*
X139851500Y-74293500D02*
X142159031Y-71985969D01*
X143709379Y-71985969D02*
X144133643Y-71985969D01*
D32*
X167099000Y-76146000D02*
X165504500Y-76146000D01*
D33*
X157510500Y-75742000D02*
X157635500Y-75742000D01*
X157635500Y-75742000D02*
X158590000Y-74787500D01*
D32*
X157510500Y-77221000D02*
X159258250Y-77221000D01*
X157510500Y-77221000D02*
X157510500Y-75742000D01*
X159258250Y-77221000D02*
X160492680Y-78455430D01*
X163195070Y-78455430D02*
X160492680Y-78455430D01*
X165504500Y-76146000D02*
X163195070Y-78455430D01*
D33*
X158590000Y-73197764D02*
X158590000Y-72773500D01*
X158590000Y-74787500D02*
X158590000Y-73197764D01*
X93709379Y-71985969D02*
X94133643Y-71985969D01*
X89851500Y-74293500D02*
X92159031Y-71985969D01*
X89851500Y-75436000D02*
X89851500Y-74293500D01*
X92159031Y-71985969D02*
X93709379Y-71985969D01*
X107510500Y-75742000D02*
X107635500Y-75742000D01*
X107635500Y-75742000D02*
X108590000Y-74787500D01*
X108590000Y-74787500D02*
X108590000Y-73197764D01*
X108590000Y-73197764D02*
X108590000Y-72773500D01*
D32*
X107510500Y-77221000D02*
X109258250Y-77221000D01*
X109258250Y-77221000D02*
X110492680Y-78455430D01*
X107510500Y-77221000D02*
X107510500Y-75742000D01*
X115504500Y-76146000D02*
X113195070Y-78455430D01*
X113195070Y-78455430D02*
X110492680Y-78455430D01*
X117099000Y-76146000D02*
X115504500Y-76146000D01*
X147477500Y-125504000D02*
X146901500Y-124928000D01*
X146901500Y-124928000D02*
X146901500Y-123986000D01*
X150843000Y-127406500D02*
X150777000Y-127472500D01*
X150843000Y-125488000D02*
X150843000Y-127406500D01*
X149001500Y-125488000D02*
X148876500Y-125488000D01*
X148876500Y-125488000D02*
X148860500Y-125504000D01*
X148860500Y-125504000D02*
X147477500Y-125504000D01*
X150843000Y-125488000D02*
X149001500Y-125488000D01*
X100843000Y-125488000D02*
X99001500Y-125488000D01*
X100843000Y-125488000D02*
X100843000Y-127406500D01*
X100843000Y-127406500D02*
X100777000Y-127472500D01*
X97477500Y-125504000D02*
X96901500Y-124928000D01*
X96901500Y-124928000D02*
X96901500Y-123986000D01*
X98876500Y-125488000D02*
X98860500Y-125504000D01*
X98860500Y-125504000D02*
X97477500Y-125504000D01*
X99001500Y-125488000D02*
X98876500Y-125488000D01*
X149001500Y-75488000D02*
X148876500Y-75488000D01*
X148876500Y-75488000D02*
X148860500Y-75504000D01*
X148860500Y-75504000D02*
X147477500Y-75504000D01*
X147477500Y-75504000D02*
X146901500Y-74928000D01*
X146901500Y-74928000D02*
X146901500Y-73986000D01*
X150843000Y-77406500D02*
X150777000Y-77472500D01*
X150843000Y-75488000D02*
X149001500Y-75488000D01*
X150843000Y-75488000D02*
X150843000Y-77406500D01*
X100843000Y-75488000D02*
X100843000Y-77406500D01*
X100843000Y-77406500D02*
X100777000Y-77472500D01*
X97477500Y-75504000D02*
X96901500Y-74928000D01*
X96901500Y-74928000D02*
X96901500Y-73986000D01*
X98860500Y-75504000D02*
X97477500Y-75504000D01*
X99001500Y-75488000D02*
X98876500Y-75488000D01*
X98876500Y-75488000D02*
X98860500Y-75504000D01*
X100843000Y-75488000D02*
X99001500Y-75488000D01*
X130330000Y-130584000D02*
X130330000Y-129126000D01*
X130330000Y-129126000D02*
X130332500Y-129123500D01*
X80330000Y-130584000D02*
X80330000Y-129126000D01*
X80330000Y-129126000D02*
X80332500Y-129123500D01*
X130330000Y-79126000D02*
X130332500Y-79123500D01*
X130330000Y-80584000D02*
X130330000Y-79126000D01*
X80330000Y-80584000D02*
X80330000Y-79126000D01*
X80330000Y-79126000D02*
X80332500Y-79123500D01*
D33*
X138524000Y-129944000D02*
X137132000Y-129944000D01*
X137132000Y-129944000D02*
X137127000Y-129949000D01*
X88524000Y-129944000D02*
X87132000Y-129944000D01*
X87132000Y-129944000D02*
X87127000Y-129949000D01*
X138524000Y-79944000D02*
X137132000Y-79944000D01*
X137132000Y-79944000D02*
X137127000Y-79949000D01*
X88524000Y-79944000D02*
X87132000Y-79944000D01*
X87132000Y-79944000D02*
X87127000Y-79949000D01*
X152811500Y-125501500D02*
X152811500Y-127853500D01*
X102811500Y-125501500D02*
X102811500Y-127853500D01*
X152811500Y-75501500D02*
X152811500Y-77853500D01*
X102811500Y-75501500D02*
X102811500Y-77853500D01*
X159542500Y-129885500D02*
X159159000Y-130269000D01*
X159159000Y-130269000D02*
X159159000Y-131219000D01*
X114320069Y-129870431D02*
X110207569Y-129870431D01*
X115575000Y-128615500D02*
X114320069Y-129870431D01*
X109542500Y-129885500D02*
X109159000Y-130269000D01*
X109159000Y-130269000D02*
X109159000Y-131219000D01*
X110207569Y-129870431D02*
X110192500Y-129885500D01*
X110192500Y-129885500D02*
X109542500Y-129885500D01*
X160207569Y-129870431D02*
X160192500Y-129885500D01*
X160192500Y-129885500D02*
X159542500Y-129885500D01*
X164320069Y-129870431D02*
X160207569Y-129870431D01*
X165575000Y-128615500D02*
X164320069Y-129870431D01*
X160192500Y-79885500D02*
X159542500Y-79885500D01*
X159159000Y-80269000D02*
X159159000Y-81219000D01*
X159542500Y-79885500D02*
X159159000Y-80269000D01*
X160207569Y-79870431D02*
X160192500Y-79885500D01*
X164320069Y-79870431D02*
X160207569Y-79870431D01*
X165575000Y-78615500D02*
X164320069Y-79870431D01*
X115575000Y-78615500D02*
X114320069Y-79870431D01*
X114320069Y-79870431D02*
X110207569Y-79870431D01*
X110207569Y-79870431D02*
X110192500Y-79885500D01*
X110192500Y-79885500D02*
X109542500Y-79885500D01*
X109542500Y-79885500D02*
X109159000Y-80269000D01*
X109159000Y-80269000D02*
X109159000Y-81219000D01*
D32*
X164178000Y-132235000D02*
X162374500Y-132235000D01*
X166908500Y-132235000D02*
X164178000Y-132235000D01*
X116908500Y-132235000D02*
X114178000Y-132235000D01*
X114178000Y-132235000D02*
X112374500Y-132235000D01*
X166908500Y-82235000D02*
X164178000Y-82235000D01*
X164178000Y-82235000D02*
X162374500Y-82235000D01*
X114178000Y-82235000D02*
X112374500Y-82235000D01*
X116908500Y-82235000D02*
X114178000Y-82235000D01*
X169007511Y-147471489D02*
X169007511Y-131032011D01*
X167607000Y-148872000D02*
X169007511Y-147471489D01*
X168432500Y-130457000D02*
X161130000Y-130457000D01*
X160774500Y-130812500D02*
X160774500Y-132235000D01*
X161130000Y-130457000D02*
X160774500Y-130812500D01*
X169007511Y-131032011D02*
X168432500Y-130457000D01*
X126332000Y-139982000D02*
X122966500Y-143347500D01*
X122966500Y-146967000D02*
X124871500Y-148872000D01*
X122966500Y-143347500D02*
X122966500Y-146967000D01*
X124871500Y-148872000D02*
X167607000Y-148872000D01*
X126332000Y-137632500D02*
X126332000Y-139982000D01*
X126332000Y-137632500D02*
X130586500Y-133378000D01*
X123093500Y-137632500D02*
X126332000Y-137632500D01*
X119007511Y-131032011D02*
X118432500Y-130457000D01*
X118432500Y-130457000D02*
X111130000Y-130457000D01*
X110774500Y-130812500D02*
X110774500Y-132235000D01*
X111130000Y-130457000D02*
X110774500Y-130812500D01*
X74871500Y-148872000D02*
X117607000Y-148872000D01*
X72966500Y-143347500D02*
X72966500Y-146967000D01*
X72966500Y-146967000D02*
X74871500Y-148872000D01*
X73093500Y-137632500D02*
X76332000Y-137632500D01*
X76332000Y-137632500D02*
X76332000Y-139982000D01*
X76332000Y-139982000D02*
X72966500Y-143347500D01*
X76332000Y-137632500D02*
X80586500Y-133378000D01*
X117607000Y-148872000D02*
X119007511Y-147471489D01*
X119007511Y-147471489D02*
X119007511Y-131032011D01*
X126332000Y-87632500D02*
X126332000Y-89982000D01*
X126332000Y-89982000D02*
X122966500Y-93347500D01*
X123093500Y-87632500D02*
X126332000Y-87632500D01*
X122966500Y-96967000D02*
X124871500Y-98872000D01*
X122966500Y-93347500D02*
X122966500Y-96967000D01*
X168432500Y-80457000D02*
X161130000Y-80457000D01*
X126332000Y-87632500D02*
X130586500Y-83378000D01*
X169007511Y-97471489D02*
X169007511Y-81032011D01*
X124871500Y-98872000D02*
X167607000Y-98872000D01*
X169007511Y-81032011D02*
X168432500Y-80457000D01*
X167607000Y-98872000D02*
X169007511Y-97471489D01*
X161130000Y-80457000D02*
X160774500Y-80812500D01*
X160774500Y-80812500D02*
X160774500Y-82235000D01*
X76332000Y-87632500D02*
X76332000Y-89982000D01*
X119007511Y-97471489D02*
X119007511Y-81032011D01*
X76332000Y-89982000D02*
X72966500Y-93347500D01*
X118432500Y-80457000D02*
X111130000Y-80457000D01*
X72966500Y-93347500D02*
X72966500Y-96967000D01*
X72966500Y-96967000D02*
X74871500Y-98872000D01*
X74871500Y-98872000D02*
X117607000Y-98872000D01*
X117607000Y-98872000D02*
X119007511Y-97471489D01*
X111130000Y-80457000D02*
X110774500Y-80812500D01*
X119007511Y-81032011D02*
X118432500Y-80457000D01*
X110774500Y-80812500D02*
X110774500Y-82235000D01*
X73093500Y-87632500D02*
X76332000Y-87632500D01*
X76332000Y-87632500D02*
X80586500Y-83378000D01*
D33*
X162686099Y-134110010D02*
X161339490Y-134110010D01*
X166908500Y-134735000D02*
X163311089Y-134735000D01*
X163311089Y-134735000D02*
X162686099Y-134110010D01*
X159923500Y-135537000D02*
X160774500Y-135537000D01*
X159288500Y-136172000D02*
X159923500Y-135537000D01*
X161339490Y-134110010D02*
X160774500Y-134675000D01*
X160774500Y-134675000D02*
X160774500Y-135537000D01*
X158846500Y-136172000D02*
X159288500Y-136172000D01*
X113311089Y-134735000D02*
X112686099Y-134110010D01*
X112686099Y-134110010D02*
X111339490Y-134110010D01*
X111339490Y-134110010D02*
X110774500Y-134675000D01*
X110774500Y-134675000D02*
X110774500Y-135537000D01*
X116908500Y-134735000D02*
X113311089Y-134735000D01*
X108846500Y-136172000D02*
X109288500Y-136172000D01*
X109288500Y-136172000D02*
X109923500Y-135537000D01*
X109923500Y-135537000D02*
X110774500Y-135537000D01*
X158846500Y-86172000D02*
X159288500Y-86172000D01*
X159288500Y-86172000D02*
X159923500Y-85537000D01*
X160774500Y-84675000D02*
X160774500Y-85537000D01*
X159923500Y-85537000D02*
X160774500Y-85537000D01*
X161339490Y-84110010D02*
X160774500Y-84675000D01*
X162686099Y-84110010D02*
X161339490Y-84110010D01*
X166908500Y-84735000D02*
X163311089Y-84735000D01*
X163311089Y-84735000D02*
X162686099Y-84110010D01*
X110774500Y-84675000D02*
X110774500Y-85537000D01*
X111339490Y-84110010D02*
X110774500Y-84675000D01*
X113311089Y-84735000D02*
X112686099Y-84110010D01*
X116908500Y-84735000D02*
X113311089Y-84735000D01*
X112686099Y-84110010D02*
X111339490Y-84110010D01*
X108846500Y-86172000D02*
X109288500Y-86172000D01*
X109288500Y-86172000D02*
X109923500Y-85537000D01*
X109923500Y-85537000D02*
X110774500Y-85537000D01*
X162374500Y-135537000D02*
X162374500Y-136527500D01*
X162374500Y-136527500D02*
X162649000Y-136802000D01*
X162649000Y-136802000D02*
X162649000Y-138140500D01*
X112374500Y-135537000D02*
X112374500Y-136527500D01*
X112374500Y-136527500D02*
X112649000Y-136802000D01*
X112649000Y-136802000D02*
X112649000Y-138140500D01*
X162374500Y-86527500D02*
X162649000Y-86802000D01*
X162374500Y-85537000D02*
X162374500Y-86527500D01*
X162649000Y-86802000D02*
X162649000Y-88140500D01*
X112374500Y-86527500D02*
X112649000Y-86802000D01*
X112649000Y-86802000D02*
X112649000Y-88140500D01*
X112374500Y-85537000D02*
X112374500Y-86527500D01*
D32*
X126317000Y-103342500D02*
X125911000Y-103342500D01*
X131412000Y-113096000D02*
X131437500Y-113121500D01*
X131412000Y-110421500D02*
X131412000Y-113096000D01*
X131097000Y-108122500D02*
X126317000Y-103342500D01*
X131412000Y-108737500D02*
X131097000Y-108422500D01*
X131097000Y-108422500D02*
X131097000Y-108122500D01*
X131412000Y-110421500D02*
X131412000Y-108737500D01*
X81412000Y-113096000D02*
X81437500Y-113121500D01*
X81412000Y-110421500D02*
X81412000Y-113096000D01*
X81412000Y-110421500D02*
X81412000Y-108737500D01*
X81412000Y-108737500D02*
X81097000Y-108422500D01*
X76317000Y-103342500D02*
X75911000Y-103342500D01*
X81097000Y-108122500D02*
X76317000Y-103342500D01*
X81097000Y-108422500D02*
X81097000Y-108122500D01*
X131412000Y-58737500D02*
X131097000Y-58422500D01*
X131097000Y-58422500D02*
X131097000Y-58122500D01*
X131097000Y-58122500D02*
X126317000Y-53342500D01*
X126317000Y-53342500D02*
X125911000Y-53342500D01*
X131412000Y-60421500D02*
X131412000Y-58737500D01*
X131412000Y-60421500D02*
X131412000Y-63096000D01*
X131412000Y-63096000D02*
X131437500Y-63121500D01*
X81412000Y-60421500D02*
X81412000Y-63096000D01*
X81412000Y-63096000D02*
X81437500Y-63121500D01*
X81097000Y-58422500D02*
X81097000Y-58122500D01*
X81097000Y-58122500D02*
X76317000Y-53342500D01*
X76317000Y-53342500D02*
X75911000Y-53342500D01*
X81412000Y-60421500D02*
X81412000Y-58737500D01*
X81412000Y-58737500D02*
X81097000Y-58422500D01*
D33*
X133952000Y-123027500D02*
X133952000Y-115821500D01*
X140651500Y-124409900D02*
X141762952Y-123298448D01*
X140651500Y-125436000D02*
X140651500Y-124409900D01*
D32*
X133952000Y-114036000D02*
X133952000Y-115821500D01*
X133037500Y-113121500D02*
X133952000Y-114036000D01*
D33*
X141762952Y-123298448D02*
X142062951Y-122998449D01*
X90651500Y-125436000D02*
X90651500Y-124409900D01*
X90651500Y-124409900D02*
X91762952Y-123298448D01*
X91762952Y-123298448D02*
X92062951Y-122998449D01*
X83952000Y-123027500D02*
X83952000Y-115821500D01*
D32*
X83952000Y-114036000D02*
X83952000Y-115821500D01*
X83037500Y-113121500D02*
X83952000Y-114036000D01*
D33*
X133952000Y-73027500D02*
X133952000Y-65821500D01*
D32*
X133037500Y-63121500D02*
X133952000Y-64036000D01*
X133952000Y-64036000D02*
X133952000Y-65821500D01*
D33*
X140651500Y-75436000D02*
X140651500Y-74409900D01*
X140651500Y-74409900D02*
X141762952Y-73298448D01*
X141762952Y-73298448D02*
X142062951Y-72998449D01*
X91762952Y-73298448D02*
X92062951Y-72998449D01*
X90651500Y-75436000D02*
X90651500Y-74409900D01*
X90651500Y-74409900D02*
X91762952Y-73298448D01*
X83952000Y-73027500D02*
X83952000Y-65821500D01*
D32*
X83037500Y-63121500D02*
X83952000Y-64036000D01*
X83952000Y-64036000D02*
X83952000Y-65821500D01*
X107957500Y-106809000D02*
X111424000Y-103342500D01*
X157957500Y-108359000D02*
X157957500Y-106809000D01*
X157957500Y-106809000D02*
X161424000Y-103342500D01*
X157828000Y-108488500D02*
X157957500Y-108359000D01*
X157828000Y-110421500D02*
X157828000Y-108488500D01*
X157828000Y-110421500D02*
X157828000Y-112982000D01*
X157828000Y-112982000D02*
X157625000Y-113185000D01*
X107828000Y-108488500D02*
X107957500Y-108359000D01*
X107828000Y-110421500D02*
X107828000Y-108488500D01*
X107957500Y-108359000D02*
X107957500Y-106809000D01*
X107828000Y-110421500D02*
X107828000Y-112982000D01*
X107828000Y-112982000D02*
X107625000Y-113185000D01*
X157957500Y-56809000D02*
X161424000Y-53342500D01*
X157828000Y-60421500D02*
X157828000Y-62982000D01*
X157828000Y-62982000D02*
X157625000Y-63185000D01*
X157957500Y-58359000D02*
X157957500Y-56809000D01*
X157828000Y-60421500D02*
X157828000Y-58488500D01*
X157828000Y-58488500D02*
X157957500Y-58359000D01*
X107957500Y-58359000D02*
X107957500Y-56809000D01*
X107957500Y-56809000D02*
X111424000Y-53342500D01*
X107828000Y-60421500D02*
X107828000Y-62982000D01*
X107828000Y-62982000D02*
X107625000Y-63185000D01*
X107828000Y-60421500D02*
X107828000Y-58488500D01*
X107828000Y-58488500D02*
X107957500Y-58359000D01*
D33*
X110368000Y-116296500D02*
X109669500Y-116995000D01*
X110368000Y-115821500D02*
X110368000Y-116296500D01*
X143334323Y-122610989D02*
X144726792Y-122610989D01*
X141451500Y-124493812D02*
X143334323Y-122610989D01*
X141451500Y-125436000D02*
X141451500Y-124493812D01*
X144726792Y-122610989D02*
X145802133Y-121535648D01*
X156241542Y-120044064D02*
X156241542Y-120468328D01*
X156241542Y-119961962D02*
X156241542Y-120044064D01*
X145802133Y-121535648D02*
X145802133Y-121111384D01*
X159208504Y-116995000D02*
X156241542Y-119961962D01*
X159669500Y-116995000D02*
X159208504Y-116995000D01*
X160368000Y-116296500D02*
X159669500Y-116995000D01*
X160368000Y-115821500D02*
X160368000Y-116296500D01*
D32*
X160368000Y-114328000D02*
X160368000Y-115821500D01*
X159225000Y-113185000D02*
X160368000Y-114328000D01*
D33*
X93334323Y-122610989D02*
X94726792Y-122610989D01*
X91451500Y-125436000D02*
X91451500Y-124493812D01*
X91451500Y-124493812D02*
X93334323Y-122610989D01*
X94726792Y-122610989D02*
X95802133Y-121535648D01*
X95802133Y-121535648D02*
X95802133Y-121111384D01*
X106241542Y-120044064D02*
X106241542Y-120468328D01*
X109208504Y-116995000D02*
X106241542Y-119961962D01*
X109669500Y-116995000D02*
X109208504Y-116995000D01*
X106241542Y-119961962D02*
X106241542Y-120044064D01*
D32*
X110368000Y-114328000D02*
X110368000Y-115821500D01*
X109225000Y-113185000D02*
X110368000Y-114328000D01*
D33*
X141451500Y-75436000D02*
X141451500Y-74493812D01*
X141451500Y-74493812D02*
X143334323Y-72610989D01*
X143334323Y-72610989D02*
X144726792Y-72610989D01*
X144726792Y-72610989D02*
X145802133Y-71535648D01*
X145802133Y-71535648D02*
X145802133Y-71111384D01*
X156241542Y-70044064D02*
X156241542Y-70468328D01*
X160368000Y-65821500D02*
X160368000Y-66296500D01*
X159208504Y-66995000D02*
X156241542Y-69961962D01*
X156241542Y-69961962D02*
X156241542Y-70044064D01*
X159669500Y-66995000D02*
X159208504Y-66995000D01*
X160368000Y-66296500D02*
X159669500Y-66995000D01*
D32*
X160368000Y-64328000D02*
X160368000Y-65821500D01*
X159225000Y-63185000D02*
X160368000Y-64328000D01*
D33*
X106241542Y-70044064D02*
X106241542Y-70468328D01*
X106241542Y-69961962D02*
X106241542Y-70044064D01*
X109669500Y-66995000D02*
X109208504Y-66995000D01*
X109208504Y-66995000D02*
X106241542Y-69961962D01*
X110368000Y-66296500D02*
X109669500Y-66995000D01*
X110368000Y-65821500D02*
X110368000Y-66296500D01*
X95802133Y-71535648D02*
X95802133Y-71111384D01*
X94726792Y-72610989D02*
X95802133Y-71535648D01*
X93334323Y-72610989D02*
X94726792Y-72610989D01*
X91451500Y-74493812D02*
X93334323Y-72610989D01*
X91451500Y-75436000D02*
X91451500Y-74493812D01*
D32*
X109225000Y-63185000D02*
X110368000Y-64328000D01*
X110368000Y-64328000D02*
X110368000Y-65821500D01*
D33*
X138401500Y-119186000D02*
X144461000Y-119186000D01*
X144461000Y-119186000D02*
X145255000Y-118392000D01*
X88401500Y-119186000D02*
X94461000Y-119186000D01*
X94461000Y-119186000D02*
X95255000Y-118392000D01*
X138401500Y-69186000D02*
X144461000Y-69186000D01*
X144461000Y-69186000D02*
X145255000Y-68392000D01*
X94461000Y-69186000D02*
X95255000Y-68392000D01*
X88401500Y-69186000D02*
X94461000Y-69186000D01*
X166158501Y-137984999D02*
X166908500Y-137235000D01*
X164983511Y-139159989D02*
X166158501Y-137984999D01*
X160749000Y-138440500D02*
X161468489Y-139159989D01*
X161468489Y-139159989D02*
X164983511Y-139159989D01*
X160050500Y-137442000D02*
X160749000Y-138140500D01*
X160749000Y-138140500D02*
X160749000Y-138440500D01*
X158846500Y-137442000D02*
X160050500Y-137442000D01*
X116158501Y-137984999D02*
X116908500Y-137235000D01*
X114983511Y-139159989D02*
X116158501Y-137984999D01*
X110749000Y-138440500D02*
X111468489Y-139159989D01*
X111468489Y-139159989D02*
X114983511Y-139159989D01*
X110050500Y-137442000D02*
X110749000Y-138140500D01*
X110749000Y-138140500D02*
X110749000Y-138440500D01*
X108846500Y-137442000D02*
X110050500Y-137442000D01*
X160050500Y-87442000D02*
X160749000Y-88140500D01*
X158846500Y-87442000D02*
X160050500Y-87442000D01*
X166158501Y-87984999D02*
X166908500Y-87235000D01*
X160749000Y-88140500D02*
X160749000Y-88440500D01*
X160749000Y-88440500D02*
X161468489Y-89159989D01*
X164983511Y-89159989D02*
X166158501Y-87984999D01*
X161468489Y-89159989D02*
X164983511Y-89159989D01*
X116158501Y-87984999D02*
X116908500Y-87235000D01*
X114983511Y-89159989D02*
X116158501Y-87984999D01*
X111468489Y-89159989D02*
X114983511Y-89159989D01*
X110749000Y-88440500D02*
X111468489Y-89159989D01*
X110749000Y-88140500D02*
X110749000Y-88440500D01*
X108846500Y-87442000D02*
X110050500Y-87442000D01*
X110050500Y-87442000D02*
X110749000Y-88140500D01*
X167035500Y-147411500D02*
X167035500Y-146014500D01*
X166337000Y-148110000D02*
X167035500Y-147411500D01*
X167000000Y-144953840D02*
X168432500Y-143521340D01*
X168432500Y-143521340D02*
X168432500Y-134140000D01*
X167952499Y-133659999D02*
X160563501Y-133659999D01*
X168432500Y-134140000D02*
X167952499Y-133659999D01*
X159225000Y-133140000D02*
X159209000Y-133124000D01*
X159225000Y-133973500D02*
X159225000Y-133140000D01*
X160563501Y-133659999D02*
X159321500Y-134902000D01*
X158846500Y-134902000D02*
X158846500Y-134352000D01*
X125920000Y-148110000D02*
X140476500Y-148110000D01*
D32*
X128618000Y-143474500D02*
X125860500Y-143474500D01*
X131936501Y-140155999D02*
X128618000Y-143474500D01*
D33*
X167000000Y-144953840D02*
X167000000Y-145979000D01*
X167000000Y-145979000D02*
X167035500Y-146014500D01*
X140476500Y-148110000D02*
X143172200Y-148110000D01*
X140683000Y-146903500D02*
X141965700Y-146903500D01*
X141965700Y-146903500D02*
X143172200Y-148110000D01*
D32*
X124697500Y-144637500D02*
X124697500Y-145887500D01*
D33*
X124697500Y-146887500D02*
X125920000Y-148110000D01*
X124697500Y-145887500D02*
X124697500Y-146887500D01*
D32*
X125860500Y-143474500D02*
X124697500Y-144637500D01*
D33*
X143172200Y-148110000D02*
X166337000Y-148110000D01*
D32*
X131936501Y-132729999D02*
X131936501Y-140155999D01*
D33*
X159321500Y-134902000D02*
X158846500Y-134902000D01*
X158846500Y-134352000D02*
X159225000Y-133973500D01*
D32*
X128110000Y-127536000D02*
X130332500Y-127536000D01*
X128110000Y-127536000D02*
X128110000Y-126036000D01*
X128110000Y-126036000D02*
X130586500Y-123559500D01*
X131412000Y-115821500D02*
X131412000Y-117312500D01*
X130586500Y-123559500D02*
X130586500Y-119410792D01*
X131412000Y-117312500D02*
X130586500Y-118138000D01*
X131412000Y-115821500D02*
X132682000Y-115821500D01*
X130586500Y-119410792D02*
X130586500Y-118138000D01*
D33*
X118432500Y-134140000D02*
X117952499Y-133659999D01*
X117952499Y-133659999D02*
X110563501Y-133659999D01*
X109225000Y-133973500D02*
X109225000Y-133140000D01*
X109225000Y-133140000D02*
X109209000Y-133124000D01*
D32*
X123411000Y-102092500D02*
X123812000Y-101691500D01*
X123538000Y-103342500D02*
X123411000Y-103342500D01*
X123411000Y-103342500D02*
X123411000Y-102092500D01*
X130142000Y-110421500D02*
X130142000Y-113559412D01*
X130142000Y-113559412D02*
X131412000Y-114829412D01*
X130142000Y-110421500D02*
X130142000Y-109946500D01*
X131412000Y-114829412D02*
X131412000Y-115821500D01*
X130142000Y-109946500D02*
X123538000Y-103342500D01*
X123812000Y-101691500D02*
X140868035Y-101691500D01*
X107674000Y-103342500D02*
X108924000Y-103342500D01*
X131918169Y-132711667D02*
X131936501Y-132729999D01*
X130332500Y-127536000D02*
X131918169Y-129121669D01*
X131918169Y-129121669D02*
X131918169Y-132711667D01*
X155513489Y-101181989D02*
X157674000Y-103342500D01*
X140868035Y-101691500D02*
X141377546Y-101181989D01*
X141377546Y-101181989D02*
X155513489Y-101181989D01*
X157828000Y-115821500D02*
X159098000Y-115821500D01*
X156558000Y-104458500D02*
X157674000Y-103342500D01*
X157674000Y-103342500D02*
X158924000Y-103342500D01*
X156558000Y-110421500D02*
X156558000Y-104458500D01*
X156558000Y-110421500D02*
X156558000Y-110896500D01*
X156558000Y-110896500D02*
X156539990Y-110914510D01*
X156539990Y-111714510D02*
X156558000Y-111696500D01*
X156539990Y-113833402D02*
X156539990Y-111714510D01*
X156558000Y-111696500D02*
X156558000Y-110421500D01*
X157828000Y-115821500D02*
X157828000Y-114963000D01*
X157828000Y-114963000D02*
X157669588Y-114963000D01*
X157669588Y-114963000D02*
X156539990Y-113833402D01*
D33*
X117000000Y-144953840D02*
X117000000Y-145979000D01*
X74697500Y-146887500D02*
X75920000Y-148110000D01*
X117000000Y-145979000D02*
X117035500Y-146014500D01*
X116337000Y-148110000D02*
X117035500Y-147411500D01*
X117035500Y-147411500D02*
X117035500Y-146014500D01*
X93172200Y-148110000D02*
X116337000Y-148110000D01*
X74697500Y-145887500D02*
X74697500Y-146887500D01*
D32*
X74697500Y-144637500D02*
X74697500Y-145887500D01*
X75860500Y-143474500D02*
X74697500Y-144637500D01*
X78618000Y-143474500D02*
X75860500Y-143474500D01*
X81936501Y-132729999D02*
X81936501Y-140155999D01*
D33*
X75920000Y-148110000D02*
X90476500Y-148110000D01*
D32*
X81918169Y-132711667D02*
X81936501Y-132729999D01*
X81918169Y-129121669D02*
X81918169Y-132711667D01*
X81936501Y-140155999D02*
X78618000Y-143474500D01*
D33*
X118432500Y-143521340D02*
X118432500Y-134140000D01*
X117000000Y-144953840D02*
X118432500Y-143521340D01*
X110563501Y-133659999D02*
X109321500Y-134902000D01*
X108846500Y-134902000D02*
X108846500Y-134352000D01*
X108846500Y-134352000D02*
X109225000Y-133973500D01*
X109321500Y-134902000D02*
X108846500Y-134902000D01*
X90683000Y-146903500D02*
X91965700Y-146903500D01*
X90476500Y-148110000D02*
X93172200Y-148110000D01*
X91965700Y-146903500D02*
X93172200Y-148110000D01*
D32*
X80332500Y-127536000D02*
X81918169Y-129121669D01*
X80586500Y-123559500D02*
X80586500Y-119410792D01*
X80586500Y-119410792D02*
X80586500Y-118138000D01*
X78110000Y-127536000D02*
X80332500Y-127536000D01*
X78110000Y-127536000D02*
X78110000Y-126036000D01*
X78110000Y-126036000D02*
X80586500Y-123559500D01*
X107828000Y-115821500D02*
X109098000Y-115821500D01*
X81412000Y-115821500D02*
X81412000Y-117312500D01*
X81412000Y-117312500D02*
X80586500Y-118138000D01*
X81412000Y-114829412D02*
X81412000Y-115821500D01*
X81412000Y-115821500D02*
X82682000Y-115821500D01*
X80142000Y-113559412D02*
X81412000Y-114829412D01*
X80142000Y-110421500D02*
X80142000Y-109946500D01*
X80142000Y-110421500D02*
X80142000Y-113559412D01*
X73538000Y-103342500D02*
X73411000Y-103342500D01*
X73411000Y-102092500D02*
X73812000Y-101691500D01*
X73411000Y-103342500D02*
X73411000Y-102092500D01*
X80142000Y-109946500D02*
X73538000Y-103342500D01*
X73812000Y-101691500D02*
X90868035Y-101691500D01*
X106558000Y-110896500D02*
X106539990Y-110914510D01*
X106539990Y-111714510D02*
X106558000Y-111696500D01*
X106558000Y-111696500D02*
X106558000Y-110421500D01*
X106558000Y-110421500D02*
X106558000Y-110896500D01*
X105513489Y-101181989D02*
X107674000Y-103342500D01*
X106558000Y-104458500D02*
X107674000Y-103342500D01*
X106558000Y-110421500D02*
X106558000Y-104458500D01*
X106539990Y-113833402D02*
X106539990Y-111714510D01*
X107828000Y-115821500D02*
X107828000Y-114963000D01*
X107828000Y-114963000D02*
X107669588Y-114963000D01*
X107669588Y-114963000D02*
X106539990Y-113833402D01*
X91377546Y-101181989D02*
X105513489Y-101181989D01*
X90868035Y-101691500D02*
X91377546Y-101181989D01*
X130586500Y-73559500D02*
X130586500Y-69410792D01*
X128110000Y-76036000D02*
X130586500Y-73559500D01*
X130586500Y-69410792D02*
X130586500Y-68138000D01*
X131412000Y-65821500D02*
X131412000Y-67312500D01*
X131412000Y-67312500D02*
X130586500Y-68138000D01*
X128110000Y-77536000D02*
X130332500Y-77536000D01*
X128110000Y-77536000D02*
X128110000Y-76036000D01*
X130332500Y-77536000D02*
X131918169Y-79121669D01*
X130142000Y-63559412D02*
X131412000Y-64829412D01*
X131412000Y-65821500D02*
X132682000Y-65821500D01*
X131412000Y-64829412D02*
X131412000Y-65821500D01*
X123812000Y-51691500D02*
X140868035Y-51691500D01*
X130142000Y-59946500D02*
X123538000Y-53342500D01*
X123411000Y-53342500D02*
X123411000Y-52092500D01*
X123411000Y-52092500D02*
X123812000Y-51691500D01*
X123538000Y-53342500D02*
X123411000Y-53342500D01*
X130142000Y-60421500D02*
X130142000Y-63559412D01*
X130142000Y-60421500D02*
X130142000Y-59946500D01*
X128618000Y-93474500D02*
X125860500Y-93474500D01*
X131936501Y-90155999D02*
X128618000Y-93474500D01*
X125860500Y-93474500D02*
X124697500Y-94637500D01*
X124697500Y-94637500D02*
X124697500Y-95887500D01*
D33*
X124697500Y-96887500D02*
X125920000Y-98110000D01*
X124697500Y-95887500D02*
X124697500Y-96887500D01*
X159321500Y-84902000D02*
X158846500Y-84902000D01*
X168432500Y-84140000D02*
X167952499Y-83659999D01*
X167952499Y-83659999D02*
X160563501Y-83659999D01*
X159225000Y-83140000D02*
X159209000Y-83124000D01*
X160563501Y-83659999D02*
X159321500Y-84902000D01*
X158846500Y-84902000D02*
X158846500Y-84352000D01*
X159225000Y-83973500D02*
X159225000Y-83140000D01*
X158846500Y-84352000D02*
X159225000Y-83973500D01*
X167000000Y-95979000D02*
X167035500Y-96014500D01*
X167035500Y-97411500D02*
X167035500Y-96014500D01*
X167000000Y-94953840D02*
X167000000Y-95979000D01*
X167000000Y-94953840D02*
X168432500Y-93521340D01*
X166337000Y-98110000D02*
X167035500Y-97411500D01*
D32*
X131936501Y-82729999D02*
X131936501Y-90155999D01*
X131918169Y-79121669D02*
X131918169Y-82711667D01*
X131918169Y-82711667D02*
X131936501Y-82729999D01*
D33*
X125920000Y-98110000D02*
X140476500Y-98110000D01*
X141965700Y-96903500D02*
X143172200Y-98110000D01*
X140476500Y-98110000D02*
X143172200Y-98110000D01*
X140683000Y-96903500D02*
X141965700Y-96903500D01*
X168432500Y-93521340D02*
X168432500Y-84140000D01*
X143172200Y-98110000D02*
X166337000Y-98110000D01*
D32*
X140868035Y-51691500D02*
X141377546Y-51181989D01*
X141377546Y-51181989D02*
X155513489Y-51181989D01*
X155513489Y-51181989D02*
X157674000Y-53342500D01*
X156558000Y-60421500D02*
X156558000Y-60896500D01*
X156558000Y-60896500D02*
X156539990Y-60914510D01*
X156558000Y-61696500D02*
X156558000Y-60421500D01*
X156539990Y-61714510D02*
X156558000Y-61696500D01*
X156539990Y-63833402D02*
X156539990Y-61714510D01*
X157674000Y-53342500D02*
X158924000Y-53342500D01*
X156558000Y-54458500D02*
X157674000Y-53342500D01*
X156558000Y-60421500D02*
X156558000Y-54458500D01*
X157669588Y-64963000D02*
X156539990Y-63833402D01*
X157828000Y-64963000D02*
X157669588Y-64963000D01*
X157828000Y-65821500D02*
X159098000Y-65821500D01*
X157828000Y-65821500D02*
X157828000Y-64963000D01*
D33*
X90476500Y-98110000D02*
X93172200Y-98110000D01*
X91965700Y-96903500D02*
X93172200Y-98110000D01*
X93172200Y-98110000D02*
X116337000Y-98110000D01*
X90683000Y-96903500D02*
X91965700Y-96903500D01*
D32*
X74697500Y-94637500D02*
X74697500Y-95887500D01*
X81936501Y-90155999D02*
X78618000Y-93474500D01*
X81918169Y-82711667D02*
X81936501Y-82729999D01*
X81918169Y-79121669D02*
X81918169Y-82711667D01*
X78618000Y-93474500D02*
X75860500Y-93474500D01*
X81936501Y-82729999D02*
X81936501Y-90155999D01*
X78110000Y-77536000D02*
X80332500Y-77536000D01*
X80332500Y-77536000D02*
X81918169Y-79121669D01*
X75860500Y-93474500D02*
X74697500Y-94637500D01*
D33*
X116337000Y-98110000D02*
X117035500Y-97411500D01*
X117035500Y-97411500D02*
X117035500Y-96014500D01*
X117000000Y-94953840D02*
X117000000Y-95979000D01*
X117000000Y-95979000D02*
X117035500Y-96014500D01*
X109321500Y-84902000D02*
X108846500Y-84902000D01*
X117000000Y-94953840D02*
X118432500Y-93521340D01*
X118432500Y-93521340D02*
X118432500Y-84140000D01*
X118432500Y-84140000D02*
X117952499Y-83659999D01*
X110563501Y-83659999D02*
X109321500Y-84902000D01*
X117952499Y-83659999D02*
X110563501Y-83659999D01*
X109225000Y-83973500D02*
X109225000Y-83140000D01*
X109225000Y-83140000D02*
X109209000Y-83124000D01*
X108846500Y-84902000D02*
X108846500Y-84352000D01*
X108846500Y-84352000D02*
X109225000Y-83973500D01*
X75920000Y-98110000D02*
X90476500Y-98110000D01*
D32*
X105513489Y-51181989D02*
X107674000Y-53342500D01*
X73812000Y-51691500D02*
X90868035Y-51691500D01*
X73411000Y-52092500D02*
X73812000Y-51691500D01*
X91377546Y-51181989D02*
X105513489Y-51181989D01*
X73411000Y-53342500D02*
X73411000Y-52092500D01*
X90868035Y-51691500D02*
X91377546Y-51181989D01*
X107674000Y-53342500D02*
X108924000Y-53342500D01*
D33*
X74697500Y-95887500D02*
X74697500Y-96887500D01*
X74697500Y-96887500D02*
X75920000Y-98110000D01*
D32*
X78110000Y-77536000D02*
X78110000Y-76036000D01*
X80586500Y-69410792D02*
X80586500Y-68138000D01*
X78110000Y-76036000D02*
X80586500Y-73559500D01*
X80586500Y-73559500D02*
X80586500Y-69410792D01*
X107828000Y-65821500D02*
X109098000Y-65821500D01*
X107828000Y-65821500D02*
X107828000Y-64963000D01*
X106539990Y-63833402D02*
X106539990Y-61714510D01*
X107828000Y-64963000D02*
X107669588Y-64963000D01*
X107669588Y-64963000D02*
X106539990Y-63833402D01*
X106539990Y-61714510D02*
X106558000Y-61696500D01*
X106558000Y-61696500D02*
X106558000Y-60421500D01*
X106558000Y-60421500D02*
X106558000Y-60896500D01*
X106558000Y-60896500D02*
X106539990Y-60914510D01*
X106558000Y-60421500D02*
X106558000Y-54458500D01*
X106558000Y-54458500D02*
X107674000Y-53342500D01*
X81412000Y-64829412D02*
X81412000Y-65821500D01*
X80142000Y-60421500D02*
X80142000Y-63559412D01*
X80142000Y-63559412D02*
X81412000Y-64829412D01*
X81412000Y-65821500D02*
X82682000Y-65821500D01*
X81412000Y-65821500D02*
X81412000Y-67312500D01*
X81412000Y-67312500D02*
X80586500Y-68138000D01*
X80142000Y-60421500D02*
X80142000Y-59946500D01*
X80142000Y-59946500D02*
X73538000Y-53342500D01*
X73538000Y-53342500D02*
X73411000Y-53342500D01*
D33*
X137387358Y-146153501D02*
X137433001Y-146153501D01*
X132961520Y-141727663D02*
X137387358Y-146153501D01*
X137433001Y-146153501D02*
X138183000Y-146903500D01*
X132961520Y-130077530D02*
X132961520Y-141727663D01*
X136368001Y-115848999D02*
X136368001Y-121500499D01*
X136368001Y-121500499D02*
X132711523Y-125156977D01*
X137762000Y-115090000D02*
X137127000Y-115090000D01*
X137127000Y-115090000D02*
X136368001Y-115848999D01*
X132711523Y-128264023D02*
X132711523Y-128425000D01*
X132711523Y-125156977D02*
X132711523Y-128425000D01*
X132943191Y-128656668D02*
X132943191Y-130059201D01*
X132943191Y-130059201D02*
X132961520Y-130077530D01*
X132711523Y-128425000D02*
X132943191Y-128656668D01*
X143851500Y-116936000D02*
X143851500Y-115096500D01*
X82961520Y-130077530D02*
X82961520Y-141727663D01*
X87433001Y-146153501D02*
X88183000Y-146903500D01*
X82961520Y-141727663D02*
X87387358Y-146153501D01*
X87387358Y-146153501D02*
X87433001Y-146153501D01*
X86368001Y-115848999D02*
X86368001Y-121500499D01*
X86368001Y-121500499D02*
X82711523Y-125156977D01*
X82711523Y-128264023D02*
X82711523Y-128425000D01*
X82711523Y-125156977D02*
X82711523Y-128425000D01*
X82943191Y-128656668D02*
X82943191Y-130059201D01*
X82711523Y-128425000D02*
X82943191Y-128656668D01*
X82943191Y-130059201D02*
X82961520Y-130077530D01*
X87127000Y-115090000D02*
X86368001Y-115848999D01*
X87762000Y-115090000D02*
X87127000Y-115090000D01*
X93851500Y-116936000D02*
X93851500Y-115096500D01*
X136368001Y-71500499D02*
X132711523Y-75156977D01*
X132711523Y-78425000D02*
X132943191Y-78656668D01*
X132711523Y-75156977D02*
X132711523Y-78425000D01*
X132711523Y-78264023D02*
X132711523Y-78425000D01*
X136368001Y-65848999D02*
X136368001Y-71500499D01*
X132943191Y-78656668D02*
X132943191Y-80059201D01*
X132943191Y-80059201D02*
X132961520Y-80077530D01*
X137762000Y-65090000D02*
X137127000Y-65090000D01*
X137127000Y-65090000D02*
X136368001Y-65848999D01*
X143851500Y-66936000D02*
X143851500Y-65096500D01*
X137387358Y-96153501D02*
X137433001Y-96153501D01*
X132961520Y-91727663D02*
X137387358Y-96153501D01*
X132961520Y-80077530D02*
X132961520Y-91727663D01*
X137433001Y-96153501D02*
X138183000Y-96903500D01*
X82961520Y-91727663D02*
X87387358Y-96153501D01*
X82711523Y-78425000D02*
X82943191Y-78656668D01*
X87387358Y-96153501D02*
X87433001Y-96153501D01*
X82961520Y-80077530D02*
X82961520Y-91727663D01*
X87433001Y-96153501D02*
X88183000Y-96903500D01*
X82943191Y-78656668D02*
X82943191Y-80059201D01*
X82943191Y-80059201D02*
X82961520Y-80077530D01*
X87762000Y-65090000D02*
X87127000Y-65090000D01*
X86368001Y-65848999D02*
X86368001Y-71500499D01*
X87127000Y-65090000D02*
X86368001Y-65848999D01*
X86368001Y-71500499D02*
X82711523Y-75156977D01*
X82711523Y-75156977D02*
X82711523Y-78425000D01*
X82711523Y-78264023D02*
X82711523Y-78425000D01*
X93851500Y-66936000D02*
X93851500Y-65096500D01*
D32*
X132997000Y-107928500D02*
X129160999Y-104092499D01*
X129160999Y-104092499D02*
X128411000Y-103342500D01*
X132682000Y-108737500D02*
X132997000Y-108422500D01*
X132682000Y-110421500D02*
X132682000Y-108737500D01*
X132997000Y-108422500D02*
X132997000Y-107928500D01*
X82682000Y-110421500D02*
X82682000Y-108737500D01*
X82997000Y-108422500D02*
X82997000Y-107928500D01*
X82682000Y-108737500D02*
X82997000Y-108422500D01*
X79160999Y-104092499D02*
X78411000Y-103342500D01*
X82997000Y-107928500D02*
X79160999Y-104092499D01*
X132682000Y-58737500D02*
X132997000Y-58422500D01*
X132682000Y-60421500D02*
X132682000Y-58737500D01*
X132997000Y-58422500D02*
X132997000Y-57928500D01*
X132997000Y-57928500D02*
X129160999Y-54092499D01*
X129160999Y-54092499D02*
X128411000Y-53342500D01*
X82997000Y-58422500D02*
X82997000Y-57928500D01*
X82997000Y-57928500D02*
X79160999Y-54092499D01*
X79160999Y-54092499D02*
X78411000Y-53342500D01*
X82682000Y-60421500D02*
X82682000Y-58737500D01*
X82682000Y-58737500D02*
X82997000Y-58422500D01*
D33*
X160941998Y-144173000D02*
X162654000Y-144173000D01*
X163595501Y-145114501D02*
X164495500Y-146014500D01*
X162654000Y-144173000D02*
X163595501Y-145114501D01*
X157828000Y-141059002D02*
X160941998Y-144173000D01*
X156032012Y-137552422D02*
X157828000Y-139348410D01*
X157828000Y-139348410D02*
X157828000Y-141059002D01*
X156032012Y-129868922D02*
X156032012Y-137552422D01*
X143051500Y-114474000D02*
X143032500Y-114455000D01*
X147477500Y-114455000D02*
X147477500Y-114879264D01*
X147477500Y-114879264D02*
X147922000Y-115323764D01*
X143051500Y-116936000D02*
X143051500Y-114474000D01*
X154393489Y-128230400D02*
X156032012Y-129868922D01*
X153440989Y-120237600D02*
X153265999Y-120412590D01*
X153265999Y-120412590D02*
X153265999Y-121834586D01*
X153265999Y-121834586D02*
X154393489Y-122962076D01*
X154393489Y-122962076D02*
X154393489Y-128230400D01*
X147922000Y-116893400D02*
X148912600Y-117884000D01*
X147922000Y-115323764D02*
X147922000Y-116893400D01*
X148912600Y-117884000D02*
X152876411Y-117884000D01*
X153440989Y-118448578D02*
X153440989Y-120237600D01*
X152876411Y-117884000D02*
X153440989Y-118448578D01*
X106032012Y-137552422D02*
X107828000Y-139348410D01*
X110941998Y-144173000D02*
X112654000Y-144173000D01*
X112654000Y-144173000D02*
X113595501Y-145114501D01*
X113595501Y-145114501D02*
X114495500Y-146014500D01*
X107828000Y-139348410D02*
X107828000Y-141059002D01*
X107828000Y-141059002D02*
X110941998Y-144173000D01*
X104393489Y-128230400D02*
X106032012Y-129868922D01*
X106032012Y-129868922D02*
X106032012Y-137552422D01*
X97922000Y-116893400D02*
X98912600Y-117884000D01*
X98912600Y-117884000D02*
X102876411Y-117884000D01*
X103265999Y-120412590D02*
X103265999Y-121834586D01*
X103440989Y-120237600D02*
X103265999Y-120412590D01*
X103440989Y-118448578D02*
X103440989Y-120237600D01*
X102876411Y-117884000D02*
X103440989Y-118448578D01*
X104393489Y-122962076D02*
X104393489Y-128230400D01*
X103265999Y-121834586D02*
X104393489Y-122962076D01*
X93051500Y-114474000D02*
X93032500Y-114455000D01*
X93051500Y-116936000D02*
X93051500Y-114474000D01*
X97922000Y-115323764D02*
X97922000Y-116893400D01*
X97477500Y-114879264D02*
X97922000Y-115323764D01*
X97477500Y-114455000D02*
X97477500Y-114879264D01*
X147922000Y-66893400D02*
X148912600Y-67884000D01*
X147477500Y-64879264D02*
X147922000Y-65323764D01*
X147477500Y-64455000D02*
X147477500Y-64879264D01*
X147922000Y-65323764D02*
X147922000Y-66893400D01*
X143051500Y-64474000D02*
X143032500Y-64455000D01*
X143051500Y-66936000D02*
X143051500Y-64474000D01*
X160941998Y-94173000D02*
X162654000Y-94173000D01*
X157828000Y-91059002D02*
X160941998Y-94173000D01*
X162654000Y-94173000D02*
X163595501Y-95114501D01*
X163595501Y-95114501D02*
X164495500Y-96014500D01*
X157828000Y-89348410D02*
X157828000Y-91059002D01*
X156032012Y-87552422D02*
X157828000Y-89348410D01*
X156032012Y-79868922D02*
X156032012Y-87552422D01*
X154393489Y-78230400D02*
X156032012Y-79868922D01*
X154393489Y-72962076D02*
X154393489Y-78230400D01*
X153265999Y-71834586D02*
X154393489Y-72962076D01*
X153440989Y-70237600D02*
X153265999Y-70412590D01*
X153265999Y-70412590D02*
X153265999Y-71834586D01*
X152876411Y-67884000D02*
X153440989Y-68448578D01*
X153440989Y-68448578D02*
X153440989Y-70237600D01*
X148912600Y-67884000D02*
X152876411Y-67884000D01*
X102876411Y-67884000D02*
X103440989Y-68448578D01*
X97922000Y-66893400D02*
X98912600Y-67884000D01*
X98912600Y-67884000D02*
X102876411Y-67884000D01*
X97922000Y-65323764D02*
X97922000Y-66893400D01*
X97477500Y-64455000D02*
X97477500Y-64879264D01*
X97477500Y-64879264D02*
X97922000Y-65323764D01*
X110941998Y-94173000D02*
X112654000Y-94173000D01*
X107828000Y-91059002D02*
X110941998Y-94173000D01*
X107828000Y-89348410D02*
X107828000Y-91059002D01*
X106032012Y-87552422D02*
X107828000Y-89348410D01*
X106032012Y-79868922D02*
X106032012Y-87552422D01*
X104393489Y-78230400D02*
X106032012Y-79868922D01*
X104393489Y-72962076D02*
X104393489Y-78230400D01*
X113595501Y-95114501D02*
X114495500Y-96014500D01*
X103265999Y-71834586D02*
X104393489Y-72962076D01*
X103265999Y-70412590D02*
X103265999Y-71834586D01*
X103440989Y-70237600D02*
X103265999Y-70412590D01*
X112654000Y-94173000D02*
X113595501Y-95114501D01*
X103440989Y-68448578D02*
X103440989Y-70237600D01*
X93051500Y-66936000D02*
X93051500Y-64474000D01*
X93051500Y-64474000D02*
X93032500Y-64455000D01*
X127947499Y-145137501D02*
X127197500Y-145887500D01*
X132511509Y-140573491D02*
X127947499Y-145137501D01*
X132511509Y-130263930D02*
X132511509Y-140573491D01*
X131666000Y-120614500D02*
X131666000Y-128056312D01*
X145423000Y-120614500D02*
X139794000Y-120614500D01*
X132493180Y-128883492D02*
X132493180Y-130245601D01*
X132493180Y-130245601D02*
X132511509Y-130263930D01*
X131666000Y-128056312D02*
X132493180Y-128883492D01*
X150720000Y-119986000D02*
X150843000Y-120109000D01*
X146901500Y-119986000D02*
X146051500Y-119986000D01*
X146901500Y-119986000D02*
X150720000Y-119986000D01*
X146051500Y-119986000D02*
X145423000Y-120614500D01*
X77947499Y-145137501D02*
X77197500Y-145887500D01*
X82511509Y-130263930D02*
X82511509Y-140573491D01*
X82511509Y-140573491D02*
X77947499Y-145137501D01*
X96051500Y-119986000D02*
X95423000Y-120614500D01*
X96901500Y-119986000D02*
X96051500Y-119986000D01*
X95423000Y-120614500D02*
X89794000Y-120614500D01*
X81666000Y-120614500D02*
X81666000Y-128056312D01*
X82493180Y-128883492D02*
X82493180Y-130245601D01*
X82493180Y-130245601D02*
X82511509Y-130263930D01*
X81666000Y-128056312D02*
X82493180Y-128883492D01*
X96901500Y-119986000D02*
X100720000Y-119986000D01*
X100720000Y-119986000D02*
X100843000Y-120109000D01*
X131666000Y-70614500D02*
X131666000Y-78056312D01*
X131666000Y-78056312D02*
X132493180Y-78883492D01*
X132493180Y-78883492D02*
X132493180Y-80245601D01*
X132493180Y-80245601D02*
X132511509Y-80263930D01*
X146051500Y-69986000D02*
X145423000Y-70614500D01*
X146901500Y-69986000D02*
X146051500Y-69986000D01*
X145423000Y-70614500D02*
X139794000Y-70614500D01*
X127947499Y-95137501D02*
X127197500Y-95887500D01*
X132511509Y-90573491D02*
X127947499Y-95137501D01*
X132511509Y-80263930D02*
X132511509Y-90573491D01*
X150720000Y-69986000D02*
X150843000Y-70109000D01*
X146901500Y-69986000D02*
X150720000Y-69986000D01*
X82493180Y-78883492D02*
X82493180Y-80245601D01*
X82511509Y-90573491D02*
X77947499Y-95137501D01*
X82511509Y-80263930D02*
X82511509Y-90573491D01*
X81666000Y-70614500D02*
X81666000Y-78056312D01*
X77947499Y-95137501D02*
X77197500Y-95887500D01*
X82493180Y-80245601D02*
X82511509Y-80263930D01*
X81666000Y-78056312D02*
X82493180Y-78883492D01*
X95423000Y-70614500D02*
X89794000Y-70614500D01*
X96051500Y-69986000D02*
X95423000Y-70614500D01*
X96901500Y-69986000D02*
X96051500Y-69986000D01*
X96901500Y-69986000D02*
X100720000Y-69986000D01*
X100720000Y-69986000D02*
X100843000Y-70109000D01*
D32*
X113924000Y-103992500D02*
X113924000Y-103342500D01*
X109857500Y-108059000D02*
X113924000Y-103992500D01*
X159857500Y-108059000D02*
X163924000Y-103992500D01*
X163924000Y-103992500D02*
X163924000Y-103342500D01*
X159098000Y-109118500D02*
X159857500Y-108359000D01*
X159098000Y-110421500D02*
X159098000Y-109118500D01*
X159857500Y-108359000D02*
X159857500Y-108059000D01*
X109098000Y-110421500D02*
X109098000Y-109118500D01*
X109098000Y-109118500D02*
X109857500Y-108359000D01*
X109857500Y-108359000D02*
X109857500Y-108059000D01*
X163924000Y-53992500D02*
X163924000Y-53342500D01*
X159857500Y-58359000D02*
X159857500Y-58059000D01*
X159857500Y-58059000D02*
X163924000Y-53992500D01*
X159098000Y-59118500D02*
X159857500Y-58359000D01*
X159098000Y-60421500D02*
X159098000Y-59118500D01*
X109857500Y-58359000D02*
X109857500Y-58059000D01*
X109857500Y-58059000D02*
X113924000Y-53992500D01*
X113924000Y-53992500D02*
X113924000Y-53342500D01*
X109098000Y-60421500D02*
X109098000Y-59118500D01*
X109098000Y-59118500D02*
X109857500Y-58359000D01*
X123093500Y-140132500D02*
X121843500Y-140132500D01*
X71442500Y-134650792D02*
X71442500Y-133378000D01*
X73093500Y-140132500D02*
X71843500Y-140132500D01*
X71843500Y-140132500D02*
X71442500Y-139731500D01*
X71442500Y-139731500D02*
X71442500Y-134650792D01*
X121442500Y-139731500D02*
X121442500Y-134650792D01*
X121843500Y-140132500D02*
X121442500Y-139731500D01*
X121442500Y-134650792D02*
X121442500Y-133378000D01*
X123093500Y-90132500D02*
X121843500Y-90132500D01*
X121442500Y-89731500D02*
X121442500Y-84650792D01*
X121442500Y-84650792D02*
X121442500Y-83378000D01*
X121843500Y-90132500D02*
X121442500Y-89731500D01*
X73093500Y-90132500D02*
X71843500Y-90132500D01*
X71442500Y-89731500D02*
X71442500Y-84650792D01*
X71843500Y-90132500D02*
X71442500Y-89731500D01*
X71442500Y-84650792D02*
X71442500Y-83378000D01*
D33*
X153383000Y-134902000D02*
X153004500Y-134523500D01*
X153004500Y-134523500D02*
X153004500Y-133124000D01*
X153446500Y-134902000D02*
X153383000Y-134902000D01*
X103004500Y-134523500D02*
X103004500Y-133124000D01*
X103446500Y-134902000D02*
X103383000Y-134902000D01*
X103383000Y-134902000D02*
X103004500Y-134523500D01*
X153446500Y-84902000D02*
X153383000Y-84902000D01*
X153004500Y-84523500D02*
X153004500Y-83124000D01*
X153383000Y-84902000D02*
X153004500Y-84523500D01*
X103383000Y-84902000D02*
X103004500Y-84523500D01*
X103004500Y-84523500D02*
X103004500Y-83124000D01*
X103446500Y-84902000D02*
X103383000Y-84902000D01*
X135293700Y-142787022D02*
X133861543Y-141354865D01*
X148896478Y-142787022D02*
X135293700Y-142787022D01*
X152971500Y-138712000D02*
X148896478Y-142787022D01*
X133861543Y-141354865D02*
X133861543Y-133317468D01*
X153446500Y-138712000D02*
X152971500Y-138712000D01*
X133868611Y-126121411D02*
X137604022Y-122386000D01*
X137604022Y-122386000D02*
X138401500Y-122386000D01*
X133868611Y-133310400D02*
X133868611Y-126121411D01*
X133861543Y-133317468D02*
X133868611Y-133310400D01*
X85293700Y-142787022D02*
X83861543Y-141354865D01*
X83861543Y-141354865D02*
X83861543Y-133317468D01*
X98896478Y-142787022D02*
X85293700Y-142787022D01*
X102971500Y-138712000D02*
X98896478Y-142787022D01*
X103446500Y-138712000D02*
X102971500Y-138712000D01*
X83868611Y-133310400D02*
X83868611Y-126121411D01*
X83861543Y-133317468D02*
X83868611Y-133310400D01*
X83868611Y-126121411D02*
X87604022Y-122386000D01*
X87604022Y-122386000D02*
X88401500Y-122386000D01*
X133868611Y-76121411D02*
X137604022Y-72386000D01*
X137604022Y-72386000D02*
X138401500Y-72386000D01*
X133861543Y-91354865D02*
X133861543Y-83317468D01*
X135293700Y-92787022D02*
X133861543Y-91354865D01*
X152971500Y-88712000D02*
X148896478Y-92787022D01*
X153446500Y-88712000D02*
X152971500Y-88712000D01*
X133861543Y-83317468D02*
X133868611Y-83310400D01*
X133868611Y-83310400D02*
X133868611Y-76121411D01*
X148896478Y-92787022D02*
X135293700Y-92787022D01*
X83861543Y-91354865D02*
X83861543Y-83317468D01*
X103446500Y-88712000D02*
X102971500Y-88712000D01*
X83861543Y-83317468D02*
X83868611Y-83310400D01*
X85293700Y-92787022D02*
X83861543Y-91354865D01*
X98896478Y-92787022D02*
X85293700Y-92787022D01*
X102971500Y-88712000D02*
X98896478Y-92787022D01*
X83868611Y-83310400D02*
X83868611Y-76121411D01*
X83868611Y-76121411D02*
X87604022Y-72386000D01*
X87604022Y-72386000D02*
X88401500Y-72386000D01*
X138638001Y-128758001D02*
X149176501Y-128758001D01*
X138524000Y-128644000D02*
X138638001Y-128758001D01*
X138524000Y-128044000D02*
X138524000Y-128644000D01*
X149573000Y-128361502D02*
X149573000Y-126583498D01*
X149382502Y-126393000D02*
X145558500Y-126393000D01*
X145451500Y-126286000D02*
X145451500Y-125436000D01*
X145558500Y-126393000D02*
X145451500Y-126286000D01*
X149573000Y-126583498D02*
X149382502Y-126393000D01*
X149176501Y-128758001D02*
X149573000Y-128361502D01*
X95451500Y-126286000D02*
X95451500Y-125436000D01*
X95558500Y-126393000D02*
X95451500Y-126286000D01*
X88638001Y-128758001D02*
X99176501Y-128758001D01*
X99573000Y-126583498D02*
X99382502Y-126393000D01*
X99382502Y-126393000D02*
X95558500Y-126393000D01*
X99573000Y-128361502D02*
X99573000Y-126583498D01*
X99176501Y-128758001D02*
X99573000Y-128361502D01*
X88524000Y-128644000D02*
X88638001Y-128758001D01*
X88524000Y-128044000D02*
X88524000Y-128644000D01*
X138524000Y-78644000D02*
X138638001Y-78758001D01*
X138524000Y-78044000D02*
X138524000Y-78644000D01*
X138638001Y-78758001D02*
X149176501Y-78758001D01*
X145451500Y-76286000D02*
X145451500Y-75436000D01*
X145558500Y-76393000D02*
X145451500Y-76286000D01*
X149573000Y-76583498D02*
X149382502Y-76393000D01*
X149382502Y-76393000D02*
X145558500Y-76393000D01*
X149573000Y-78361502D02*
X149573000Y-76583498D01*
X149176501Y-78758001D02*
X149573000Y-78361502D01*
X88524000Y-78044000D02*
X88524000Y-78644000D01*
X88524000Y-78644000D02*
X88638001Y-78758001D01*
X88638001Y-78758001D02*
X99176501Y-78758001D01*
X99573000Y-76583498D02*
X99382502Y-76393000D01*
X99176501Y-78758001D02*
X99573000Y-78361502D01*
X99573000Y-78361502D02*
X99573000Y-76583498D01*
X95451500Y-76286000D02*
X95451500Y-75436000D01*
X99382502Y-76393000D02*
X95558500Y-76393000D01*
X95558500Y-76393000D02*
X95451500Y-76286000D01*
X138401500Y-118386000D02*
X143661500Y-118386000D01*
X152811500Y-123001500D02*
X152328429Y-122518429D01*
X152811500Y-123601500D02*
X152811500Y-123001500D01*
X152328429Y-122518429D02*
X152328429Y-119562551D01*
X152328429Y-119562551D02*
X152328429Y-119138287D01*
X143661500Y-118386000D02*
X143667500Y-118392000D01*
X88401500Y-118386000D02*
X93661500Y-118386000D01*
X93661500Y-118386000D02*
X93667500Y-118392000D01*
X102328429Y-119562551D02*
X102328429Y-119138287D01*
X102328429Y-122518429D02*
X102328429Y-119562551D01*
X102811500Y-123601500D02*
X102811500Y-123001500D01*
X102811500Y-123001500D02*
X102328429Y-122518429D01*
X143661500Y-68386000D02*
X143667500Y-68392000D01*
X138401500Y-68386000D02*
X143661500Y-68386000D01*
X152811500Y-73001500D02*
X152328429Y-72518429D01*
X152328429Y-72518429D02*
X152328429Y-69562551D01*
X152811500Y-73601500D02*
X152811500Y-73001500D01*
X152328429Y-69562551D02*
X152328429Y-69138287D01*
X102328429Y-69562551D02*
X102328429Y-69138287D01*
X102811500Y-73001500D02*
X102328429Y-72518429D01*
X102328429Y-72518429D02*
X102328429Y-69562551D01*
X102811500Y-73601500D02*
X102811500Y-73001500D01*
X88401500Y-68386000D02*
X93661500Y-68386000D01*
X93661500Y-68386000D02*
X93667500Y-68392000D01*
X156659000Y-129859500D02*
X156659000Y-130319000D01*
X156659000Y-130319000D02*
X157259000Y-130919000D01*
X157259000Y-130919000D02*
X157259000Y-131219000D01*
X138401500Y-119986000D02*
X144175500Y-119986000D01*
X154843500Y-128044000D02*
X156659000Y-129859500D01*
X155616522Y-120074546D02*
X155616522Y-121528480D01*
X155616522Y-121528480D02*
X154843500Y-122301502D01*
X155250557Y-119708581D02*
X155616522Y-120074546D01*
X154843500Y-122301502D02*
X154843500Y-128044000D01*
X144175500Y-119986000D02*
X144364589Y-119986000D01*
X144175500Y-119986000D02*
X144439290Y-119986000D01*
X144439290Y-119986000D02*
X144509290Y-119916000D01*
X106659000Y-130319000D02*
X107259000Y-130919000D01*
X107259000Y-130919000D02*
X107259000Y-131219000D01*
X106659000Y-129859500D02*
X106659000Y-130319000D01*
X104843500Y-128044000D02*
X106659000Y-129859500D01*
X88401500Y-119986000D02*
X94175500Y-119986000D01*
X94175500Y-119986000D02*
X94439290Y-119986000D01*
X94175500Y-119986000D02*
X94364589Y-119986000D01*
X94439290Y-119986000D02*
X94509290Y-119916000D01*
X104843500Y-122301502D02*
X104843500Y-128044000D01*
X105250557Y-119708581D02*
X105616522Y-120074546D01*
X105616522Y-121528480D02*
X104843500Y-122301502D01*
X105616522Y-120074546D02*
X105616522Y-121528480D01*
X138401500Y-69986000D02*
X144175500Y-69986000D01*
X144439290Y-69986000D02*
X144509290Y-69916000D01*
X144175500Y-69986000D02*
X144439290Y-69986000D01*
X144175500Y-69986000D02*
X144364589Y-69986000D01*
X154843500Y-72301502D02*
X154843500Y-78044000D01*
X154843500Y-78044000D02*
X156659000Y-79859500D01*
X157259000Y-80919000D02*
X157259000Y-81219000D01*
X156659000Y-79859500D02*
X156659000Y-80319000D01*
X156659000Y-80319000D02*
X157259000Y-80919000D01*
X155616522Y-70074546D02*
X155616522Y-71528480D01*
X155616522Y-71528480D02*
X154843500Y-72301502D01*
X155250557Y-69708581D02*
X155616522Y-70074546D01*
X105250557Y-69708581D02*
X105616522Y-70074546D01*
X105616522Y-70074546D02*
X105616522Y-71528480D01*
X105616522Y-71528480D02*
X104843500Y-72301502D01*
X104843500Y-72301502D02*
X104843500Y-78044000D01*
X104843500Y-78044000D02*
X106659000Y-79859500D01*
X106659000Y-79859500D02*
X106659000Y-80319000D01*
X106659000Y-80319000D02*
X107259000Y-80919000D01*
X107259000Y-80919000D02*
X107259000Y-81219000D01*
X94175500Y-69986000D02*
X94364589Y-69986000D01*
X88401500Y-69986000D02*
X94175500Y-69986000D01*
X94175500Y-69986000D02*
X94439290Y-69986000D01*
X94439290Y-69986000D02*
X94509290Y-69916000D01*
X143699000Y-110454500D02*
X141451500Y-112702000D01*
X141451500Y-112702000D02*
X141451500Y-116936000D01*
X91451500Y-112702000D02*
X91451500Y-116936000D01*
X93699000Y-110454500D02*
X91451500Y-112702000D01*
X141451500Y-62702000D02*
X141451500Y-66936000D01*
X143699000Y-60454500D02*
X141451500Y-62702000D01*
X93699000Y-60454500D02*
X91451500Y-62702000D01*
X91451500Y-62702000D02*
X91451500Y-66936000D01*
X146239000Y-114677500D02*
X145451500Y-115465000D01*
X146239000Y-110454500D02*
X146239000Y-114677500D01*
X145451500Y-115465000D02*
X145451500Y-116936000D01*
X95451500Y-115465000D02*
X95451500Y-116936000D01*
X96239000Y-114677500D02*
X95451500Y-115465000D01*
X96239000Y-110454500D02*
X96239000Y-114677500D01*
X145451500Y-65465000D02*
X145451500Y-66936000D01*
X146239000Y-64677500D02*
X145451500Y-65465000D01*
X146239000Y-60454500D02*
X146239000Y-64677500D01*
X96239000Y-64677500D02*
X95451500Y-65465000D01*
X95451500Y-65465000D02*
X95451500Y-66936000D01*
X96239000Y-60454500D02*
X96239000Y-64677500D01*
X144937500Y-109216000D02*
X144937500Y-110975130D01*
X146239000Y-107914500D02*
X144937500Y-109216000D01*
X144937500Y-110975130D02*
X142251500Y-113661130D01*
X142251500Y-116086000D02*
X142251500Y-116936000D01*
X142251500Y-113661130D02*
X142251500Y-116086000D01*
X92251500Y-116086000D02*
X92251500Y-116936000D01*
X92251500Y-113661130D02*
X92251500Y-116086000D01*
X94937500Y-109216000D02*
X94937500Y-110975130D01*
X96239000Y-107914500D02*
X94937500Y-109216000D01*
X94937500Y-110975130D02*
X92251500Y-113661130D01*
X144937500Y-59216000D02*
X144937500Y-60975130D01*
X146239000Y-57914500D02*
X144937500Y-59216000D01*
X144937500Y-60975130D02*
X142251500Y-63661130D01*
X142251500Y-66086000D02*
X142251500Y-66936000D01*
X142251500Y-63661130D02*
X142251500Y-66086000D01*
X94937500Y-59216000D02*
X94937500Y-60975130D01*
X94937500Y-60975130D02*
X92251500Y-63661130D01*
X92251500Y-63661130D02*
X92251500Y-66086000D01*
X92251500Y-66086000D02*
X92251500Y-66936000D01*
X96239000Y-57914500D02*
X94937500Y-59216000D01*
X140651500Y-116936000D02*
X140651500Y-113788000D01*
X140651500Y-113788000D02*
X140683000Y-113756500D01*
X148779000Y-110454500D02*
X148779000Y-111675814D01*
X148779000Y-111675814D02*
X148176000Y-112278814D01*
X148176000Y-112278814D02*
X148176000Y-113693000D01*
X90651500Y-113788000D02*
X90683000Y-113756500D01*
X90651500Y-116936000D02*
X90651500Y-113788000D01*
X98779000Y-111675814D02*
X98176000Y-112278814D01*
X98176000Y-112278814D02*
X98176000Y-113693000D01*
X98779000Y-110454500D02*
X98779000Y-111675814D01*
X140651500Y-63788000D02*
X140683000Y-63756500D01*
X140651500Y-66936000D02*
X140651500Y-63788000D01*
X148779000Y-60454500D02*
X148779000Y-61675814D01*
X148779000Y-61675814D02*
X148176000Y-62278814D01*
X148176000Y-62278814D02*
X148176000Y-63693000D01*
X90651500Y-66936000D02*
X90651500Y-63788000D01*
X90651500Y-63788000D02*
X90683000Y-63756500D01*
X98176000Y-62278814D02*
X98176000Y-63693000D01*
X98779000Y-60454500D02*
X98779000Y-61675814D01*
X98779000Y-61675814D02*
X98176000Y-62278814D01*
X139857500Y-113121500D02*
X139857500Y-116930000D01*
X139857500Y-116930000D02*
X139851500Y-116936000D01*
X148779000Y-107914500D02*
X147477500Y-109216000D01*
X147477500Y-109216000D02*
X147477500Y-113121500D01*
X89857500Y-116930000D02*
X89851500Y-116936000D01*
X89857500Y-113121500D02*
X89857500Y-116930000D01*
X98779000Y-107914500D02*
X97477500Y-109216000D01*
X97477500Y-109216000D02*
X97477500Y-113121500D01*
X139857500Y-66930000D02*
X139851500Y-66936000D01*
X139857500Y-63121500D02*
X139857500Y-66930000D01*
X148779000Y-57914500D02*
X147477500Y-59216000D01*
X147477500Y-59216000D02*
X147477500Y-63121500D01*
X89857500Y-63121500D02*
X89857500Y-66930000D01*
X89857500Y-66930000D02*
X89851500Y-66936000D01*
X97477500Y-59216000D02*
X97477500Y-63121500D01*
X98779000Y-57914500D02*
X97477500Y-59216000D01*
X146901500Y-122386000D02*
X148995000Y-122386000D01*
X154907000Y-108486000D02*
X153764000Y-108486000D01*
X155415000Y-108994000D02*
X154907000Y-108486000D01*
X154399000Y-115339000D02*
X154699000Y-115339000D01*
X154699000Y-115339000D02*
X155415000Y-114623000D01*
X155415000Y-114623000D02*
X155415000Y-108994000D01*
X154698999Y-121521001D02*
X154698999Y-120278088D01*
X154698999Y-120278088D02*
X154399000Y-119978089D01*
X154399000Y-121821000D02*
X154698999Y-121521001D01*
X154399000Y-119978089D02*
X154399000Y-115339000D01*
X96901500Y-122386000D02*
X98995000Y-122386000D01*
X104698999Y-121521001D02*
X104698999Y-120278088D01*
X104399000Y-121821000D02*
X104698999Y-121521001D01*
X104399000Y-115339000D02*
X104699000Y-115339000D01*
X104399000Y-119978089D02*
X104399000Y-115339000D01*
X104698999Y-120278088D02*
X104399000Y-119978089D01*
X104699000Y-115339000D02*
X105415000Y-114623000D01*
X104907000Y-108486000D02*
X103764000Y-108486000D01*
X105415000Y-108994000D02*
X104907000Y-108486000D01*
X105415000Y-114623000D02*
X105415000Y-108994000D01*
X146901500Y-72386000D02*
X148995000Y-72386000D01*
X154399000Y-69978089D02*
X154399000Y-65339000D01*
X154399000Y-65339000D02*
X154699000Y-65339000D01*
X154698999Y-70278088D02*
X154399000Y-69978089D01*
X154399000Y-71821000D02*
X154698999Y-71521001D01*
X154698999Y-71521001D02*
X154698999Y-70278088D01*
X154699000Y-65339000D02*
X155415000Y-64623000D01*
X154907000Y-58486000D02*
X153764000Y-58486000D01*
X155415000Y-58994000D02*
X154907000Y-58486000D01*
X155415000Y-64623000D02*
X155415000Y-58994000D01*
X104907000Y-58486000D02*
X103764000Y-58486000D01*
X105415000Y-58994000D02*
X104907000Y-58486000D01*
X105415000Y-64623000D02*
X105415000Y-58994000D01*
X104399000Y-65339000D02*
X104699000Y-65339000D01*
X104699000Y-65339000D02*
X105415000Y-64623000D01*
X104399000Y-69978089D02*
X104399000Y-65339000D01*
X104399000Y-71821000D02*
X104698999Y-71521001D01*
X104698999Y-70278088D02*
X104399000Y-69978089D01*
X104698999Y-71521001D02*
X104698999Y-70278088D01*
X96901500Y-72386000D02*
X98995000Y-72386000D01*
X152240000Y-105946000D02*
X153764000Y-105946000D01*
X151582499Y-106603501D02*
X152240000Y-105946000D01*
X147751500Y-121586000D02*
X147770500Y-121567000D01*
X146901500Y-121586000D02*
X147751500Y-121586000D01*
X147770500Y-121567000D02*
X148239500Y-121567000D01*
X151582499Y-115266499D02*
X151582499Y-106603501D01*
X153891000Y-121186000D02*
X153891000Y-118011000D01*
X152557500Y-116677500D02*
X152557500Y-115341500D01*
X152557500Y-115341500D02*
X151657500Y-115341500D01*
X153891000Y-118011000D02*
X152557500Y-116677500D01*
X151657500Y-115341500D02*
X151582499Y-115266499D01*
X97770500Y-121567000D02*
X98239500Y-121567000D01*
X96901500Y-121586000D02*
X97751500Y-121586000D01*
X97751500Y-121586000D02*
X97770500Y-121567000D01*
X103891000Y-121186000D02*
X103891000Y-118011000D01*
X102557500Y-116677500D02*
X102557500Y-115341500D01*
X103891000Y-118011000D02*
X102557500Y-116677500D01*
X101582499Y-115266499D02*
X101582499Y-106603501D01*
X102557500Y-115341500D02*
X101657500Y-115341500D01*
X101657500Y-115341500D02*
X101582499Y-115266499D01*
X101582499Y-106603501D02*
X102240000Y-105946000D01*
X102240000Y-105946000D02*
X103764000Y-105946000D01*
X147751500Y-71586000D02*
X147770500Y-71567000D01*
X147770500Y-71567000D02*
X148239500Y-71567000D01*
X146901500Y-71586000D02*
X147751500Y-71586000D01*
X153891000Y-71186000D02*
X153891000Y-68011000D01*
X151582499Y-56603501D02*
X152240000Y-55946000D01*
X151657500Y-65341500D02*
X151582499Y-65266499D01*
X152240000Y-55946000D02*
X153764000Y-55946000D01*
X153891000Y-68011000D02*
X152557500Y-66677500D01*
X152557500Y-66677500D02*
X152557500Y-65341500D01*
X152557500Y-65341500D02*
X151657500Y-65341500D01*
X151582499Y-65266499D02*
X151582499Y-56603501D01*
X101582499Y-56603501D02*
X102240000Y-55946000D01*
X102240000Y-55946000D02*
X103764000Y-55946000D01*
X102557500Y-65341500D02*
X101657500Y-65341500D01*
X101657500Y-65341500D02*
X101582499Y-65266499D01*
X101582499Y-65266499D02*
X101582499Y-56603501D01*
X103891000Y-71186000D02*
X103891000Y-68011000D01*
X103891000Y-68011000D02*
X102557500Y-66677500D01*
X102557500Y-66677500D02*
X102557500Y-65341500D01*
X97770500Y-71567000D02*
X98239500Y-71567000D01*
X96901500Y-71586000D02*
X97751500Y-71586000D01*
X97751500Y-71586000D02*
X97770500Y-71567000D01*
X134311554Y-141168465D02*
X135480100Y-142337011D01*
X135480100Y-142337011D02*
X148233989Y-142337011D01*
X148233989Y-142337011D02*
X152494000Y-138077000D01*
X152494000Y-138077000D02*
X154526000Y-138077000D01*
X134311554Y-133503868D02*
X134311554Y-141168465D01*
X154904500Y-131221500D02*
X154907000Y-131219000D01*
X154904500Y-133124000D02*
X154904500Y-131221500D01*
X154904500Y-137698500D02*
X154904500Y-134024000D01*
X154904500Y-134024000D02*
X154904500Y-133124000D01*
X154526000Y-138077000D02*
X154904500Y-137698500D01*
X137551500Y-123186000D02*
X134318622Y-126418878D01*
X138401500Y-123186000D02*
X137551500Y-123186000D01*
X134318622Y-133496800D02*
X134311554Y-133503868D01*
X134318622Y-126418878D02*
X134318622Y-133496800D01*
X104904500Y-134024000D02*
X104904500Y-133124000D01*
X104904500Y-131221500D02*
X104907000Y-131219000D01*
X84311554Y-141168465D02*
X85480100Y-142337011D01*
X84311554Y-133503868D02*
X84311554Y-141168465D01*
X84318622Y-133496800D02*
X84311554Y-133503868D01*
X85480100Y-142337011D02*
X98233989Y-142337011D01*
X98233989Y-142337011D02*
X102494000Y-138077000D01*
X104526000Y-138077000D02*
X104904500Y-137698500D01*
X102494000Y-138077000D02*
X104526000Y-138077000D01*
X84318622Y-126418878D02*
X84318622Y-133496800D01*
X104904500Y-133124000D02*
X104904500Y-131221500D01*
X104904500Y-137698500D02*
X104904500Y-134024000D01*
X87551500Y-123186000D02*
X84318622Y-126418878D01*
X88401500Y-123186000D02*
X87551500Y-123186000D01*
X137551500Y-73186000D02*
X134318622Y-76418878D01*
X138401500Y-73186000D02*
X137551500Y-73186000D01*
X134311554Y-83503868D02*
X134311554Y-91168465D01*
X134318622Y-83496800D02*
X134311554Y-83503868D01*
X134311554Y-91168465D02*
X135480100Y-92337011D01*
X148233989Y-92337011D02*
X152494000Y-88077000D01*
X154526000Y-88077000D02*
X154904500Y-87698500D01*
X152494000Y-88077000D02*
X154526000Y-88077000D01*
X134318622Y-76418878D02*
X134318622Y-83496800D01*
X154904500Y-87698500D02*
X154904500Y-84024000D01*
X154904500Y-84024000D02*
X154904500Y-83124000D01*
X135480100Y-92337011D02*
X148233989Y-92337011D01*
X154904500Y-81221500D02*
X154907000Y-81219000D01*
X154904500Y-83124000D02*
X154904500Y-81221500D01*
X104904500Y-84024000D02*
X104904500Y-83124000D01*
X87551500Y-73186000D02*
X84318622Y-76418878D01*
X104526000Y-88077000D02*
X104904500Y-87698500D01*
X102494000Y-88077000D02*
X104526000Y-88077000D01*
X85480100Y-92337011D02*
X98233989Y-92337011D01*
X84311554Y-83503868D02*
X84311554Y-91168465D01*
X98233989Y-92337011D02*
X102494000Y-88077000D01*
X84318622Y-83496800D02*
X84311554Y-83503868D01*
X84311554Y-91168465D02*
X85480100Y-92337011D01*
X88401500Y-73186000D02*
X87551500Y-73186000D01*
X84318622Y-76418878D02*
X84318622Y-83496800D01*
X104904500Y-87698500D02*
X104904500Y-84024000D01*
X104904500Y-83124000D02*
X104904500Y-81221500D01*
X104904500Y-81221500D02*
X104907000Y-81219000D01*
X134761560Y-140982058D02*
X135031500Y-141251999D01*
X134777500Y-140997999D02*
X135031500Y-141251999D01*
X135031500Y-141251999D02*
X135666500Y-141887000D01*
X134777500Y-126760000D02*
X134777500Y-140997999D01*
X152303500Y-137442000D02*
X152421500Y-137442000D01*
X152421500Y-137442000D02*
X153446500Y-137442000D01*
X147858500Y-141887000D02*
X152303500Y-137442000D01*
X135666500Y-141887000D02*
X147858500Y-141887000D01*
X153446500Y-136172000D02*
X153446500Y-137442000D01*
X137551500Y-123986000D02*
X134777500Y-126760000D01*
X138401500Y-123986000D02*
X137551500Y-123986000D01*
X84761560Y-140982058D02*
X85031500Y-141251999D01*
X84777500Y-140997999D02*
X85031500Y-141251999D01*
X85031500Y-141251999D02*
X85666500Y-141887000D01*
X85666500Y-141887000D02*
X97858500Y-141887000D01*
X97858500Y-141887000D02*
X102303500Y-137442000D01*
X102421500Y-137442000D02*
X103446500Y-137442000D01*
X102303500Y-137442000D02*
X102421500Y-137442000D01*
X103446500Y-136172000D02*
X103446500Y-137442000D01*
X84777500Y-126760000D02*
X84777500Y-140997999D01*
X87551500Y-123986000D02*
X84777500Y-126760000D01*
X88401500Y-123986000D02*
X87551500Y-123986000D01*
X137551500Y-73986000D02*
X134777500Y-76760000D01*
X138401500Y-73986000D02*
X137551500Y-73986000D01*
X134777500Y-90997999D02*
X135031500Y-91251999D01*
X134761560Y-90982058D02*
X135031500Y-91251999D01*
X135031500Y-91251999D02*
X135666500Y-91887000D01*
X152303500Y-87442000D02*
X152421500Y-87442000D01*
X147858500Y-91887000D02*
X152303500Y-87442000D01*
X152421500Y-87442000D02*
X153446500Y-87442000D01*
X134777500Y-76760000D02*
X134777500Y-90997999D01*
X153446500Y-86172000D02*
X153446500Y-87442000D01*
X135666500Y-91887000D02*
X147858500Y-91887000D01*
X84761560Y-90982058D02*
X85031500Y-91251999D01*
X85031500Y-91251999D02*
X85666500Y-91887000D01*
X87551500Y-73986000D02*
X84777500Y-76760000D01*
X88401500Y-73986000D02*
X87551500Y-73986000D01*
X84777500Y-76760000D02*
X84777500Y-90997999D01*
X84777500Y-90997999D02*
X85031500Y-91251999D01*
X102421500Y-87442000D02*
X103446500Y-87442000D01*
X102303500Y-87442000D02*
X102421500Y-87442000D01*
X97858500Y-91887000D02*
X102303500Y-87442000D01*
X85666500Y-91887000D02*
X97858500Y-91887000D01*
X103446500Y-86172000D02*
X103446500Y-87442000D01*
M02*
